<svg width="30px" height="30px" viewBox="0 0 30 30" version="1.1" xmlns="http://www.w3.org/2000/svg" xmlns:xlink="http://www.w3.org/1999/xlink"><g id="avatar-ico-Symbols" stroke="none" stroke-width="1" fill="none" fill-rule="evenodd"><g id="avatar-ico-user_profile_symbol"><g id="avatar-ico-Group"><g id="avatar-ico-iconfinder_user_male2_172626"><circle id="avatar-ico-Oval" stroke="#007AFF" stroke-width="1.2" stroke-linecap="round" cx="15" cy="15" r="14.4"></circle><path d="M17.9598,21.3168 C17.8722,20.3496 17.9058,19.6746 17.9058,18.7908 C18.3438,18.561 19.1286,17.0958 19.2612,15.858 C19.6056,15.8298 20.1486,15.4938 20.3076,14.1672 C20.3934,13.455 20.0526,13.0542 19.845,12.9282 C20.4054,11.2428 21.5694,6.0288 17.6922,5.49 C17.2932,4.7892 16.2714,4.4346 14.9436,4.4346 C9.6312,4.5324 8.9904,8.4462 10.155,12.9282 C9.948,13.0542 9.6072,13.455 9.6924,14.1672 C9.852,15.4938 10.3944,15.8298 10.7388,15.858 C10.8708,17.0952 11.6868,18.561 12.126,18.7908 C12.126,19.6746 12.159,20.3496 12.0714,21.3168 C11.3148,23.3508 7.4292,23.5098 5.1876,25.4712 C7.5312,27.831 11.3292,29.5188 15.3372,29.5188 C19.3452,29.5188 24.0564,26.3544 24.8406,25.491 C22.6128,23.5116 18.7182,23.358 17.9598,21.3168 Z" id="avatar-ico-Path" fill="#007AFF" fill-rule="nonzero"></path></g></g></g></g></svg>