<svg width="23px" height="23px" viewBox="0 0 23 23" version="1.1" xmlns="http://www.w3.org/2000/svg" xmlns:xlink="http://www.w3.org/1999/xlink"><g id="blktgbulk-tagging" stroke="none" stroke-width="1" fill="none" fill-rule="evenodd"><g id="blktgsearch_user1-copy-10" transform="translate(-8.000000, -240.000000)" fill="#FFFFFF" fill-rule="nonzero" stroke="#FFFFFF" stroke-width="0.25"><g id="blktgnoun_Tag_3670153" transform="translate(8.000000, 240.000000)"><path d="M22.2735137,0.581815506 C22.1355417,0.585535548 22.0043632,0.64304215 21.9081612,0.742012451 L19.637499,3.01422506 L18.9533029,2.33002926 C18.572925,1.94965105 18.135238,1.73920836 17.7037669,1.72748203 C17.4447919,1.72044146 17.2044029,1.75807685 16.9188019,1.79776197 L13.2146354,2.31245908 C11.8518636,2.50181739 11.1598096,3.08562684 10.2809647,3.90460984 L1.16937653,12.395564 C1.16571047,12.3989586 1.16209282,12.4024035 1.15852438,12.4058987 C0.764691105,12.7947385 0.593941413,13.326497 0.587863372,13.849738 C0.582096547,14.3729791 0.747128276,14.9265808 1.18642967,15.3018456 L1.15594065,15.2734244 L8.12657435,22.2440579 L8.09815228,22.2135689 C8.47341768,22.6528709 9.02701885,22.8179071 9.55025989,22.8121355 C10.0735009,22.8060819 10.6052602,22.6353074 10.9940993,22.2414743 C10.9975944,22.2379051 11.0010419,22.2342882 11.0044339,22.2306211 L11.6302354,21.5588276 L14.1225896,22.4874529 C14.6640075,22.6891797 15.2184897,22.6517486 15.6920029,22.4290586 C16.1655147,22.2063635 16.5782308,21.8304846 16.7684228,21.3107808 L19.5036571,13.1102491 C20.3181993,12.2357068 20.8988333,11.5434396 21.0875396,10.1853633 L21.6022368,6.48119683 C21.6419269,6.19557781 21.6795467,5.9551692 21.6725167,5.69623183 C21.6607957,5.26475781 21.4503466,4.82707297 21.0699695,4.44669582 L20.3857737,3.76249976 L22.6579864,1.49028715 C23.0037423,1.15370894 22.7558288,0.567576108 22.2735137,0.581815506 Z M17.6748281,2.78581531 C17.8821133,2.79144564 17.9239494,2.79722414 18.2050285,3.0783037 L18.8892243,3.76249976 L17.6743114,4.97844612 C17.4668971,4.87826244 17.2360251,4.82031631 16.9921825,4.82031631 C16.1216975,4.82031657 15.4041658,5.53784907 15.4041658,6.40833296 C15.4041658,7.27881711 16.1216975,7.99634935 16.9921825,7.99634961 C17.8626666,7.99634935 18.5801991,7.27881711 18.5801991,6.40833296 C18.5801991,6.16452896 18.5222234,5.93359349 18.4220693,5.72620409 L19.637499,4.51077446 L20.321695,5.19497026 C20.6027748,5.47605088 20.6085515,5.51788864 20.6141834,5.72517063 C20.6175833,5.84948748 20.593919,6.04986013 20.5542389,6.33546909 L20.0395415,10.0396356 C19.8799666,11.1880627 19.5359127,11.5234501 18.7212758,12.3976312 L10.2401403,21.4988839 C10.1030403,21.6373901 9.82021636,21.7504569 9.53837427,21.7537228 C9.25624432,21.7568476 9.01407279,21.6559794 8.90327112,21.5262725 C8.8942012,21.5157394 8.88471854,21.5055689 8.87484905,21.4957835 L1.90421522,14.5251497 C1.89442828,14.5152781 1.8842577,14.505798 1.87372622,14.4967276 C1.74401716,14.3859257 1.64315535,14.1437555 1.6462761,13.8616244 C1.64954081,13.5797834 1.76260864,13.2969595 1.90111483,13.1598585 L1.901644,13.1593293 L11.0023799,4.67871052 C11.8765619,3.86407356 12.2119496,3.52001947 13.3603756,3.36044477 L17.0645421,2.8457474 C17.350168,2.80605937 17.5505626,2.78242573 17.6748405,2.78580287 L17.6748281,2.78581531 Z M16.9921825,5.87864959 C17.2907005,5.87864959 17.5213491,6.10981445 17.5213491,6.40833296 C17.5213491,6.70685147 17.2907005,6.9374996 16.9921825,6.9374996 C16.6936635,6.9374996 16.4630159,6.70685147 16.4630159,6.40833296 C16.4630159,6.10981445 16.6936635,5.87864959 16.9921825,5.87864959 Z M7.99014857,11.6953485 C7.51588059,11.6959571 7.2817688,12.2720457 7.62117867,12.6033032 L10.7966955,15.7793368 C11.2965789,16.2781861 12.0448533,15.528361 11.5449699,15.0295116 L8.36893664,11.8555455 C8.26943505,11.7532629 8.13284497,11.6954964 7.99014857,11.6953485 Z M6.40213166,13.2812957 C5.92539194,13.2799751 5.69011836,13.8602558 6.03316201,14.1913201 L9.20919558,17.3652862 C9.70777216,17.8977829 10.4897945,17.1152198 9.95695329,16.6170115 L6.78298717,13.4435622 C6.68333451,13.340004 6.54584988,13.2814284 6.40213166,13.2812957 L6.40213166,13.2812957 Z M17.7662953,14.9742179 L15.7741692,20.9469798 C15.707169,21.1300476 15.4966941,21.3514223 15.2413852,21.4714955 C14.986076,21.5915674 14.7288426,21.5880993 14.5690747,21.5283394 L12.411067,20.7211537 L17.7662953,14.9742179 Z" id="blktgShape"></path></g></g></g></svg>