<svg width="25px" height="25px" viewBox="0 0 25 25" version="1.1" xmlns="http://www.w3.org/2000/svg" xmlns:xlink="http://www.w3.org/1999/xlink"><g id="sdSearch" stroke="none" stroke-width="1" fill="none" fill-rule="evenodd"><g id="sdsearch_user1-copy" transform="translate(-808.000000, -152.000000)" fill="#007AFF" fill-rule="nonzero"><g id="sdGroup-3"><g id="sdSearch-Tags" transform="translate(791.000000, 140.000000)"><g id="sdtag" transform="translate(17.000000, 12.000000)"><g id="sdcalendar"><path d="M22.0703125,1.953125 L20.8984375,1.953125 L20.8984375,0 L18.9453125,0 L18.9453125,1.953125 L6.0546875,1.953125 L6.0546875,0 L4.1015625,0 L4.1015625,1.953125 L2.9296875,1.953125 C1.31425781,1.953125 0,3.26738281 0,4.8828125 L0,22.0703125 C0,23.6857422 1.31425781,25 2.9296875,25 L22.0703125,25 C23.6857422,25 25,23.6857422 25,22.0703125 L25,4.8828125 C25,3.26738281 23.6857422,1.953125 22.0703125,1.953125 Z M23.046875,22.0703125 C23.046875,22.6087891 22.6087891,23.046875 22.0703125,23.046875 L2.9296875,23.046875 C2.39121094,23.046875 1.953125,22.6087891 1.953125,22.0703125 L1.953125,9.1796875 L23.046875,9.1796875 L23.046875,22.0703125 Z M23.046875,7.2265625 L1.953125,7.2265625 L1.953125,4.8828125 C1.953125,4.34433594 2.39121094,3.90625 2.9296875,3.90625 L4.1015625,3.90625 L4.1015625,5.859375 L6.0546875,5.859375 L6.0546875,3.90625 L18.9453125,3.90625 L18.9453125,5.859375 L20.8984375,5.859375 L20.8984375,3.90625 L22.0703125,3.90625 C22.6087891,3.90625 23.046875,4.34433594 23.046875,4.8828125 L23.046875,7.2265625 Z" id="sdShape"></path><rect id="sdRectangle" x="3.7109375" y="11.2304688" width="1.953125" height="1.953125"></rect><rect id="sdRectangle" x="7.6171875" y="11.2304688" width="1.953125" height="1.953125"></rect><rect id="sdRectangle" x="11.5234375" y="11.2304688" width="1.953125" height="1.953125"></rect><rect id="sdRectangle" x="15.4296875" y="11.2304688" width="1.953125" height="1.953125"></rect><rect id="sdRectangle" x="19.3359375" y="11.2304688" width="1.953125" height="1.953125"></rect><rect id="sdRectangle" x="3.7109375" y="15.1367188" width="1.953125" height="1.953125"></rect><rect id="sdRectangle" x="7.6171875" y="15.1367188" width="1.953125" height="1.953125"></rect><rect id="sdRectangle" x="11.5234375" y="15.1367188" width="1.953125" height="1.953125"></rect><rect id="sdRectangle" x="15.4296875" y="15.1367188" width="1.953125" height="1.953125"></rect><rect id="sdRectangle" x="3.7109375" y="19.0429688" width="1.953125" height="1.953125"></rect><rect id="sdRectangle" x="7.6171875" y="19.0429688" width="1.953125" height="1.953125"></rect><rect id="sdRectangle" x="11.5234375" y="19.0429688" width="1.953125" height="1.953125"></rect><rect id="sdRectangle" x="15.4296875" y="19.0429688" width="1.953125" height="1.953125"></rect><rect id="sdRectangle" x="19.3359375" y="15.1367188" width="1.953125" height="1.953125"></rect></g></g></g></g></g></g></svg>