<svg xmlns="http://www.w3.org/2000/svg" xmlns:xlink="http://www.w3.org/1999/xlink" width="9px" height="5px" viewBox="0 0 9 5" version="1.1"><g id="carrot-ico-Symbols" stroke="none" stroke-width="1" fill="none" fill-rule="evenodd"><g id="carrot-ico-user_profile_symbol" transform="translate(-81.000000, -15.000000)" fill="#AEAEAE" fill-rule="nonzero"><g id="carrot-ico-Group"><path d="M87.8642428,17.1488199 L84.0768451,13.1437793 C83.9892472,13.0510728 83.8723117,13 83.7476265,13 C83.6229414,13 83.5060058,13.0510728 83.4184079,13.1437793 L83.1394924,13.438655 C82.9580001,13.6307997 82.9580001,13.9430899 83.1394924,14.134942 L86.319863,17.4981342 L83.1359635,20.865058 C83.0483657,20.9577646 83,21.0813489 83,21.2131283 C83,21.3450541 83.0483657,21.4686385 83.1359635,21.5614182 L83.4148791,21.8562207 C83.5025462,21.9489272 83.6194125,22 83.7440977,22 C83.8687828,22 83.9857184,21.9489272 84.0733163,21.8562207 L87.8642428,17.8475216 C87.9520483,17.7545223 88.0002756,17.6303526 88,17.4983537 C88.0002756,17.3658426 87.9520483,17.241746 87.8642428,17.1488199 Z" id="carrot-ico-Path" transform="translate(85.500000, 17.500000) rotate(-270.000000) translate(-85.500000, -17.500000) "/></g></g></g></svg>