<svg width="9px" height="9px" viewBox="0 0 9 9" version="1.1" xmlns="http://www.w3.org/2000/svg" xmlns:xlink="http://www.w3.org/1999/xlink"><g id="csTSearch" stroke="none" stroke-width="1" fill="none" fill-rule="evenodd"><g id="csTsearch_user1-copy-5" transform="translate(-126.000000, -211.000000)" fill="#252525" fill-rule="nonzero"><g id="csTGroup-Copy-2" transform="translate(115.000000, 200.000000)"><g id="csTclose" transform="translate(11.000000, 11.000000)"><path d="M5.31274857,4.49371448 L8.80941052,0.996946036 C9.03696734,0.769495745 9.03696734,0.401740064 8.80941052,0.174289773 C8.58196023,-0.0531605182 8.21420455,-0.0531605182 7.98675425,0.174289773 L4.48998578,3.67105825 L0.993323864,0.174289773 C0.765767045,-0.0531605182 0.398117891,-0.0531605182 0.1706676,0.174289773 C-0.0568892182,0.401740064 -0.0568892182,0.769495745 0.1706676,0.996946036 L3.66732955,4.49371448 L0.1706676,7.99048295 C-0.0568892182,8.21793325 -0.0568892182,8.58568893 0.1706676,8.81313922 C0.284019873,8.92659802 0.433061073,8.98359376 0.581995745,8.98359376 C0.730930391,8.98359376 0.879865064,8.92659802 0.993323864,8.81313922 L4.48998578,5.31637075 L7.98675425,8.81313922 C8.10021305,8.92659802 8.24914773,8.98359376 8.3980824,8.98359376 C8.54701705,8.98359376 8.69595169,8.92659802 8.80941052,8.81313922 C9.03696734,8.58568893 9.03696734,8.21793325 8.80941052,7.99048295 L5.31274857,4.49371448 Z" id="csTPath"></path></g></g></g></g></svg>