<svg width="8px" height="7px" viewBox="0 0 8 7" version="1.1" xmlns="http://www.w3.org/2000/svg" xmlns:xlink="http://www.w3.org/1999/xlink"><g id="clTSearch" stroke="none" stroke-width="1" fill="none" fill-rule="evenodd"><g id="clTsearch_user1-copy-8" transform="translate(-229.000000, -212.000000)" fill="#252525" fill-rule="nonzero"><g id="clTGroup" transform="translate(171.000000, 200.000000)"><g id="clTclose" transform="translate(58.540541, 12.000000)"><path d="M4.24381718,3.49511126 L7.03694654,0.775402473 C7.21871865,0.598496691 7.21871865,0.312464494 7.03694654,0.135558712 C6.85525952,-0.0413470697 6.56149672,-0.0413470697 6.3798097,0.135558712 L3.58659525,2.85526752 L0.793465909,0.135558712 C0.611693796,-0.0413470697 0.318016093,-0.0413470697 0.136329074,0.135558712 C-0.0454430391,0.312464494 -0.0454430391,0.598496691 0.136329074,0.775402473 L2.92945844,3.49511126 L0.136329074,6.21482008 C-0.0454430391,6.39172586 -0.0454430391,6.67775805 0.136329074,6.85466384 C0.226874733,6.94290957 0.345928665,6.98723959 0.464897502,6.98723959 C0.583866318,6.98723959 0.702835156,6.94290957 0.793465909,6.85466384 L3.58659525,4.13495502 L6.3798097,6.85466384 C6.47044046,6.94290957 6.5894093,6.98723959 6.70837813,6.98723959 C6.82734695,6.98723959 6.94631577,6.94290957 7.03694654,6.85466384 C7.21871865,6.67775805 7.21871865,6.39172586 7.03694654,6.21482008 L4.24381718,3.49511126 Z" id="clTPath"></path></g></g></g></g></svg>