<svg width="9px" height="9px" viewBox="0 0 9 9" version="1.1" xmlns="http://www.w3.org/2000/svg" xmlns:xlink="http://www.w3.org/1999/xlink"><g id="copy-icon-listing_1.0.3" stroke="none" stroke-width="1" fill="none" fill-rule="evenodd"><g id="copy-icon-search_user5-copy-13" transform="translate(-1208.000000, -620.000000)" fill="#007AFF" fill-rule="nonzero"><path d="M1213.4754,623.49865 C1214.43142,624.454322 1214.44099,625.971365 1213.50355,626.908467 L1212.1108,628.300708 C1211.17829,629.23342 1209.66074,629.233254 1208.72589,628.299268 L1208.69992,628.272835 C1207.7667,627.340493 1207.7667,625.82346 1208.69987,624.890631 L1210.09218,623.498822 C1210.11187,623.479145 1210.12568,623.468011 1210.15225,623.448159 C1210.16358,623.43956 1210.16235,623.440529 1210.16181,623.441026 C1210.28318,623.328369 1210.37421,623.243876 1210.43489,623.187548 C1210.49015,623.13625 1210.38541,623.42711 1210.38541,623.83782 C1210.38541,624.24853 1210.48548,624.469624 1210.46306,624.492046 C1210.22283,624.73229 1209.86249,625.092657 1209.38202,625.573146 C1208.8255,626.129053 1208.8255,627.034845 1209.38209,627.590816 L1209.41013,627.61885 C1209.96624,628.17517 1210.87236,628.17517 1211.42854,627.618787 L1212.82133,626.226496 C1213.37746,625.670575 1213.37746,624.764685 1212.82114,624.20857 C1212.64722,624.034322 1212.43528,623.911231 1212.19373,623.83782 C1212.15039,623.781579 1212.1906,623.626592 1212.31436,623.372859 C1212.43812,623.119127 1212.52031,622.973636 1212.56092,622.936386 C1212.91004,623.056456 1213.21957,623.243429 1213.4754,623.49865 Z M1216.27592,620.699386 C1217.23181,621.654928 1217.24139,623.171931 1216.30392,624.109592 L1214.91116,625.50137 C1214.89127,625.521249 1214.87702,625.532774 1214.84997,625.553066 C1214.83746,625.562585 1214.83832,625.5619 1214.83846,625.561774 C1214.74465,625.64915 1214.6743,625.714683 1214.6274,625.758371 C1214.59271,625.790686 1214.54608,625.834118 1214.48752,625.888666 C1214.46096,625.913406 1214.60525,625.609982 1214.60525,625.168421 C1214.60525,624.72686 1214.53029,624.518162 1214.60525,624.443231 C1214.83113,624.217426 1215.16996,623.878719 1215.62174,623.42711 C1216.17786,622.871188 1216.17786,621.965298 1215.62174,621.409377 C1215.04087,620.828718 1214.13505,620.821366 1213.57484,621.381376 L1212.18243,622.773759 C1211.62591,623.329667 1211.62591,624.235459 1212.18397,624.792918 L1212.20999,624.8194 C1212.37306,624.982412 1212.57515,625.098488 1212.80791,625.168421 C1212.89599,625.173482 1212.87631,625.32474 1212.74887,625.622195 C1212.62144,625.91965 1212.51936,626.066736 1212.44263,626.063507 C1212.09376,625.943781 1211.78373,625.756721 1211.5263,625.499881 L1211.50032,625.473448 C1210.5671,624.541098 1210.5671,623.024027 1211.50024,622.091756 L1212.89259,620.699435 C1213.82558,619.76678 1215.34261,619.766946 1216.27592,620.699386 Z" id="copy-icon-Shape-Copy-3"></path></g></g></svg>