<svg width="24px" height="19px" viewBox="0 0 24 19" version="1.1" xmlns="http://www.w3.org/2000/svg" xmlns:xlink="http://www.w3.org/1999/xlink"><g id="create-user-ico-User-Management" stroke="none" stroke-width="1" fill="none" fill-rule="evenodd"><g id="create-user-ico-usermanagement_RMI_v1.0.0_20" transform="translate(-1131.000000, -94.000000)" fill="#FFFFFF"><g id="create-user-ico-Group-9" transform="translate(-3.000000, 0.000000)"><g id="create-user-ico-Group" transform="translate(1119.000000, 79.000000)"><g id="create-user-ico-Group-4"><g id="create-user-ico-Group-5" transform="translate(15.000000, 15.000000)"><g id="create-user-ico-Group-2" transform="translate(7.565611, 0.000000)" fill-rule="nonzero"><path d="M16.2472754,18.1574661 L14.3355032,18.1574661 C14.3355032,14.855829 11.6303456,12.1706802 8.30290607,12.1706802 C4.97546657,12.1706802 2.2712648,14.8568076 2.2712648,18.1574661 L0.359492609,18.1574661 C0.359492609,13.7755068 3.92399186,10.2135747 8.30386196,10.2135747 C12.6827762,10.2135747 16.2472754,13.7755068 16.2472754,18.1574661 Z" id="create-user-ico-Path"></path><path d="M8.30245325,10.2135747 C5.48790134,10.2135747 3.19659697,7.9213394 3.19659697,5.10678733 C3.1956662,2.29130422 5.48697029,0 8.30245325,0 C11.1188673,0 13.4101713,2.29037317 13.4101713,5.10678733 C13.4101713,7.92320149 11.1188673,10.2135747 8.30245325,10.2135747 Z M8.30245325,1.86209201 C6.51298293,1.86209201 5.05775811,3.31731691 5.05775811,5.10678733 C5.05775811,6.89625775 6.51298293,8.35148265 8.30245325,8.35148265 C10.0928546,8.35148265 11.5480794,6.89625775 11.5480794,5.10678733 C11.5480794,3.31731691 10.0909925,1.86209201 8.30245325,1.86209201 Z" id="create-user-ico-Shape"></path></g><text id="create-user-ico-+" font-family="Roboto-Medium, Roboto" font-size="15.1312217" font-weight="400"><tspan x="0.513486284" y="16.8371041">+</tspan></text></g></g></g></g></g></g></svg>