<svg width="23px" height="20px" viewBox="0 0 23 20" version="1.1" xmlns="http://www.w3.org/2000/svg" xmlns:xlink="http://www.w3.org/1999/xlink"><g id="dashboard-ico-Symbols" stroke="none" stroke-width="1" fill="none" fill-rule="evenodd"><g id="dashboard-ico-main_menu" transform="translate(-8.000000, -26.000000)" fill="#FFFFFF" fill-rule="nonzero"><g id="dashboard-ico-noun_dashboard_1441181" transform="translate(8.000000, 26.000000)"><g id="dashboard-ico-Group"><g id="dashboard-ico-Shape"><path d="M3.78609128,4.59926408 C2.26611402,6.29719253 1.29849321,8.49992899 1.16570232,10.925 L2.3,10.925 L2.3,12.075 L1.16570232,12.075 C1.29574266,14.4454614 2.22675569,16.6595412 3.78533419,18.4 L19.2146657,18.4 C20.7732443,16.6595412 21.7042574,14.4454614 21.8342977,12.075 L20.7,12.075 L20.7,10.925 L21.8342977,10.925 C21.7015068,8.49992899 20.733886,6.29719253 19.2139087,4.59926408 L18.4119687,5.40120401 L17.598796,4.58803121 L18.4007359,3.78609128 C16.7028075,2.26611402 14.500071,1.29849321 12.075,1.16570232 L12.075,2.3 L10.925,2.3 L10.925,1.16570232 C8.499929,1.29849321 6.29719253,2.26611402 4.59926408,3.78609128 L5.40120401,4.58803121 L4.58803121,5.40120401 L3.78609128,4.59926408 Z M0,11.5 C0,5.14872537 5.14872537,0 11.5,0 C17.8512746,0 23,5.14872537 23,11.5 C23,14.6342714 21.746134,17.4756867 19.7126477,19.55 L3.28735228,19.55 C1.25386607,17.4756867 0,14.6342714 0,11.5 Z M15.4099995,5.28999989 L12.5806465,16.4933231 L11.1066769,17.1806465 L10.4193535,15.7066769 L15.4099995,5.28999989 Z"></path></g></g></g></g></g></svg>