<svg xmlns="http://www.w3.org/2000/svg" xmlns:xlink="http://www.w3.org/1999/xlink" width="12px" height="12px" viewBox="0 0 12 12" version="1.1"><g id="delete-ico-User-Management" stroke="none" stroke-width="1" fill="none" fill-rule="evenodd"><g id="delete-ico-usermanagement_RMI_v1.0.0_8" transform="translate(-872.000000, -339.000000)" fill="#007AFF" fill-rule="nonzero"><g id="delete-ico-Group-9" transform="translate(-3.000000, 0.000000)"><g id="delete-ico-Group-8" transform="translate(55.000000, 167.000000)"><g id="delete-ico-Group-3"><g id="delete-ico-Group-28"><g id="delete-ico-Group-12-Copy-3" transform="translate(0.000000, 153.000000)"><g id="delete-ico-Group-10"><g id="delete-ico-Group-6" transform="translate(774.000000, 18.000000)"><g id="delete-ico-delete" transform="translate(46.000000, 1.000000)"><path d="M9.00966382,2.24528775 L8.26566382,10.7233504 L2.81125926,10.7233504 L2.0674188,2.24528775 L1.12487749,2.32790883 L1.88230199,10.9597265 C1.92216524,11.357584 2.26737322,11.6695157 2.66839886,11.6695157 L8.40854701,11.6695157 C8.80941311,11.6695157 9.15475783,11.3577436 9.19528205,10.9540513 L9.95222792,2.32790883 L9.00966382,2.24528775 Z" id="delete-ico-Path"/><path d="M7.27311681,0 L3.80380627,0 C3.36902564,0 3.01531624,0.353709402 3.01531624,0.788490028 L3.01531624,2.28660969 L3.96148148,2.28660969 L3.96148148,0.946165242 L7.11539601,0.946165242 L7.11539601,2.28660969 L8.06156125,2.28660969 L8.06156125,0.788467236 C8.06156125,0.353709402 7.70789744,0 7.27311681,0 Z" id="delete-ico-Path"/><path d="M10.5847293,1.81351567 L0.492193732,1.81351567 C0.230883191,1.81351567 0.0190997151,2.02529915 0.0190997151,2.28660969 C0.0190997151,2.54792023 0.230883191,2.7597037 0.492193732,2.7597037 L10.5847521,2.7597037 C10.8460627,2.7597037 11.0578462,2.54792023 11.0578462,2.28660969 C11.0578462,2.02529915 10.8460399,1.81351567 10.5847293,1.81351567 Z" id="delete-ico-Path"/></g></g></g></g></g></g></g></g></g></g></svg>