<svg xmlns="http://www.w3.org/2000/svg" xmlns:xlink="http://www.w3.org/1999/xlink" width="13px" height="12px" viewBox="0 0 12 12" version="1.1"><g id="edit-ico-User-Management" stroke="none" stroke-width="1" fill="none" fill-rule="evenodd"><g id="edit-ico-usermanagement_RMI_v1.0.0_8" transform="translate(-826.000000, -288.000000)" fill="#007AFF" fill-rule="nonzero"><g id="edit-ico-Group-9" transform="translate(-3.000000, 0.000000)"><g id="edit-ico-Group-8" transform="translate(55.000000, 167.000000)"><g id="edit-ico-Group-3"><g id="edit-ico-Group-28"><g id="edit-ico-Group-12-Copy-2" transform="translate(0.000000, 102.000000)"><g id="edit-ico-Group-10"><g id="edit-ico-Group-6" transform="translate(774.000000, 18.000000)"><g id="edit-ico-edit-button" transform="translate(0.000000, 1.000000)"><path d="M11.4838281,0.404286533 L11.4693868,0.391117479 C11.1932837,0.138911175 10.8353811,0 10.4615931,0 C10.0425559,0 9.64022923,0.177386819 9.35773066,0.486636103 L4.016149,6.33459026 C3.96746132,6.38788539 3.93053295,6.45077364 3.90770201,6.51923209 L3.27961032,8.40216619 C3.2069914,8.619851 3.2434384,8.86060745 3.37708883,9.04614327 C3.51180516,9.23312321 3.72883668,9.34476791 3.95769628,9.34476791 C3.95769628,9.34476791 3.95773066,9.34476791 3.95773066,9.34476791 C4.05672206,9.34476791 4.15347851,9.32441261 4.24524928,9.28425215 L6.06381662,8.48867622 C6.12993696,8.45975931 6.18924928,8.41729513 6.23790258,8.364 L11.5795186,2.51608023 C12.1353696,1.90758739 12.0924928,0.960309456 11.4838281,0.404286533 Z M4.48301433,8.05433811 L4.85157593,6.94944413 L4.88265903,6.91540401 L5.58120344,7.55343266 L5.55012034,7.58747278 L4.48301433,8.05433811 Z M10.817914,1.82038968 L6.27689398,6.79186246 L5.57834957,6.15383381 L10.1193696,1.18232665 C10.2081834,1.08508883 10.3297307,1.03151862 10.4616275,1.03151862 C10.5773295,1.03151862 10.688149,1.07456734 10.7739026,1.15289398 L10.7883095,1.16606304 C10.9768711,1.33829226 10.9901433,1.63182808 10.817914,1.82038968 Z" id="edit-ico-Shape"/><path d="M10.4475645,4.75832665 C10.1627278,4.75832665 9.93180516,4.98924928 9.93180516,5.27408596 L9.93180516,9.65277937 C9.93180516,10.3760115 9.34339255,10.9644241 8.62016046,10.9644241 L2.36919198,10.9644241 C1.6459255,10.9644241 1.05754728,10.3760115 1.05754728,9.65277937 L1.05754728,3.45259599 C1.05754728,2.7293639 1.64595989,2.14095129 2.36919198,2.14095129 L6.89367335,2.14095129 C7.17851003,2.14095129 7.40943266,1.91002865 7.40943266,1.62519198 C7.40943266,1.3403553 7.17851003,1.10943266 6.89367335,1.10943266 L2.36919198,1.10943266 C1.07714613,1.10943266 0.0260286533,2.16058453 0.0260286533,3.45259599 L0.0260286533,9.65274499 C0.0260286533,10.9447564 1.07718052,11.9959083 2.36919198,11.9959083 L8.62012607,11.9959083 C9.91213754,11.9959083 10.9632894,10.9447564 10.9632894,9.65274499 L10.9632894,5.27408596 C10.9632894,4.98924928 10.7324011,4.75832665 10.4475645,4.75832665 Z" id="edit-ico-Path"/></g></g></g></g></g></g></g></g></g></g></svg>