<svg width="24px" height="25px" viewBox="0 0 24 18" version="1.1" xmlns="http://www.w3.org/2000/svg" xmlns:xlink="http://www.w3.org/1999/xlink"><g id="envelope-icon-Login" stroke="none" stroke-width="1" fill="none" fill-rule="evenodd"><g id="envelope-icon-101_Sign-In-1" transform="translate(-766.000000, -395.000000)" fill="#007AFF" fill-rule="nonzero"><g id="envelope-icon-Group-3"><g id="envelope-icon-email" transform="translate(766.000000, 395.000000)"><path d="M21.1875,0 L2.8125,0 C1.2616875,0 0,1.2616875 0,2.8125 L0,14.8125 C0,16.3633125 1.2616875,17.625 2.8125,17.625 L21.1875,17.625 C22.7383125,17.625 24,16.3633125 24,14.8125 L24,2.8125 C24,1.2616875 22.7383125,0 21.1875,0 Z M22.125,14.8125 C22.125,15.3294375 21.7044375,15.75 21.1875,15.75 L2.8125,15.75 C2.2955625,15.75 1.875,15.3294375 1.875,14.8125 L1.875,2.8125 C1.875,2.2955625 2.2955625,1.875 2.8125,1.875 L21.1875,1.875 C21.7044375,1.875 22.125,2.2955625 22.125,2.8125 L22.125,14.8125 Z" id="envelope-icon-Shape"></path><polygon id="envelope-icon-Path" points="21.9658125 1.16892187 12 8.58159375 2.0341875 1.16892187 0.91509375 2.673375 12 10.9184062 23.0849062 2.673375"></polygon></g></g></g></g></svg>