<svg width="10px" height="9px" viewBox="0 0 10 9" version="1.1" xmlns="http://www.w3.org/2000/svg" xmlns:xlink="http://www.w3.org/1999/xlink"><g id="exTbulk-operations" stroke="none" stroke-width="1" fill="none" fill-rule="evenodd"><g id="exTsearch_user5-copy-10" transform="translate(-1190.000000, -92.000000)" fill="#252525" fill-rule="nonzero"><g id="exTGroup-6"><g id="exTGroup-28" transform="translate(55.000000, 76.000000)"><g id="exTGroup-12"><g id="exTGroup-10"><g id="exTGroup-33" transform="translate(841.000000, 6.000000)"><g id="exTGroup-30-Copy" transform="translate(283.000000, 0.000000)"><g id="exTGroup-32"><g id="exTGroup-29" transform="translate(10.000000, 7.000000)"><g id="exTGroup-31" transform="translate(0.510000, 0.000000)"><g id="exTGroup-7" transform="translate(0.000000, 3.030000)"><path d="M5.89,6.47 L5.89,1.54 L5.89,1.54 L8.125,3.775 C8.28240115,3.93240115 8.53759885,3.93240115 8.695,3.775 C8.85240115,3.61759885 8.85240115,3.36240115 8.695,3.205 L5.49,0 L5.49,0 L2.285,3.205 C2.12759885,3.36240115 2.12759885,3.61759885 2.285,3.775 C2.44240115,3.93240115 2.69759885,3.93240115 2.855,3.775 L5.09,1.54 L5.09,1.54 L5.09,6.47 C5.09,6.6909139 5.2690861,6.87 5.49,6.87 C5.7109139,6.87 5.89,6.6909139 5.89,6.47 Z" id="exTPath"></path><g id="exTiconfinder__Upload_arrow_up_Export_4213458" transform="translate(0.490000, 4.970000)"><path d="M9.6,0.9 C9.3790861,0.9 9.2,1.0790861 9.2,1.3 L9.2,3.1 L9.2,3.1 L0.8,3.1 L0.8,1.3 C0.8,1.0790861 0.6209139,0.9 0.4,0.9 C0.1790861,0.9 -2.705415e-17,1.0790861 0,1.3 L0,3.9 L0,3.9 L10,3.9 L10,1.3 C10,1.0790861 9.8209139,0.9 9.6,0.9 Z" id="exTPath"></path></g></g></g></g></g></g></g></g></g></g></g></g></g></svg>