<svg width="16px" height="15px" viewBox="0 0 16 15" version="1.1" xmlns="http://www.w3.org/2000/svg" xmlns:xlink="http://www.w3.org/1999/xlink"><g id="cldbulk-operations" stroke="none" stroke-width="1" fill="none" fill-rule="evenodd"><g id="cldsearch_user5-copy-12" transform="translate(-1087.000000, -129.000000)" fill="#252525" fill-rule="nonzero"><g id="cldGroup-6"><g id="cldGroup-9" transform="translate(1076.000000, 111.000000)"><g id="cldnoun_Download_1562159" transform="translate(11.000000, 18.000000)"><g id="cldGroup" transform="translate(0.638889, 0.101874)"><path d="M7.3472219,0.0578434028 C6.20393024,0.0578434028 5.05442537,0.493880278 4.18272537,1.3655691 C3.53446079,2.01382889 3.14146426,2.81800312 2.97482607,3.65658472 C1.28322399,3.98474042 -2.39583334e-07,5.46207354 -2.39583334e-07,7.24535139 C-2.39583334e-07,9.26853681 1.6504094,10.9190106 3.67361079,10.9190106 L5.43055524,10.9190106 C5.60335995,10.9214064 5.76409422,10.830616 5.85120977,10.6813568 C5.93832532,10.5320975 5.93832532,10.3474942 5.85120977,10.1982349 C5.76409422,10.0489757 5.60335995,9.95818528 5.43055524,9.96062917 L3.67361079,9.96062917 C2.16835662,9.96062917 0.958333094,8.75060556 0.958333094,7.24535139 C0.958333094,5.82383799 2.03941287,4.66575764 3.42404482,4.54004826 C3.64774781,4.51824968 3.82624287,4.34390567 3.85329829,4.12077743 C3.94146496,3.36128389 4.27753649,2.62340076 4.86154482,2.03939722 C5.54924482,1.35171799 6.44667607,1.01617674 7.3472219,1.01617674 C8.24776774,1.01617674 9.13954498,1.35100722 9.82789968,2.03939722 C10.6233802,2.834865 10.959995,3.91562063 10.8361622,4.94933646 C10.8190146,5.08556134 10.8611214,5.22259804 10.9518032,5.32569059 C11.042485,5.42878314 11.1730303,5.48802792 11.3103297,5.48839896 L11.4999998,5.48839896 C12.7470948,5.48839896 13.736111,6.47741653 13.736111,7.72451806 C13.736111,8.97161319 12.7470948,9.96062917 11.4999998,9.96062917 L9.26388857,9.96062917 C9.09108386,9.95818528 8.93034958,10.0489757 8.84323404,10.1982349 C8.75611849,10.3474942 8.75611849,10.5320975 8.84323404,10.6813568 C8.93034958,10.830616 9.09108386,10.9214064 9.26388857,10.9190106 L11.4999998,10.9190106 C13.2614323,10.9190106 14.6944446,9.48595069 14.6944446,7.72451806 C14.6944446,6.06209722 13.4137594,4.70877882 11.7894964,4.56001354 C11.7970033,3.40377958 11.3863255,2.24515778 10.5067193,1.3655691 C9.63578595,0.494591042 8.49051373,0.0578434028 7.34722206,0.0578434028 L7.3472219,0.0578434028 Z M7.3472219,8.0439625 C7.08254621,8.0439625 6.86805524,8.25850139 6.86805524,8.52312917 L6.86805524,12.8705604 L5.91470524,12.0020708 C5.7288844,11.8336597 5.40525524,11.8470444 5.23588579,12.0320187 C5.06653232,12.2169931 5.06297051,12.5225576 5.26584968,12.7108382 L7.02279412,14.3080604 C7.10299065,14.3814368 7.18746774,14.4328514 7.3472219,14.4328514 C7.50697607,14.4328514 7.57672676,14.3949653 7.67164968,14.3080604 L9.42859412,12.7108382 C9.61275401,12.5405903 9.64733387,12.2169931 9.45855801,12.0320187 C9.27941357,11.856484 8.96557537,11.8336597 8.77973857,12.0020708 L7.82638857,12.8705604 L7.82638857,8.52312917 C7.82638857,8.25850139 7.61191357,8.0439625 7.3472219,8.0439625 L7.3472219,8.0439625 Z" id="cldShape"></path></g></g></g></g></g></g></svg>