<svg width="35px" height="44px" viewBox="0 0 35 44" version="1.1" xmlns="http://www.w3.org/2000/svg" xmlns:xlink="http://www.w3.org/1999/xlink"><g id="file-ico-Import" stroke="none" stroke-width="1" fill="none" fill-rule="evenodd"><g id="file-ico-search_user1-copy-4" transform="translate(-623.000000, -388.000000)"><g id="file-ico-Group-10"><g id="file-ico-Group-9" transform="translate(569.000000, 388.000000)"><g id="file-ico-iconfinder_file_json_6137917" transform="translate(54.000000, 0.000000)"><path d="M3.55271368e-15,0 L3.55271368e-15,42.0902256 L2.43609023,42.0902256 L2.43609023,2.43609023 L21.924812,2.43609023 L21.924812,9.7443609 L21.924812,12.1804511 L31.6691729,12.1804511 L31.6691729,42.0902256 L34.1052632,42.0902256 L34.1052632,12.1804511 L34.1052632,9.7443609 L24.3609023,0 L21.924812,0 L3.55271368e-15,0 Z M24.3609023,3.29728612 L30.8079761,9.7443609 L24.3609023,9.7443609 L24.3609023,3.29728612 Z M3.55271368e-15,41.1428571 L3.55271368e-15,43.5789474 L34.1052632,43.5789474 L34.1052632,41.1428571 L31.6691729,41.1428571 L2.43609023,41.1428571 L3.55271368e-15,41.1428571 Z" id="file-ico-Shape" fill="#007AFF" fill-rule="nonzero"></path><text id="file-ico-{-}" font-family="Roboto-Bold, Roboto" font-size="12" font-weight="bold" fill="#0381FF"><tspan x="11.5449219" y="26">{ }</tspan></text></g></g></g></g></g></svg>