<svg width="23px" height="19px" viewBox="0 0 23 19" version="1.1" xmlns="http://www.w3.org/2000/svg" xmlns:xlink="http://www.w3.org/1999/xlink"><g id="import-ico-Symbols" stroke="none" stroke-width="1" fill="none" fill-rule="evenodd"><g id="import-ico-main_menu" transform="translate(-8.000000, -128.000000)" fill="#FFFFFF" fill-rule="nonzero"><g id="import-ico-noun_import_3324116" transform="translate(8.000000, 128.000000)"><path d="M0.390520833,1.06710417 C0.390520833,0.670149503 0.712316169,0.348354167 1.10927083,0.348354167 L5.25789583,0.348354167 C9.98553721,0.354423422 13.8168311,4.1848601 13.8239583,8.9125 L13.8239583,11.2029167 L16.1575,8.869375 C16.3379598,8.6825312 16.6051935,8.6075972 16.8564896,8.67337392 C17.1077858,8.73915064 17.3040369,8.93540171 17.3698136,9.18669786 C17.4355903,9.43799402 17.3606563,9.70522772 17.1738125,9.8856875 L13.6136042,13.4458958 C13.54619,13.5131238 13.466043,13.5662293 13.3778542,13.6021042 L13.36875,13.6083333 C13.2005365,13.6767061 13.012276,13.6767061 12.8440625,13.6083333 L12.8335208,13.6049792 C12.745368,13.5690362 12.6652338,13.5159391 12.5977708,13.4487708 L9.03804167,9.8885625 C8.76565539,9.60654017 8.7695509,9.15825157 9.04679707,8.8810054 C9.32404323,8.60375923 9.77233184,8.59986372 10.0543542,8.87225 L12.3878958,11.2057917 L12.3878958,8.9125 C12.3823494,4.97755256 9.19284544,1.78954902 5.25789583,1.78585417 L1.10927083,1.78585417 C0.918646481,1.78585417 0.735829606,1.71012894 0.601037834,1.57533717 C0.466246062,1.44054539 0.390520833,1.25772852 0.390520833,1.06710417 Z M18.5365625,0.348354167 L15.021875,0.348354167 C14.6249203,0.348354167 14.303125,0.670149503 14.303125,1.06710417 C14.303125,1.46405883 14.6249203,1.78585417 15.021875,1.78585417 L18.5365625,1.78585417 C19.9914061,1.78743868 21.1703947,2.96642723 21.1719792,4.42127083 L21.1719792,14.7453958 C21.1703947,16.2002394 19.9914061,17.379228 18.5365625,17.3808125 L4.4634375,17.3808125 C3.0085939,17.379228 1.82960534,16.2002394 1.82802083,14.7453958 L1.82802083,5.82666667 C1.82802083,5.429712 1.5062255,5.10791667 1.10927083,5.10791667 C0.712316169,5.10791667 0.390520833,5.429712 0.390520833,5.82666667 L0.390520833,14.7453958 C0.393161253,16.993711 2.21512234,18.8156721 4.4634375,18.8183125 L18.5365625,18.8183125 C20.7848777,18.8156721 22.6068387,16.993711 22.6094792,14.7453958 L22.6094792,4.42127083 C22.6068387,2.17295568 20.7848777,0.350994586 18.5365625,0.348354167 L18.5365625,0.348354167 Z" id="import-ico-Shape"></path></g></g></g></svg>