<svg width="20px" height="15px" viewBox="0 0 12 11" version="1.1" xmlns="http://www.w3.org/2000/svg" xmlns:xlink="http://www.w3.org/1999/xlink"><g id="lstilisting" stroke="none" stroke-width="1" fill="none" fill-rule="evenodd"><g id="lstisearch_user5-copy-9" transform="translate(-1037.000000, -348.000000)" fill="#FFFFFF" fill-rule="nonzero"><g id="lstiGroup-28" transform="translate(55.000000, 334.000000)"><g id="lstiGroup-33" transform="translate(841.000000, 6.000000)"><g id="lstiGroup-11" transform="translate(0.000000, 3.000000)"><g id="lstiGroup-4" transform="translate(137.000000, 0.000000)"><g id="lstiiconfinder_List_1031512" transform="translate(4.000000, 5.000000)"><path d="M4.27857143,1.78214286 L11.0642857,1.78928571 C11.2614286,1.78928571 11.4214286,1.62928571 11.4214286,1.43214286 C11.4214286,1.235 11.2614286,1.075 11.0642857,1.075 L4.27857143,1.06785714 C4.08142857,1.06785714 3.92142857,1.22785714 3.92142857,1.425 C3.92142857,1.62214286 4.08142857,1.78214286 4.27857143,1.78214286 Z" id="lstiPath"></path><path d="M11.0714286,4.64285714 L4.28571429,4.63571429 C4.08857143,4.63571429 3.92857143,4.79571429 3.92857143,4.99285714 C3.92857143,5.19 4.08857143,5.35 4.28571429,5.35 L11.0714286,5.35714286 C11.2685714,5.35714286 11.4285714,5.19714286 11.4285714,5 C11.4285714,4.80285714 11.2685714,4.64285714 11.0714286,4.64285714 Z" id="lstiPath"></path><path d="M11.0714286,8.21428571 L4.28571429,8.20714286 C4.08857143,8.20714286 3.92857143,8.36714286 3.92857143,8.56428571 C3.92857143,8.76142857 4.08857143,8.92142857 4.28571429,8.92142857 L11.0714286,8.92857143 C11.2685714,8.92857143 11.4285714,8.76857143 11.4285714,8.57142857 C11.4285714,8.37428571 11.2685714,8.21428571 11.0714286,8.21428571 Z" id="lstiPath"></path><path d="M1.425,0.00714285714 C0.637857143,0.00714285714 0,0.645 0,1.43214286 C0,2.21928571 0.637857143,2.85714286 1.425,2.85714286 C2.21214286,2.85714286 2.85,2.21928571 2.85,1.43214286 C2.85,0.645 2.21214286,0.00714285714 1.425,0.00714285714 Z M1.42142857,2.14642857 C1.02,2.14642857 0.698214286,1.83357143 0.698214286,1.43214286 C0.698214286,1.03071429 1.02,0.717857143 1.42142857,0.717857143 C1.82285714,0.717857143 2.13571429,1.03071429 2.13571429,1.43214286 C2.13571429,1.83357143 1.82285714,2.14642857 1.42142857,2.14642857 Z" id="lstiShape"></path><path d="M1.425,3.57857143 C0.637857143,3.57857143 0,4.21642857 0,5.00357143 C0,5.79071429 0.637857143,6.42857143 1.425,6.42857143 C2.21214286,6.42857143 2.85,5.79071429 2.85,5.00357143 C2.85,4.21642857 2.21214286,3.57857143 1.425,3.57857143 Z M1.42142857,5.71785714 C1.02,5.71785714 0.698214286,5.405 0.698214286,5.00357143 C0.698214286,4.60214286 1.02,4.28928571 1.42142857,4.28928571 C1.82285714,4.28928571 2.13571429,4.60214286 2.13571429,5.00357143 C2.13571429,5.405 1.82285714,5.71785714 1.42142857,5.71785714 Z" id="lstiShape"></path><path d="M1.425,7.14285714 C0.637857143,7.14285714 0,7.78071429 0,8.56785714 C0,9.355 0.637857143,9.99285714 1.425,9.99285714 C2.21214286,9.99285714 2.85,9.355 2.85,8.56785714 C2.85,7.78071429 2.21214286,7.14285714 1.425,7.14285714 Z M1.42142857,9.28214286 C1.02,9.28214286 0.698214286,8.96928571 0.698214286,8.56785714 C0.698214286,8.16642857 1.02,7.85357143 1.42142857,7.85357143 C1.82285714,7.85357143 2.13571429,8.16642857 2.13571429,8.56785714 C2.13571429,8.96928571 1.82285714,9.28214286 1.42142857,9.28214286 Z" id="lstiShape"></path></g></g></g></g></g></g></g></svg>