<svg width="20px" height="24px" viewBox="0 0 20 24" version="1.1" xmlns="http://www.w3.org/2000/svg" xmlns:xlink="http://www.w3.org/1999/xlink"><defs><path d="M16.4557721,7.72970597 L16.4557721,6.76350971 C16.4557721,3.03486988 13.4218986,0 9.69230769,0 C5.96271675,0 2.92884328,3.03486988 2.92884328,6.76346441 L2.92884328,7.72966068 C1.33074479,7.72966068 0.030209202,9.03019626 0.030209202,10.6282948 L0.030209202,20.2904385 C0.030209202,21.888537 1.33074479,23.1890726 2.92884328,23.1890726 L16.4558174,23.1890726 C18.0539159,23.1890726 19.3544515,21.888537 19.3544515,20.2904385 L19.3544515,10.62834 C19.3544515,9.03019626 18.0539159,7.72970597 16.4557721,7.72970597 Z M4.8612358,6.76346441 C4.8612358,4.0996197 7.02846298,1.93239252 9.69230769,1.93239252 C12.3561524,1.93239252 14.5233796,4.0996197 14.5233796,6.76346441 L14.5233796,7.72966068 L4.8612358,7.72966068 L4.8612358,6.76346441 Z M17.4220137,20.2904385 C17.4220137,20.8237872 16.9881697,21.2566348 16.4558174,21.2566348 L2.92884328,21.2566348 C2.39644572,21.2566348 1.96264702,20.8237872 1.96264702,20.2904385 L1.96264702,10.62834 C1.96264702,10.0949914 2.39649101,9.66214378 2.92884328,9.66214378 L16.4558174,9.66214378 C16.988215,9.66214378 17.4220137,10.0949914 17.4220137,10.62834 L17.4220137,20.2904385 L17.4220137,20.2904385 Z" id="password-icon-path-1"></path><path d="M9.69230769,11.1114155 C8.0942092,11.1114155 6.79367362,12.4119511 6.79367362,14.0100496 C6.79367362,15.2680568 7.60434004,16.3309044 8.72611143,16.7309159 L8.72611143,18.3580007 C8.72611143,18.8923005 9.15895902,19.324197 9.69230769,19.324197 C10.2256564,19.324197 10.658504,18.8923005 10.658504,18.3580007 L10.658504,16.7309159 C11.7802753,16.3309044 12.5909418,15.2680568 12.5909418,14.0100496 C12.5909418,12.4119511 11.2904062,11.1114155 9.69230769,11.1114155 Z M9.69230769,14.9762912 C9.15991014,14.9762912 8.72611143,14.5434436 8.72611143,14.0100949 C8.72611143,13.4767462 9.15991014,13.0438533 9.69230769,13.0438533 C10.2247052,13.0438533 10.658504,13.4767009 10.658504,14.0100496 C10.658504,14.5433983 10.2247052,14.9762912 9.69230769,14.9762912 Z" id="password-icon-path-2"></path></defs><g id="password-icon-Login" stroke="none" stroke-width="1" fill="none" fill-rule="evenodd"><g id="password-icon-100_Sign-In" transform="translate(-766.000000, -394.000000)" fill-rule="nonzero"><g id="password-icon-Group-6"><g id="password-icon-Group-5" transform="translate(749.000000, 381.000000)"><g id="password-icon-padlock-(2)" transform="translate(17.000000, 13.000000)"><g id="password-icon-Shape"><use fill="#000000" xlink:href="#password-icon-path-1"></use><use fill="#007AFF" xlink:href="#password-icon-path-1"></use></g><g id="password-icon-Shape"><use fill="#000000" xlink:href="#password-icon-path-2"></use><use fill="#007AFF" xlink:href="#password-icon-path-2"></use></g></g></g></g></g></g></svg>