<svg width="300px" height="206px" viewBox="0 0 300 206" version="1.1" xmlns="http://www.w3.org/2000/svg" xmlns:xlink="http://www.w3.org/1999/xlink"><g id="login-banner-Login" stroke="none" stroke-width="1" fill="none" fill-rule="evenodd"><g id="login-banner-100_Sign-In" transform="translate(-300.000000, -292.000000)"><g id="login-banner-Group-6"><g id="login-banner-Group" transform="translate(300.000000, 292.000000)"><g id="login-banner-Group-50"><path d="M288.408889,147.155634 C289.862073,114.560451 273.801734,86.5661928 249.563168,70.7906129 C245.029027,67.8391416 242.069598,62.963022 241.472235,57.5571511 C241.439714,57.2647559 241.405481,56.9723607 241.367825,56.6782456 C236.924401,20.8907957 203.636383,-4.25002979 168.181426,0.598570262 C134.268658,5.23389383 109.853793,23.2419969 113.460223,57.9217851 C113.477339,58.0851824 113.496167,58.3225385 113.514995,58.6235335 C114.14488,68.0730577 106.764278,76.0193267 97.3690741,76.242923 C95.3989739,76.2893622 93.4151805,76.4166401 91.4211173,76.6264767 C50.9613178,80.8748066 21.6100766,117.412164 25.9199917,158.203012 C27.890092,176.859544 36.6537003,193.199275 49.453361,205 L260.358495,205 C276.391448,189.582174 287.470909,168.194327 288.408889,147.155634" id="login-banner-Fill-1" fill-opacity="0.5" fill="#C5D9FF"></path><path d="M78.5,47.5 C78.5,52.1938555 74.6938555,56 70,56 C65.3044759,56 61.5,52.1938555 61.5,47.5 C61.5,42.8061445 65.3044759,39 70,39 C74.6938555,39 78.5,42.8061445 78.5,47.5" id="login-banner-Fill-3" fill="#C5D9FF"></path><path d="M266.5,14.5 C266.5,18.6422664 263.142266,22 259,22 C254.857734,22 251.5,18.6422664 251.5,14.5 C251.5,10.3577336 254.857734,7 259,7 C263.142266,7 266.5,10.3577336 266.5,14.5" id="login-banner-Fill-5" fill="#C5D9FF"></path><path d="M299.5,89.0008212 C299.5,91.7615372 297.261537,94 294.500821,94 C291.738463,94 289.5,91.7615372 289.5,89.0008212 C289.5,86.2384628 291.738463,84 294.500821,84 C297.261537,84 299.5,86.2384628 299.5,89.0008212" id="login-banner-Fill-7" fill="#C5D9FF"></path><path d="M10.5,155.999179 C10.5,158.761537 8.2615372,161 5.50082115,161 C2.7384628,161 0.5,158.761537 0.5,155.999179 C0.5,153.238463 2.7384628,151 5.50082115,151 C8.2615372,151 10.5,153.238463 10.5,155.999179" id="login-banner-Fill-9" fill="#C5D9FF"></path><path d="M269.422065,154.903298 C270.665161,127.237833 256.925857,103.47518 236.189843,90.0857925 C232.309459,87.5797758 229.778625,83.4424518 229.265247,78.8549348 C229.237775,78.6067296 229.208587,78.3585244 229.177681,78.1086075 C225.376279,47.7317137 196.898385,26.392913 166.566148,30.5079841 C137.552555,34.4433205 116.665447,49.7276259 119.750867,79.1630517 C119.764603,79.3017042 119.781773,79.5036919 119.798943,79.7587441 C120.336358,87.7800517 114.023009,94.5243863 105.985808,94.7143917 C104.299729,94.7537621 102.601632,94.861603 100.896667,95.0396261 C66.2822733,98.6445927 41.1713847,129.656549 44.859466,164.28032 C46.5438271,180.115812 54.0418955,193.984492 64.9911015,204 L245.423782,204 C259.139049,190.915306 268.620234,172.762091 269.422065,154.903298" id="login-banner-Fill-11" fill="#C5D9FF"></path><path d="M249.5,184 L75.5,184 L75.5,67.5292605 C75.5,65.5811361 77.0827077,64 79.0327684,64 L245.967232,64 C247.919009,64 249.5,65.5811361 249.5,67.5292605 L249.5,184 Z" id="login-banner-Fill-13" fill="#ECF1F7"></path><path d="M76.4000167,183.10064 L249.598266,183.10064 L249.598266,66.9819005 C249.598266,65.2827274 248.215607,63.9010766 246.515193,63.9010766 L79.4830891,63.9010766 C77.7826759,63.9010766 76.4000167,65.2827274 76.4000167,66.9819005 L76.4000167,183.10064 Z M250.5,184 L75.5,184 L75.5,66.9819005 C75.5,64.7867062 77.2862927,63 79.4830891,63 L246.515193,63 C248.71199,63 250.5,64.7867062 250.5,66.9819005 L250.5,184 Z" id="login-banner-Fill-15" fill="#243762"></path><polygon id="login-banner-Fill-17" fill="#ECF1F7" points="151.5 179 173.5 179 173.5 177 151.5 177"></polygon><path d="M152.391934,177.995527 L173.609765,177.995527 L173.609765,177.004473 L152.391934,177.004473 L152.391934,177.995527 Z M151.5,179 L174.5,179 L174.5,176 L151.5,176 L151.5,179 Z" id="login-banner-Fill-19" fill="#243762"></path><path d="M164.5,68.5 C164.5,69.3288948 163.828698,70 163,70 C162.171302,70 161.5,69.3288948 161.5,68.5 C161.5,67.6711052 162.171302,67 163,67 C163.828698,67 164.5,67.6711052 164.5,68.5" id="login-banner-Fill-20" fill="#ECF1F7"></path><path d="M162.5,67.7759131 C161.945394,67.7759131 161.495252,68.1001974 161.495252,68.5 C161.495252,68.8998026 161.945394,69.2240869 162.5,69.2240869 C163.054606,69.2240869 163.504748,68.8998026 163.504748,68.5 C163.504748,68.1001974 163.054606,67.7759131 162.5,67.7759131 M162.5,70 C161.396486,70 160.5,69.3262586 160.5,68.5 C160.5,67.6722606 161.396486,67 162.5,67 C163.603514,67 164.5,67.6722606 164.5,68.5 C164.5,69.3262586 163.603514,70 162.5,70" id="login-banner-Fill-21" fill="#243762"></path><path d="M268.182452,205 L57.6360808,205 C55.3523342,205 53.5,203.74588 53.5,202.200347 L53.5,197.789245 C53.5,197.352125 54.022146,197 54.6658407,197 L271.334159,197 C271.977854,197 272.5,197.352125 272.5,197.789245 L272.5,202.078925 C272.5,203.692108 270.567204,205 268.182452,205" id="login-banner-Fill-22" fill="#243762"></path><path d="M54.1168285,196.918046 C53.6715155,196.918046 53.3991896,197.137045 53.3991896,197.256181 L53.3991896,201.711505 C53.3991896,202.995717 55.0879532,204.080202 57.0884359,204.080202 L267.731726,204.080202 C269.829835,204.080202 271.60081,202.939653 271.60081,201.588865 L271.60081,197.256181 C271.60081,197.137045 271.328484,196.918046 270.884884,196.918046 L54.1168285,196.918046 Z M267.731726,205 L57.0884359,205 C54.5158974,205 52.5,203.554604 52.5,201.711505 L52.5,197.256181 C52.5,196.551879 53.2107879,196 54.1168285,196 L270.884884,196 C271.790925,196 272.5,196.551879 272.5,197.256181 L272.5,201.588865 C272.5,203.500292 270.405317,205 267.731726,205 L267.731726,205 Z" id="login-banner-Fill-23" fill="#243762"></path><path d="M87.3507392,175 L237.649261,175 C239.776401,175 241.5,173.262216 241.5,171.11757 L241.5,76.8824305 C241.5,74.7377842 239.776401,73 237.649261,73 L87.3507392,73 C85.2235991,73 83.5,74.7377842 83.5,76.8824305 L83.5,171.11757 C83.5,173.262216 85.2235991,175 87.3507392,175" id="login-banner-Fill-24" fill="#FFFFFF"></path><path d="M87.7821253,73.8547582 C85.8926503,73.8547582 84.3557405,75.3899038 84.3557405,77.2772098 L84.3557405,170.72279 C84.3557405,172.610096 85.8926503,174.145242 87.7821253,174.145242 L238.217875,174.145242 C240.10735,174.145242 241.64426,172.610096 241.64426,170.72279 L241.64426,77.2772098 C241.64426,75.3899038 240.10735,73.8547582 238.217875,73.8547582 L87.7821253,73.8547582 Z M238.217875,175 L87.7821253,175 C85.4219931,175 83.5,173.080213 83.5,170.72279 L83.5,77.2772098 C83.5,74.9197868 85.4219931,73 87.7821253,73 L238.217875,73 C240.579718,73 242.5,74.9197868 242.5,77.2772098 L242.5,170.72279 C242.5,173.080213 240.579718,175 238.217875,175 L238.217875,175 Z" id="login-banner-Fill-25" fill="#243762"></path><path d="M241.5,79.9900772 L241.5,77.4068357 C241.5,75.5248071 239.787783,74 237.673196,74 L88.3268044,74 C86.2139289,74 84.5,75.5248071 84.5,77.4068357 L84.5,80 L241.5,79.9900772 Z" id="login-banner-Fill-26" fill="#82A4EB"></path><path d="M228.5,77 C228.5,77.5527831 228.052354,78 227.499039,78 C226.947646,78 226.5,77.5527831 226.5,77 C226.5,76.4491363 226.947646,76 227.499039,76 C228.052354,76 228.5,76.4491363 228.5,77" id="login-banner-Fill-27" fill="#FFFFFF"></path><path d="M231.5,77 C231.5,77.5527831 231.052354,78 230.499039,78 C229.947646,78 229.5,77.5527831 229.5,77 C229.5,76.4491363 229.947646,76 230.499039,76 C231.052354,76 231.5,76.4491363 231.5,77" id="login-banner-Fill-28" fill="#FFFFFF"></path><path d="M235.5,77 C235.5,77.5527831 235.052354,78 234.499039,78 C233.947646,78 233.5,77.5527831 233.5,77 C233.5,76.4491363 233.947646,76 234.499039,76 C235.052354,76 235.5,76.4491363 235.5,77" id="login-banner-Fill-29" fill="#FFFFFF"></path><polygon id="login-banner-Fill-30" fill="#C5D9FF" points="97.5 161 227.5 161 227.5 91 97.5 91"></polygon><path d="M76.2541111,183 L53.5022809,196 C53.5022809,196 53.4971489,196 53.5022809,196 L270.5,195.906858 L249.542656,183.054887 L76.2541111,183 Z" id="login-banner-Fill-31" fill="#ECF1F7"></path><path d="M76.6228409,183.879616 L55.3768151,196.120384 L269.395378,196.026379 L249.839513,183.935012 L76.6228409,183.879616 Z M53.8476218,197 L53.7260398,197 L53.7243273,196.556835 L53.5,196.180815 L76.3779645,183 L76.5012589,183 L250.099801,183.053717 L272.5,196.905995 L53.8476218,197 Z" id="login-banner-Fill-32" fill="#243762"></path><g id="login-banner-Group-35" transform="translate(88.500000, 182.000000)"><path d="M16.8776023,0.989085714 L1.7344069,9.89651429 C1.7344069,9.89651429 1.73098161,9.89651429 1.7344069,9.89651429 L146.165074,9.83308571 L132.217303,1.0268 L16.8776023,0.989085714 Z" id="login-banner-Fill-33" fill="#ECF1F7"></path><path d="M16.9997138,1.43857143 L3.3859092,9.446 L144.613932,9.386 L132.087656,1.47628571 L16.9997138,1.43857143 Z M0.0839321839,10.3477143 L16.7548057,0.540285714 L132.346266,0.578 L147.717243,10.2825714 L0.0839321839,10.3477143 Z" id="login-banner-Fill-34" fill="#243762"></path></g><path d="M241.031453,80.549 L119.968547,80.549 C119.708623,80.549 119.5,80.303 119.5,80.001 C119.5,79.697 119.708623,79.451 119.968547,79.451 L241.031453,79.451 C241.289667,79.451 241.5,79.697 241.5,80.001 C241.5,80.303 241.289667,80.549 241.031453,80.549" id="login-banner-Fill-39" fill="#243762"></path><path d="M231.030836,40.988043 C227.087132,40.988043 223.876542,44.5042001 223.876542,48.8274557 L223.876542,64.1725443 C223.876542,68.4957999 227.087132,72.011957 231.030836,72.011957 L241.967447,72.011957 C245.912868,72.011957 249.123458,68.4957999 249.123458,64.1725443 L249.123458,48.8274557 C249.123458,44.5042001 245.912868,40.988043 241.967447,40.988043 L231.030836,40.988043 Z M217.5,64.1725443 L217.5,48.8274557 C217.5,40.6526033 223.570935,34 231.030836,34 L241.967447,34 C249.429065,34 255.5,40.6526033 255.5,48.8274557 L255.5,64.1725443 C255.5,72.3490994 249.429065,79 241.967447,79 L231.030836,79 C223.570935,79 217.5,72.3490994 217.5,64.1725443 L217.5,64.1725443 Z" id="login-banner-Fill-40" fill="#243762"></path><path d="M230.510913,40.8648247 C226.788914,40.8648247 223.761344,44.2010547 223.761344,48.3025847 L223.761344,63.6974153 C223.761344,67.7989453 226.788914,71.1351753 230.510913,71.1351753 L241.487364,71.1351753 C245.209362,71.1351753 248.236933,67.7989453 248.236933,63.6974153 L248.236933,48.3025847 C248.236933,44.2010547 245.209362,40.8648247 241.487364,40.8648247 L230.510913,40.8648247 Z M241.487364,71.9893048 L230.510913,71.9893048 C226.313326,71.9893048 222.89977,68.2687166 222.89977,63.6974153 L222.89977,48.3025847 C222.89977,43.7312834 226.313326,40.0106952 230.510913,40.0106952 L241.487364,40.0106952 C245.684951,40.0106952 249.098507,43.7312834 249.098507,48.3025847 L249.098507,63.6974153 C249.098507,68.2687166 245.684951,71.9893048 241.487364,71.9893048 L241.487364,71.9893048 Z M230.510913,33.8541295 C223.259908,33.8541295 217.361574,40.3352644 217.361574,48.3025847 L217.361574,63.6974153 C217.361574,71.6647356 223.259908,78.1458705 230.510913,78.1458705 L241.487364,78.1458705 C248.738369,78.1458705 254.638426,71.6647356 254.638426,63.6974153 L254.638426,48.3025847 C254.638426,40.3352644 248.738369,33.8541295 241.487364,33.8541295 L230.510913,33.8541295 Z M241.487364,79 L230.510913,79 C222.786043,79 216.5,72.1345068 216.5,63.6974153 L216.5,48.3025847 C216.5,39.8654932 222.786043,33 230.510913,33 L241.487364,33 C249.213957,33 255.5,39.8654932 255.5,48.3025847 L255.5,63.6974153 C255.5,72.1345068 249.213957,79 241.487364,79 L241.487364,79 Z" id="login-banner-Fill-41" fill="#FFFFFF"></path><path d="M214.906274,105 L257.093726,105 C260.631697,105 263.5,102.110371 263.5,98.546094 L263.5,65.453906 C263.5,61.8896289 260.631697,59 257.093726,59 L214.906274,59 C211.368303,59 208.5,61.8896289 208.5,65.453906 L208.5,98.546094 C208.5,102.110371 211.368303,105 214.906274,105" id="login-banner-Fill-42" fill="#F7A9B4"></path><path d="M258.698875,105 L242.935782,105 C242.69523,105 242.5,104.807301 242.5,104.569867 C242.5,104.332434 242.69523,104.139735 242.935782,104.139735 L258.698875,104.139735 C261.418152,104.139735 263.628437,101.956382 263.628437,99.2740758 L263.628437,68.4301325 C263.628437,68.1926994 263.823667,68 264.064218,68 C264.30477,68 264.5,68.1926994 264.5,68.4301325 L264.5,99.2740758 C264.5,102.431249 261.897512,105 258.698875,105" id="login-banner-Fill-43" fill="#243762"></path><path d="M218.976917,101 L254.023083,101 C257.600068,101 260.5,98.0792945 260.5,94.4766852 L260.5,71.5233148 C260.5,67.9207055 257.600068,65 254.023083,65 L218.976917,65 C215.399932,65 212.5,67.9207055 212.5,71.5233148 L212.5,94.4766852 C212.5,98.0792945 215.399932,101 218.976917,101" id="login-banner-Fill-44" fill="#FFFFFF"></path><path d="M229.5,77.4704098 C229.5,73.8969672 232.410603,71 235.999135,71 C239.589397,71 242.5,73.8969672 242.5,77.4704098 C242.5,80.3863115 240.547492,82.8236885 237.882466,83.6327049 L237.882466,92 L234.117534,92 L234.117534,83.6327049 C231.452508,82.8236885 229.5,80.3863115 229.5,77.4704098" id="login-banner-Fill-45" fill="#243762"></path><path d="M287.781608,205.839 L38.218392,205.839 C37.8206189,205.839 37.5,205.463 37.5,205.001 C37.5,204.537 37.8206189,204.161 38.218392,204.161 L287.781608,204.161 C288.179381,204.161 288.5,204.537 288.5,205.001 C288.5,205.463 288.179381,205.839 287.781608,205.839" id="login-banner-Fill-46" fill="#243762"></path><path d="M274.5,64.5 C274.5,70.2988439 269.798844,75 264,75 C258.201156,75 253.5,70.2988439 253.5,64.5 C253.5,58.7011561 258.201156,54 264,54 C269.798844,54 274.5,58.7011561 274.5,64.5" id="login-banner-Fill-47" fill="#82A4EB"></path><path d="M253.631452,73.9034678 C253.456183,73.7279326 253.456183,73.4467353 253.631452,73.2712001 C253.806721,73.0956649 254.087493,73.0973691 254.262762,73.2712001 C259.367697,78.3838768 267.673426,78.3838768 272.778361,73.2712001 C277.883296,68.1585234 277.883296,59.8401984 272.778361,54.7275217 C267.673426,49.614845 259.367697,49.6165492 254.262762,54.7292259 C254.089195,54.903057 253.806721,54.903057 253.631452,54.7292259 C253.456183,54.5536907 253.456183,54.2707893 253.631452,54.095254 C259.085224,48.6349153 267.955899,48.6349153 273.409671,54.095254 C278.863443,59.557297 278.863443,68.4431291 273.409671,73.9034678 C267.955899,79.3655107 259.085224,79.3655107 253.631452,73.9034678" id="login-banner-Fill-48" fill="#243762"></path><path d="M265.307789,60.0430735 L265.074121,65.4944778 C265.051508,66.0325024 264.569095,66.4594509 263.984925,66.4594509 C263.398869,66.4594509 262.916457,66.0325024 262.895729,65.4927422 L262.673367,60.041338 C262.650754,59.4720732 263.144472,59 263.762563,59 L264.218593,59 C264.836683,59 265.332286,59.4738088 265.307789,60.0430735 M264.007538,70 C263.570352,70 263.210427,69.8785106 262.925879,69.6337962 C262.641332,69.3890817 262.5,69.094036 262.5,68.7469233 C262.5,68.3841906 262.643216,68.0874093 262.929648,67.8548438 C263.217965,67.6240139 263.576005,67.5077311 264.007538,67.5077311 C264.444724,67.5077311 264.802764,67.6257494 265.081658,67.8583149 C265.360553,68.092616 265.5,68.3893973 265.5,68.7469233 C265.5,69.109656 265.362437,69.4081729 265.085427,69.6442095 C264.810302,69.8802461 264.450377,70 264.007538,70" id="login-banner-Fill-49" fill="#FFFFFF"></path></g><rect id="login-banner-Rectangle" fill="#4476DB" x="138.5" y="111" width="46" height="30" rx="9"></rect><text id="login-banner-RMI" font-family="Roboto-Bold, Roboto" font-size="16" font-weight="bold" fill="#FFFFFF"><tspan x="147" y="132">RMI</tspan></text></g></g></g></g></svg>