<svg width="22px" height="22px" viewBox="0 0 22 22" version="1.1" xmlns="http://www.w3.org/2000/svg" xmlns:xlink="http://www.w3.org/1999/xlink"><g id="logout-ico-Symbols" stroke="none" stroke-width="1" fill="none" fill-rule="evenodd"><g id="logout-ico-main_menu" transform="translate(-9.000000, -369.000000)" fill="#FFFFFF" fill-rule="nonzero"><g id="logout-ico-noun_sign-out_1915633" transform="translate(9.000000, 369.000000)"><path d="M3.92857143,0 L18.0714286,0 C21.1828571,0 22,2.56928571 22,3.92857143 L22,6.28571429 C22,6.71785714 21.6464286,7.07142857 21.2142857,7.07142857 C20.7821429,7.07142857 20.4285714,6.71785714 20.4285714,6.28571429 L20.4285714,3.93642857 C20.4207143,3.53571429 20.2871429,1.57142857 18.0714286,1.57142857 L3.93642857,1.57142857 C3.53571429,1.57928571 1.57142857,1.71285714 1.57142857,3.92857143 L1.57142857,18.0635714 C1.57928571,18.4642857 1.71285714,20.4285714 3.92857143,20.4285714 L18.0635714,20.4285714 C18.4642857,20.4207143 20.4285714,20.2871429 20.4285714,18.0714286 L20.4285714,15.7142857 C20.4285714,15.2821429 20.7821429,14.9285714 21.2142857,14.9285714 C21.6464286,14.9285714 22,15.2821429 22,15.7142857 L22,18.0714286 C22,21.1828571 19.4307143,22 18.0714286,22 L3.92857143,22 C0.817142857,22 0,19.4307143 0,18.0714286 L0,3.92857143 C0,0.817142857 2.56928571,0 3.92857143,0 Z M13.7892857,5.63357143 C13.4278571,5.39 12.9407143,5.49214286 12.705,5.85357143 C12.4614286,6.20714286 12.5635714,6.70214286 12.925,6.93785714 C14.5592857,8.03 16.0992857,9.34214286 16.83,10.2142857 L5.5,10.2142857 C5.06785714,10.2142857 4.71428571,10.5678571 4.71428571,11 C4.71428571,11.4321429 5.06785714,11.7857143 5.5,11.7857143 L16.83,11.7857143 C16.0992857,12.6578571 14.5592857,13.97 12.925,15.0621429 C12.5635714,15.2978571 12.4614286,15.7928571 12.705,16.1464286 C12.8542857,16.3742857 13.1057143,16.5 13.3571429,16.5 C13.5064286,16.5 13.6557143,16.4607143 13.7892857,16.3664286 C15.3135714,15.3528571 18.8571429,12.7992857 18.8571429,11 C18.8571429,9.20071429 15.3135714,6.64714286 13.7892857,5.63357143 Z" id="logout-ico-Shape"></path></g></g></g></svg>