<?xml version="1.0" encoding="UTF-8"?>
<svg width="90px" height="62px" viewBox="0 0 90 62" version="1.1" xmlns="http://www.w3.org/2000/svg" xmlns:xlink="http://www.w3.org/1999/xlink">
    <title>noun_Image_1474020</title>
    <g id="Search" stroke="none" stroke-width="1" fill="none" fill-rule="evenodd">
        <g id="search_user1-copy-13" transform="translate(-1109.000000, -476.000000)" fill="#FFFFFF" fill-rule="nonzero">
            <g id="Group-6" transform="translate(55.000000, 334.000000)">
                <g id="Group-5-Copy-3" transform="translate(984.000000, 48.000000)">
                    <g id="Group-2" transform="translate(8.000000, 48.000000)">
                        <g id="Group" transform="translate(62.000000, 46.000000)">
                            <path d="M89,59.1 L68.7,17.6 C68.5,17.1 68,16.8 67.5,16.8 C67,16.7 66.5,16.9 66.2,17.3 L40.6,47.9 L29,32 C28.7,31.6 28.3,31.4 27.9,31.4 C27.5,31.4 27,31.5 26.7,31.9 L1.3,58.7 C0.9,59.1 0.8,59.8 1,60.3 C1.2,60.8 1.8,61.2 2.4,61.2 L87.7,61.2 C88.2,61.2 88.7,60.9 89,60.5 C89.2,60.1 89.2,59.5 89,59.1 Z M5.9,58.2 L27.7,35.2 L39.4,51.2 C39.7,51.6 40.1,51.8 40.6,51.8 C41,51.8 41.5,51.6 41.8,51.3 L67,21 L85.2,58.2 L5.9,58.2 Z" id="Shape"></path>
                            <path d="M45,17 C49.5,17 53.1,13.4 53.1,8.9 C53.1,4.4 49.5,0.8 45,0.8 C40.5,0.8 36.9,4.4 36.9,8.9 C36.9,13.4 40.5,17 45,17 Z M45,3.8 C47.8,3.8 50.1,6.1 50.1,8.9 C50.1,11.7 47.8,14 45,14 C42.2,14 39.9,11.7 39.9,8.9 C39.9,6.1 42.2,3.8 45,3.8 Z" id="Shape"></path>
                        </g>
                    </g>
                </g>
            </g>
        </g>
    </g>
</svg>