<svg width="26px" height="12px" viewBox="0 0 26 12" version="1.1" xmlns="http://www.w3.org/2000/svg" xmlns:xlink="http://www.w3.org/1999/xlink"><g id="package-ico-Symbols" stroke="none" stroke-width="1" fill="none" fill-rule="evenodd"><g id="package-ico-main_menu" transform="translate(-7.000000, -82.000000)" fill="#FFFFFF"><g id="package-ico-Group-26" transform="translate(6.000000, 81.000000)"><rect id="package-ico-Rectangle" x="11" y="2" width="16" height="1.5" rx="0.75"></rect><g id="package-ico-Group-23" transform="translate(4.989074, 3.603956) rotate(12.000000) translate(-4.989074, -3.603956) translate(0.989074, 1.103956)"><rect id="package-ico-Rectangle-Copy-12" transform="translate(2.378199, 3.188116) rotate(26.000000) translate(-2.378199, -3.188116) " x="0.731140655" y="2.4381159" width="3.29411765" height="1.5" rx="0.411764706"></rect><rect id="package-ico-Rectangle-Copy-13" transform="translate(4.858000, 2.397059) rotate(-42.000000) translate(-4.858000, -2.397059) " x="2.38741158" y="1.64705882" width="4.94117647" height="1.5" rx="0.411764706"></rect></g><g id="package-ico-Group-23" transform="translate(4.707912, 7.521852) rotate(12.000000) translate(-4.707912, -7.521852) translate(1.207912, 5.021852)"><rect id="package-ico-Rectangle-Copy-12" transform="translate(2.170288, 3.209968) rotate(26.000000) translate(-2.170288, -3.209968) " x="0.523228964" y="2.4599683" width="3.29411765" height="1.5" rx="0.411764706"></rect><rect id="package-ico-Rectangle-Copy-13" transform="translate(4.650088, 2.418911) rotate(-42.000000) translate(-4.650088, -2.418911) " x="2.17949989" y="1.66891122" width="4.94117647" height="1.5" rx="0.411764706"></rect></g><rect id="package-ico-Rectangle-Copy-10" x="11" y="6.5" width="16" height="1.5" rx="0.75"></rect><rect id="package-ico-Rectangle-Copy-11" x="11" y="11" width="16" height="1.5" rx="0.75"></rect><rect id="package-ico-Rectangle-Copy-14" x="3" y="11" width="4" height="1.5" rx="0.75"></rect></g></g></g></svg>