<svg xmlns="http://www.w3.org/2000/svg" xmlns:xlink="http://www.w3.org/1999/xlink" width="7px" height="7px" viewBox="0 0 7 7" version="1.1"><g id="right-pagi-ico-User-Management" stroke="none" stroke-width="1" fill="none" fill-rule="evenodd"><g id="right-pagi-ico-usermanagement_RMI_v1.0.0_8" transform="translate(-1243.000000, -763.000000)" fill="#525252" fill-rule="nonzero"><g id="right-pagi-ico-Group-9" transform="translate(-3.000000, 0.000000)"><g id="right-pagi-ico-Group-1712" transform="translate(55.000000, 747.000000)"><g id="right-pagi-ico-Group"><g id="right-pagi-ico-Group-21" transform="translate(963.000000, 12.000000)"><g id="right-pagi-ico-Group-19" transform="translate(228.000000, 4.000000)"><path d="M3.81085714,3.01085714 L0.965714286,0.165714286 C0.855428571,0.0551428571 0.723142857,1.29674049e-13 0.571428571,1.29674049e-13 C0.232,1.29674049e-13 0,0.290285714 0,0.571428571 C0,0.718857143 0.0531428571,0.853142857 0.165714286,0.965714286 L2.62857143,3.42857143 L0.165714286,5.89142857 C0.0531428571,6.004 0,6.13828571 0,6.28571429 C0,6.56685714 0.232285714,6.85714286 0.571428571,6.85714286 C0.723142857,6.85714286 0.855428571,6.802 0.965714286,6.69142857 L3.81542857,3.842 C3.92028571,3.73714286 4,3.63685714 4,3.42857143 C4,3.22028571 3.90457143,3.10457143 3.81085714,3.01085714 Z" id="right-pagi-ico-Shape"></path><path d="M6.81085714,3.01085714 L3.96571429,0.165714286 C3.85542857,0.0551428571 3.72314286,-9.76996262e-14 3.57142857,-9.76996262e-14 C3.232,-9.76996262e-14 3,0.290285714 3,0.571428571 C3,0.718857143 3.05314286,0.853142857 3.16571429,0.965714286 L5.62857143,3.42857143 L3.16571429,5.89142857 C3.05314286,6.004 3,6.13828571 3,6.28571429 C3,6.56685714 3.23228571,6.85714286 3.57142857,6.85714286 C3.72314286,6.85714286 3.85542857,6.802 3.96571429,6.69142857 L6.81542857,3.842 C6.92028571,3.73714286 7,3.63685714 7,3.42857143 C7,3.22028571 6.90457143,3.10457143 6.81085714,3.01085714 Z" id="right-pagi-ico-Shape"></path></g></g></g></g></g></g></g></svg>