<svg width="16px" height="16px" viewBox="0 0 16 16" version="1.1" xmlns="http://www.w3.org/2000/svg" xmlns:xlink="http://www.w3.org/1999/xlink"><g id="cross-black-Recent-Search" stroke="none" stroke-width="1" fill="none" fill-rule="evenodd"><g id="cross-black-search_user5-copy-12" transform="translate(-1232.000000, -87.000000)" fill="#252525" fill-rule="nonzero"><g id="cross-black-Group-9"><g id="cross-black-Group-8"><g id="cross-black-Group-7"><path d="M1241.46584,95.0001186 L1247.69592,88.7697211 C1248.10136,88.3644596 1248.10136,87.7092077 1247.69592,87.3039461 C1247.29066,86.8986846 1246.63543,86.8986846 1246.23017,87.3039461 L1239.99991,93.5343437 L1233.76983,87.3039461 C1233.36438,86.8986846 1232.70934,86.8986846 1232.30408,87.3039461 C1231.89864,87.7092077 1231.89864,88.3644596 1232.30408,88.7697211 L1238.53416,95.0001186 L1232.30408,101.230516 C1231.89864,101.635778 1231.89864,102.29103 1232.30408,102.696291 C1232.50604,102.898447 1232.77159,103 1233.03695,103 C1233.30231,103 1233.56767,102.898447 1233.76983,102.696291 L1239.99991,96.4658936 L1246.23017,102.696291 C1246.43233,102.898447 1246.69769,103 1246.96305,103 C1247.22841,103 1247.49377,102.898447 1247.69592,102.696291 C1248.10136,102.29103 1248.10136,101.635778 1247.69592,101.230516 L1241.46584,95.0001186 Z" id="cross-black-Path"></path></g></g></g></g></g></svg>