<svg width="8px" height="8px" viewBox="0 0 8 8" version="1.1" xmlns="http://www.w3.org/2000/svg" xmlns:xlink="http://www.w3.org/1999/xlink"><g id="plTplTbulk-operations" stroke="none" stroke-width="1" fill="none" fill-rule="evenodd"><g id="plTplTsearch_user5-copy-10" transform="translate(-1100.000000, -92.000000)" fill="#252525" fill-rule="nonzero"><g id="plTplTGroup-6"><g id="plTplTGroup-28" transform="translate(55.000000, 76.000000)"><g id="plTplTGroup-12"><g id="plTplTGroup-10"><g id="plTplTGroup-33" transform="translate(841.000000, 6.000000)"><g id="plTplTGroup-30" transform="translate(194.000000, 0.000000)"><g id="plTplTGroup-29" transform="translate(10.000000, 7.000000)"><path d="M7.42857143,6.42857143 L4.57142857,6.42857143 L4.57142857,3.57142857 C4.57142857,3.256 4.31542857,3 4,3 C3.68457143,3 3.42857143,3.256 3.42857143,3.57142857 L3.42857143,6.42857143 L0.571428571,6.42857143 C0.256,6.42857143 0,6.68457143 0,7 C0,7.31542857 0.256,7.57142857 0.571428571,7.57142857 L3.42857143,7.57142857 L3.42857143,10.4285714 C3.42857143,10.744 3.68457143,11 4,11 C4.31542857,11 4.57142857,10.744 4.57142857,10.4285714 L4.57142857,7.57142857 L7.42857143,7.57142857 C7.744,7.57142857 8,7.31542857 8,7 C8,6.68457143 7.744,6.42857143 7.42857143,6.42857143 Z" id="plTplTPath"></path></g></g></g></g></g></g></g></g></g></svg>