<svg width="8px" height="10px" viewBox="0 0 8 10" version="1.1" xmlns="http://www.w3.org/2000/svg" xmlns:xlink="http://www.w3.org/1999/xlink"><g id="rmabulk-tagging" stroke="none" stroke-width="1" fill="none" fill-rule="evenodd"><g id="rmasearch_user1-copy-6" transform="translate(-1171.000000, -269.000000)" fill="#252525" fill-rule="nonzero"><g id="rmaGroup-30" transform="translate(1161.000000, 260.000000)"><g id="rmaGroup-29" transform="translate(10.000000, 7.000000)"><g id="rmanoun_Delete_3027274" transform="translate(0.000000, 2.000000)"><path d="M7.66666667,1.33333333 L5.66666667,1.33333333 L5.66666667,1 C5.66666667,0.44771525 5.21895142,0 4.66666667,0 L3.33333333,0 C2.78104858,0 2.33333333,0.44771525 2.33333333,1 L2.33333333,1.33333333 L0.333333333,1.33333333 C0.149238417,1.33333333 0,1.48257175 0,1.66666667 C0,1.85076158 0.149238417,2 0.333333333,2 L0.666666667,2 L0.666666667,8.33333333 C0.666666667,8.88561808 1.11438192,9.33333333 1.66666667,9.33333333 L6.33333333,9.33333333 C6.88561808,9.33333333 7.33333333,8.88561808 7.33333333,8.33333333 L7.33333333,2 L7.66666667,2 C7.85076158,2 8,1.85076158 8,1.66666667 C8,1.48257175 7.85076158,1.33333333 7.66666667,1.33333333 Z M3,1 C3,0.815905083 3.14923842,0.666666667 3.33333333,0.666666667 L4.66666667,0.666666667 C4.85076158,0.666666667 5,0.815905083 5,1 L5,1.33333333 L3,1.33333333 L3,1 Z M6.33333333,8.66666667 L1.66666667,8.66666667 C1.48257175,8.66666667 1.33333333,8.51742825 1.33333333,8.33333333 L1.33333333,8 L6.66666667,8 L6.66666667,8.33333333 C6.66666667,8.51742825 6.51742825,8.66666667 6.33333333,8.66666667 Z M6.66666667,7.33333333 L1.33333333,7.33333333 L1.33333333,2 L6.66666667,2 L6.66666667,7.33333333 Z" id="rmaShape"></path><path d="M2.33333333,2.66666667 C2.14923842,2.66666667 2,2.81590508 2,3 L2,6.33333333 C2,6.51742825 2.14923842,6.66666667 2.33333333,6.66666667 C2.51742825,6.66666667 2.66666667,6.51742825 2.66666667,6.33333333 L2.66666667,3 C2.66666667,2.81590508 2.51742825,2.66666667 2.33333333,2.66666667 Z" id="rmaPath"></path><path d="M4,2.66666667 C3.81590508,2.66666667 3.66666667,2.81590508 3.66666667,3 L3.66666667,6.33333333 C3.66666667,6.51742825 3.81590508,6.66666667 4,6.66666667 C4.18409492,6.66666667 4.33333333,6.51742825 4.33333333,6.33333333 L4.33333333,3 C4.33333333,2.81590508 4.18409492,2.66666667 4,2.66666667 Z" id="rmaPath"></path><path d="M5.33333333,6.33333333 C5.33333333,6.51742825 5.48257175,6.66666667 5.66666667,6.66666667 C5.85076158,6.66666667 6,6.51742825 6,6.33333333 L6,3 C6,2.81590508 5.85076158,2.66666667 5.66666667,2.66666667 C5.48257175,2.66666667 5.33333333,2.81590508 5.33333333,3 L5.33333333,6.33333333 Z" id="rmaPath"></path></g></g></g></g></g></svg>