<svg width="15px" height="15px" viewBox="0 0 15 15" version="1.1" xmlns="http://www.w3.org/2000/svg" xmlns:xlink="http://www.w3.org/1999/xlink"><g id="bxrlisting" stroke="none" stroke-width="1" fill="none" fill-rule="evenodd"><g id="bxrsearch_user5-copy-10" transform="translate(-253.000000, -411.000000)"><g id="bxrGroup-5" transform="translate(55.000000, 132.000000)"><g id="bxrGroup-13" transform="translate(198.000000, 279.000000)"><circle id="bxrOval" stroke="#252525" cx="7.5" cy="7.5" r="7"></circle><g id="bxriconfinder_code_134230" transform="translate(6.000000, 4.000000)" fill="#252525" fill-rule="nonzero"><path d="M3.81085714,3.01085714 L0.965714286,0.165714286 C0.855428571,0.0551428571 0.723142857,0 0.571428571,0 C0.232,0 0,0.290285714 0,0.571428571 C0,0.718857143 0.0531428571,0.853142857 0.165714286,0.965714286 L2.62857143,3.42857143 L0.165714286,5.89142857 C0.0531428571,6.004 0,6.13828571 0,6.28571429 C0,6.56685714 0.232285714,6.85714286 0.571428571,6.85714286 C0.723142857,6.85714286 0.855428571,6.802 0.965714286,6.69142857 L3.81542857,3.842 C3.92028571,3.73714286 4,3.63685714 4,3.42857143 C4,3.22028571 3.90457143,3.10457143 3.81085714,3.01085714 Z" id="bxrShape"></path></g></g></g></g></g></svg>