<svg width="20px" height="20px" viewBox="0 0 20 20" version="1.1" xmlns="http://www.w3.org/2000/svg" xmlns:xlink="http://www.w3.org/1999/xlink"><g id="Search" stroke="none" stroke-width="1" fill="none" fill-rule="evenodd"><g id="search_user1-copy-6" transform="translate(-109.000000, -96.000000)" fill="#007AFF" fill-rule="nonzero"><g id="loupe" transform="translate(109.000000, 96.000000)"><path d="M8.80757812,0 C3.95121094,0 0,3.95121094 0,8.80757812 C0,13.6642187 3.95121094,17.6151562 8.80757812,17.6151562 C13.6642187,17.6151562 17.6151562,13.6642187 17.6151562,8.80757812 C17.6151562,3.95121094 13.6642187,0 8.80757812,0 Z M8.80757812,15.9891797 C4.84769531,15.9891797 1.62601562,12.7675 1.62601562,8.80761719 C1.62601562,4.84773437 4.84769531,1.62601562 8.80757812,1.62601562 C12.7674609,1.62601562 15.9891406,4.84769531 15.9891406,8.80757812 C15.9891406,12.7674609 12.7674609,15.9891797 8.80757812,15.9891797 Z" id="Shape"></path><path d="M19.7617969,18.6121875 L15.1005469,13.9509375 C14.7829297,13.6333203 14.2685547,13.6333203 13.9509375,13.9509375 C13.6333203,14.2682813 13.6333203,14.7832031 13.9509375,15.1005469 L18.6121875,19.7617969 C18.7709766,19.9205859 18.9788672,20 19.1869922,20 C19.3948437,20 19.6029687,19.9205859 19.7617969,19.7617969 C20.0794141,19.4444531 20.0794141,18.9295313 19.7617969,18.6121875 Z" id="Path"></path></g></g></g></svg>