<svg width="28px" height="28px" viewBox="0 0 28 28" version="1.1" xmlns="http://www.w3.org/2000/svg" xmlns:xlink="http://www.w3.org/1999/xlink"><g id="tsSearch" stroke="none" stroke-width="1" fill="none" fill-rule="evenodd"><g id="tssearch_user1-copy" transform="translate(-120.000000, -151.000000)" fill="#007AFF" fill-rule="nonzero"><g id="tsGroup-3"><g id="tsSearch-Tags" transform="translate(103.000000, 140.000000)"><g id="tstag" transform="translate(18.000000, 12.000000)"><path d="M22.8441406,0 L13.1287109,0 C12.9298828,0 12.7390625,0.07910155 12.5984375,0.21972655 L0.80566405,12.0121094 C-0.2685547,13.0867188 -0.2685547,14.8349609 0.80566405,15.9091797 L9.690625,24.7939453 C10.209375,25.3126953 10.9013672,25.5986328 11.6388672,25.5986328 L11.6390625,25.5986328 C12.3767578,25.5986328 13.06875,25.3126953 13.5876953,24.79375 L25.3800781,13.0011719 C25.5207031,12.8605469 25.6,12.6697266 25.6,12.4708985 L25.6,2.75546875 C25.6,1.2361328 24.3634765,0 22.8441406,0 Z M24.1,12.1603515 L12.5269531,23.7332031 C12.2914062,23.9689453 11.9759765,24.0986328 11.6390625,24.0986328 C11.3019531,24.0986328 10.9867187,23.9689453 10.7511719,23.7333984 L1.86621095,14.8486328 C1.3767578,14.3591797 1.3767578,13.5623047 1.86621095,13.0726562 L13.4392578,1.5 L22.8441406,1.5 C23.5365234,1.5 24.1,2.06328125 24.1,2.75566405 L24.1,12.1603515 Z" id="tsShape" stroke="#007AFF"></path><path d="M18.9892578,4.25390625 C18.3597656,4.25390625 17.7679688,4.49921875 17.3228515,4.94433595 C16.8777344,5.3892578 16.6326172,5.9810547 16.6326172,6.6105469 C16.6326172,7.24003905 16.8777344,7.83183595 17.3228515,8.2769531 C17.7679688,8.7220703 18.3597656,8.9671875 18.9892578,8.9671875 C19.6185547,8.9671875 20.2103515,8.7220703 20.6554688,8.2769531 C21.1005859,7.83183595 21.3457031,7.24003905 21.3457031,6.6105469 C21.3457031,5.9810547 21.100586,5.3892578 20.6556641,4.94433595 C20.2105469,4.49921875 19.61875,4.25390625 18.9892578,4.25390625 L18.9892578,4.25390625 Z M19.5949219,7.21621095 C19.4332031,7.378125 19.2179688,7.4671875 18.9892578,7.4671875 C18.7603515,7.4671875 18.5453125,7.378125 18.3835937,7.21621095 C18.2216797,7.0544922 18.1326172,6.8392578 18.1326172,6.6105469 C18.1326172,6.38183595 18.2216797,6.16660155 18.3835937,6.0048828 C18.5453125,5.84296875 18.7605469,5.75390625 18.9892578,5.75390625 C19.2179688,5.75390625 19.4330078,5.84296875 19.5949219,6.0048828 C19.756836,6.16660155 19.8458984,6.38183595 19.8458984,6.6105469 C19.8458984,6.8392578 19.7566406,7.0544922 19.5949219,7.21621095 L19.5949219,7.21621095 Z" id="tsShape"></path></g></g></g></g></g></svg>