<svg width="40px" height="40px" viewBox="0 0 40 40" version="1.1" xmlns="http://www.w3.org/2000/svg" xmlns:xlink="http://www.w3.org/1999/xlink"><g id="User-Management" stroke="none" stroke-width="1" fill="none" fill-rule="evenodd"><g id="usermanagement_RMI_v1.0.0_20" transform="translate(-983.000000, -24.000000)"><g id="Group-9" transform="translate(-3.000000, 0.000000)"><g id="Group-7" transform="translate(973.000000, 13.000000)"><g id="Group-11" transform="translate(13.000000, 11.000000)"><circle id="Oval" stroke="#FFFFFF" stroke-width="3" cx="20" cy="20" r="18.5"/><g id="iconfinder_Tick_5957003-(1)" transform="translate(8.000000, 11.000000)" fill="#FFFFFF" fill-rule="nonzero"><path d="M6.56874647,17.4312535 C7.07812602,17.940633 7.90399336,17.940633 8.41337285,17.4312535 L23.170384,2.67424243 C23.6797635,2.16486292 23.6797635,1.33899556 23.170384,0.829616045 C22.6610044,0.320236534 21.8351371,0.320236534 21.3257576,0.829616045 L6.56874647,15.5866271 C6.05936697,16.0960066 6.05936697,16.921874 6.56874647,17.4312535 Z" id="Rectangle"/><path d="M0.745529838,9.87596463 C1.25490935,9.36658513 2.08077671,9.36658513 2.59015622,9.87596463 L8.12403537,15.4098438 C8.63341487,15.9192233 8.63341487,16.7450907 8.12403537,17.2544702 C7.61465588,17.7638497 6.78878849,17.7638497 6.27940899,17.2544702 L0.745529838,11.720591 C0.236150326,11.2112115 0.236150326,10.3853441 0.745529838,9.87596463 Z" id="Rectangle"/></g></g></g></g></g></g>a</svg>