<svg width="40px" height="40px" viewBox="0 0 40 40" version="1.1" xmlns="http://www.w3.org/2000/svg" xmlns:xlink="http://www.w3.org/1999/xlink"><g id="usermanagement" stroke="none" stroke-width="1" fill="none" fill-rule="evenodd"><g id="slashnext_RMI_myprofile_usermanagement_v1.0.0_19" transform="translate(-983.000000, -24.000000)"><g id="Group-9" transform="translate(970.000000, 13.000000)"><g id="Group-8" transform="translate(13.000000, 11.000000)"><path d="M27.5595471,25.4395418 L22.1200052,20 L27.5595471,14.5604582 C28.1468176,13.9731876 28.1468176,13.0277235 27.5595471,12.4404529 C26.9722765,11.8531824 26.0268124,11.8531824 25.4395418,12.4404529 L20,17.8799948 L14.5604582,12.4404529 C13.9731876,11.8531824 13.0277235,11.8531824 12.4404529,12.4404529 C11.8531824,13.0277235 11.8531824,13.9731876 12.4404529,14.5604582 L17.8799948,20 L12.4404529,25.4395418 C11.8531824,26.0268124 11.8531824,26.9722765 12.4404529,27.5595471 C13.0277235,28.1468176 13.9731876,28.1468176 14.5604582,27.5595471 L20,22.1200052 L25.4395418,27.5595471 C26.0268124,28.1468176 26.9722765,28.1468176 27.5595471,27.5595471 C28.1426526,26.9722765 28.1426526,26.0226474 27.5595471,25.4395418 Z" id="Path-Copy" fill="#FFFFFF" fill-rule="nonzero"></path><circle id="Oval" stroke="#FFFFFF" stroke-width="3" cx="20" cy="20" r="18.5"></circle></g></g></g></g></svg>