<svg width="32px" height="39px" viewBox="0 0 32 39" version="1.1" xmlns="http://www.w3.org/2000/svg" xmlns:xlink="http://www.w3.org/1999/xlink"><g id="total-packages-ico-Dashboard" stroke="none" stroke-width="1" fill="none" fill-rule="evenodd"><g id="total-packages-ico-Dashboard-Copy-11" transform="translate(-80.000000, -113.000000)" fill="#007AFF" fill-rule="nonzero"><g id="total-packages-ico-noun_Metadata_38248" transform="translate(80.000000, 113.000000)"><path d="M31.9405714,10.6182857 C31.9390476,10.6091429 31.9375238,10.600381 31.936,10.5912381 C31.9291429,10.5504762 31.9211429,10.5097143 31.9100952,10.4685714 C31.9078095,10.4617143 31.9062857,10.4548571 31.904,10.448 C31.8906667,10.4034286 31.8750476,10.3592381 31.855619,10.3154286 C31.8510476,10.3066667 31.8468571,10.2982857 31.8422857,10.2895238 C31.832,10.2678095 31.8228571,10.2460952 31.8110476,10.2247619 C31.8041905,10.2129524 31.7969524,10.2019048 31.7893333,10.1904762 C31.7824762,10.1790476 31.776,10.168 31.7691429,10.1569524 C31.7447619,10.1207619 31.72,10.0860952 31.6933333,10.0533333 C31.6910476,10.0510476 31.6887619,10.048 31.6864762,10.0453333 C31.656,10.008381 31.6224762,9.97447619 31.5866667,9.94247619 C31.5805714,9.93638095 31.5740952,9.93066667 31.5664762,9.92495238 C31.5352381,9.89790476 31.5024762,9.87238095 31.4689524,9.84914286 C31.4620952,9.84457143 31.456381,9.83961905 31.4495238,9.83542857 C31.4099048,9.80914286 31.368381,9.78552381 31.3260952,9.76457143 C31.3230476,9.76342857 31.3207619,9.76152381 31.3180952,9.76 L26.6285714,7.50857143 L26.6285714,6.05409524 C26.6285714,6.05371429 26.6285714,6.05295238 26.6285714,6.05257143 C26.6285714,6.00380952 26.6247619,5.95542857 26.6182857,5.90666667 C26.6175238,5.89790476 26.616,5.8887619 26.6144762,5.87961905 C26.608381,5.83885714 26.5988571,5.79809524 26.5878095,5.75733333 C26.5855238,5.75047619 26.5847619,5.7432381 26.5824762,5.7367619 C26.568381,5.69180952 26.5527619,5.648 26.5333333,5.60419048 C26.5295238,5.59542857 26.5253333,5.58704762 26.5207619,5.57866667 C26.5112381,5.55657143 26.5013333,5.53485714 26.4887619,5.51390476 C26.4826667,5.50209524 26.4746667,5.49104762 26.4678095,5.47961905 C26.4609524,5.46819048 26.4537143,5.4567619 26.4468571,5.44571429 C26.4232381,5.40990476 26.3984762,5.376 26.3718095,5.34361905 C26.3695238,5.34057143 26.3672381,5.33714286 26.3649524,5.33447619 C26.3337143,5.29790476 26.3009524,5.26438095 26.2659048,5.23238095 C26.2582857,5.22590476 26.2518095,5.21980952 26.2434286,5.21371429 C26.2137143,5.18704762 26.1817143,5.16228571 26.1489524,5.13980952 C26.1413333,5.13485714 26.1340952,5.12952381 26.1264762,5.12419048 C26.087619,5.09866667 26.0468571,5.07504762 26.0053333,5.05447619 C26.0015238,5.05333333 25.9992381,5.05104762 25.9965714,5.04952381 L16.4830476,0.479619048 C16.1782857,0.332952381 15.8224762,0.332952381 15.5173333,0.479619048 L6.00304762,5.0487619 C6.00114286,5.04990476 5.99885714,5.05142857 5.99695238,5.05257143 C5.95352381,5.07390476 5.9112381,5.09790476 5.87085714,5.12457143 C5.86514286,5.12838095 5.85980952,5.13257143 5.85371429,5.13638095 C5.81904762,5.16 5.78628571,5.18628571 5.75428571,5.21409524 C5.74742857,5.21980952 5.74133333,5.22514286 5.73447619,5.23085714 C5.69980952,5.26285714 5.66590476,5.2967619 5.63504762,5.33371429 C5.6327619,5.3367619 5.63047619,5.33980952 5.62780952,5.34285714 C5.60152381,5.37485714 5.57714286,5.4087619 5.55390476,5.44457143 C5.54628571,5.456 5.53904762,5.46780952 5.53219048,5.4792381 C5.52495238,5.49066667 5.51733333,5.50133333 5.5112381,5.5127619 C5.49942857,5.53333333 5.49028571,5.55428571 5.48038095,5.57561905 C5.47580952,5.58514286 5.47047619,5.59428571 5.46628571,5.60380952 C5.4472381,5.64685714 5.4312381,5.69066667 5.41790476,5.73485714 C5.41561905,5.74285714 5.41409524,5.75047619 5.41180952,5.75809524 C5.4007619,5.79771429 5.39238095,5.83733333 5.38590476,5.87733333 C5.38438095,5.88685714 5.38285714,5.8967619 5.38133333,5.90666667 C5.37485714,5.95428571 5.37104762,6.00266667 5.37104762,6.05066667 C5.37104762,6.05142857 5.37104762,6.05219048 5.37104762,6.05295238 L5.37104762,7.50742857 L0.681904762,9.7607619 C0.679619048,9.76152381 0.677714286,9.76342857 0.675428571,9.76495238 C0.631619048,9.78590476 0.589714286,9.80990476 0.549333333,9.83657143 C0.543238095,9.84038095 0.537904762,9.84495238 0.531809524,9.84914286 C0.49752381,9.8727619 0.464380952,9.89828571 0.432761905,9.92609524 C0.426285714,9.93180952 0.419047619,9.93752381 0.412571429,9.94361905 C0.377904762,9.9752381 0.344380952,10.0091429 0.313142857,10.0460952 C0.310857143,10.0491429 0.308952381,10.0525714 0.306285714,10.055619 C0.279619048,10.087619 0.255238095,10.1215238 0.232,10.1573333 C0.224380952,10.1691429 0.216761905,10.1805714 0.210285714,10.192381 C0.203047619,10.2034286 0.195428571,10.2140952 0.188952381,10.2255238 C0.17752381,10.2460952 0.168,10.2674286 0.15847619,10.2887619 C0.153904762,10.2979048 0.148571429,10.3074286 0.144,10.3169524 C0.125333333,10.36 0.109333333,10.4038095 0.0956190476,10.448 C0.0933333333,10.456 0.0918095238,10.464 0.0895238095,10.4712381 C0.0788571429,10.5108571 0.0700952381,10.5504762 0.0636190476,10.5908571 C0.0620952381,10.600381 0.0605714286,10.6102857 0.0594285714,10.6198095 C0.052952381,10.6678095 0.0491428571,10.7161905 0.0487619048,10.7638095 C0.0487619048,10.7645714 0.0487619048,10.7653333 0.0487619048,10.7664762 L0.0487619048,29.0948571 C0.0487619048,29.4998095 0.268952381,29.8739048 0.623238095,30.0704762 L15.4586667,38.2971429 C15.4590476,38.2979048 15.4598095,38.2979048 15.4601905,38.2979048 C15.4994286,38.32 15.5405714,38.3386667 15.5820952,38.3558095 C15.5893333,38.3584762 15.5961905,38.3611429 15.6030476,38.3634286 C15.6369524,38.376381 15.6708571,38.3870476 15.7062857,38.3973333 C15.7169524,38.400381 15.728381,38.4030476 15.7390476,38.4053333 C15.7714286,38.4133333 15.8038095,38.4186667 15.8373333,38.424381 C15.848,38.4259048 15.8590476,38.4281905 15.8700952,38.4293333 C15.912381,38.4342857 15.9554286,38.4373333 15.999619,38.4373333 C16.0438095,38.4373333 16.0868571,38.4339048 16.1291429,38.4293333 C16.1401905,38.4281905 16.1512381,38.4259048 16.1619048,38.424381 C16.1950476,38.4186667 16.2278095,38.4133333 16.2598095,38.4053333 C16.2708571,38.4026667 16.2822857,38.4 16.2933333,38.3973333 C16.328381,38.3874286 16.3619048,38.376381 16.3961905,38.3634286 C16.4030476,38.3611429 16.4095238,38.3584762 16.4171429,38.3558095 C16.4586667,38.3386667 16.4998095,38.319619 16.5390476,38.2979048 C16.5398095,38.2979048 16.5405714,38.2979048 16.5405714,38.2971429 L31.376,30.0704762 C31.7302857,29.8739048 31.9504762,29.5001905 31.9504762,29.0948571 L31.9504762,10.7657143 C31.9504762,10.7653333 31.9497143,10.7645714 31.9497143,10.7641905 C31.9500952,10.7154286 31.9470476,10.6666667 31.9405714,10.6182857 Z M28.407619,10.8369524 L26.6285714,11.8232381 L26.6285714,9.98209524 L28.407619,10.8369524 Z M17.1154286,17.0986667 L17.1154286,11.9866667 L24.3988571,7.94742857 L24.3988571,13.0598095 L17.1154286,17.0986667 Z M7.60114286,7.94742857 L14.8853333,11.9866667 L14.8853333,17.0986667 L7.60114286,13.0598095 L7.60114286,7.94742857 Z M16,2.72190476 L23.0864762,6.12533333 L16,10.0548571 L8.91352381,6.12533333 L16,2.72190476 Z M5.37104762,11.8232381 L3.592,10.8369524 L5.37104762,9.98247619 L5.37104762,11.8232381 L5.37104762,11.8232381 Z M2.2792381,12.6590476 L5.95009524,14.6944762 C5.9527619,14.695619 5.95542857,14.6971429 5.95809524,14.6986667 L14.8853333,19.6491429 L14.8853333,20.408381 L14.8853333,35.4274286 L2.27961905,28.4377143 L2.27961905,12.6590476 L2.2792381,12.6590476 Z M17.1154286,35.4274286 L17.1154286,20.408381 L17.1154286,19.6491429 L26.0426667,14.6986667 C26.0449524,14.6975238 26.0472381,14.696 26.0502857,14.6948571 L29.7215238,12.6590476 L29.7215238,28.4377143 L17.1154286,35.4274286 Z" id="total-packages-ico-Shape"></path></g></g></g></svg>