<svg xmlns="http://www.w3.org/2000/svg" xmlns:xlink="http://www.w3.org/1999/xlink" width="21px" height="21px" viewBox="0 0 21 21" version="1.1"><g id="upload-ico-Import" stroke="none" stroke-width="1" fill="none" fill-rule="evenodd"><g id="upload-ico-search_user1-copy" transform="translate(-139.000000, -184.000000)" fill="#007AFF" fill-rule="nonzero"><g id="upload-ico-Group-3" transform="translate(120.000000, 126.000000)"><g id="upload-ico-Group-5" transform="translate(0.000000, 43.000000)"><g id="upload-ico-upload" transform="translate(19.000000, 15.000000)"><path d="M7.13757522,5.96731034 L9.36896552,3.73592004 L9.36896552,15.5398707 C9.36896552,16.1369095 9.85296114,16.6209052 10.45,16.6209052 C11.0470389,16.6209052 11.5310345,16.1369095 11.5310345,15.5398707 L11.5310345,3.73592004 L13.7624248,5.96731034 C14.0352712,6.24164474 14.4339297,6.34923997 14.8077532,6.24943738 C15.1815766,6.14963479 15.4735572,5.85765418 15.5733598,5.48383074 C15.6731624,5.1100073 15.5655672,4.71134877 15.2912328,4.43850237 L11.2144265,0.361651078 C11.0116916,0.158905737 10.7367178,0.0450037126 10.45,0.0450037126 C10.1632822,0.0450037126 9.88830838,0.158905737 9.68557349,0.361651078 L5.60876724,4.43850237 C5.33443285,4.71134877 5.22683761,5.1100073 5.32664021,5.48383074 C5.4264428,5.85765418 5.71842341,6.14963479 6.09224685,6.24943738 C6.46607029,6.34923997 6.86472881,6.24164474 7.13757522,5.96731034 L7.13757522,5.96731034 Z" id="upload-ico-Path"/><path d="M19.8189655,9.41400862 C19.2219267,9.41400862 18.737931,9.89800424 18.737931,10.4950431 L18.737931,18.7829741 L2.16206897,18.7829741 L2.16206897,10.4950431 C2.16206897,9.89800424 1.67807334,9.41400862 1.08103448,9.41400862 C0.483995624,9.41400862 0,9.89800424 0,10.4950431 L0,19.143319 C0,20.1383837 0.806659373,20.9450431 1.80172414,20.9450431 L19.0982759,20.9450431 C20.0933406,20.9450431 20.9,20.1383837 20.9,19.143319 L20.9,10.4950431 C20.9,9.89800424 20.4160044,9.41400862 19.8189655,9.41400862 L19.8189655,9.41400862 Z" id="upload-ico-Path"/></g></g></g></g></g></svg>