<svg width="21px" height="24px" viewBox="0 0 21 24" version="1.1" xmlns="http://www.w3.org/2000/svg" xmlns:xlink="http://www.w3.org/1999/xlink"><g id="user-icon-Login" stroke="none" stroke-width="1" fill="none" fill-rule="evenodd"><g id="user-icon-100_Sign-In" transform="translate(-765.000000, -323.000000)" fill="#007AFF" fill-rule="nonzero"><g id="user-icon-Group-6"><g id="user-icon-Group-5" transform="translate(749.000000, 311.000000)"><g id="user-icon-Group-2" transform="translate(16.683222, 12.000000)"><path d="M20.3145556,23.3297778 L17.8701111,23.3297778 C17.8701111,19.206 14.4112222,15.8522222 10.1566667,15.8522222 C5.90211111,15.8522222 2.44444444,19.2072222 2.44444444,23.3297778 L0,23.3297778 C0,17.8566667 4.55766667,13.4077778 10.1578889,13.4077778 C15.7568889,13.4077778 20.3145556,17.8566667 20.3145556,23.3297778 Z" id="user-icon-Path"></path><path d="M10.1578889,13.4077778 C6.46311111,13.4077778 3.45522185,10.3986667 3.45522185,6.70388889 C3.454,3.00788889 6.46188889,-1.70530257e-13 10.1578889,-1.70530257e-13 C13.8551111,-1.70530257e-13 16.863,3.00666667 16.863,6.70388889 C16.863,10.4011111 13.8551111,13.4077778 10.1578889,13.4077778 Z M10.1578889,2.44444444 C7.80877778,2.44444444 5.89844444,4.35477778 5.89844444,6.70388889 C5.89844444,9.053 7.80877778,10.9633333 10.1578889,10.9633333 C12.5082222,10.9633333 14.4185556,9.053 14.4185556,6.70388889 C14.4185556,4.35477778 12.5057778,2.44444444 10.1578889,2.44444444 Z" id="user-icon-Shape"></path></g></g></g></g></g></svg>