<svg width="26px" height="18px" viewBox="0 0 26 18" version="1.1" xmlns="http://www.w3.org/2000/svg" xmlns:xlink="http://www.w3.org/1999/xlink"><g id="user-management-ico-Symbols" stroke="none" stroke-width="1" fill="none" fill-rule="evenodd" stroke-linecap="round"><g id="user-management-ico-main_menu" transform="translate(-7.000000, -321.000000)" stroke="#FFFFFF" stroke-width="1.5"><g id="user-management-ico-iconfinder_Asset_255x-109_5810207" transform="translate(8.000000, 323.000000)"><circle id="user-management-ico-Oval" cx="4.49928205" cy="2.52307692" r="2.99984615"></circle><path d="M4.72512821,13.1384615 L0.74174359,13.1384615 C0.331531905,13.1371048 -0.000228381498,12.80406 -7.44781205e-06,12.3938462 L-7.44781205e-06,11.273641 C-0.0030335946,9.60337785 0.920854432,8.06932938 2.39863035,7.29089082 C3.87640627,6.51245225 5.66405826,6.61816014 7.03979487,7.56533333" id="user-management-ico-Path"></path><circle id="user-management-ico-Oval" cx="19.4849231" cy="2.52307692" r="2.99984615"></circle><circle id="user-management-ico-Oval" cx="11.992" cy="2.85251282" r="3.60251282"></circle><path d="M6.28615385,14.9517949 L6.28615385,12.6789744 C6.29483031,9.93451357 8.51809997,7.71216034 11.2625641,7.70461538 L12.7230769,7.70461538 C15.4668332,7.7130621 17.6889892,9.93521812 17.6974359,12.6789744 L17.6974359,14.9517949" id="user-management-ico-Path"></path><path d="M19.2590769,13.1384615 L23.2424615,13.1384615 C23.652273,13.1371062 23.9838685,12.8046854 23.9842136,12.3948718 L23.9842136,11.273641 C23.9874496,9.60309743 23.0634466,8.06872284 21.5853848,7.29022443 C20.107323,6.51172602 18.3193473,6.61769538 16.9435897,7.56533333" id="user-management-ico-Path"></path></g></g></g></svg>