<svg xmlns="http://www.w3.org/2000/svg" xmlns:xlink="http://www.w3.org/1999/xlink" width="21px" height="25px" viewBox="0 0 21 25" version="1.1"><g id="user-status-ico-User-Management" stroke="none" stroke-width="1" fill="none" fill-rule="evenodd"><g id="user-status-ico-usermanagement_RMI_v1.0.0_9" transform="translate(-1013.000000, -289.000000)" fill="#007AFF" fill-rule="nonzero"><g id="user-status-ico-Group-11" transform="translate(-3.000000, 0.000000)"><g id="user-status-ico-Group-9-Copy-4" transform="translate(1000.000000, 277.000000)"><g id="user-status-ico-Group-2" transform="translate(15.683222, 12.000000)"><path d="M21.3145556,23.3297778 L18.8701111,23.3297778 C18.8701111,19.206 15.4112222,15.8522222 11.1566667,15.8522222 C8.70376789,15.8522222 6.51574878,16.9673981 5.1025092,18.7019034 C4.06448321,19.9758994 1.76209021,19.0249758 3.0459258,17.3636267 C4.90171318,14.9621427 7.84767558,13.4077778 11.1578889,13.4077778 C16.7568889,13.4077778 21.3145556,17.8566667 21.3145556,23.3297778 Z" id="user-status-ico-Path"/><path d="M11.1578889,13.4077778 C7.46311111,13.4077778 4.45522185,10.3986667 4.45522185,6.70388889 C4.454,3.00788889 7.46188889,-1.70530257e-13 11.1578889,-1.70530257e-13 C14.8551111,-1.70530257e-13 17.863,3.00666667 17.863,6.70388889 C17.863,10.4011111 14.8551111,13.4077778 11.1578889,13.4077778 Z M11.1578889,2.44444444 C8.80877778,2.44444444 6.89844444,4.35477778 6.89844444,6.70388889 C6.89844444,9.053 8.80877778,10.9633333 11.1578889,10.9633333 C13.5082222,10.9633333 15.4185556,9.053 15.4185556,6.70388889 C15.4185556,4.35477778 13.5057778,2.44444444 11.1578889,2.44444444 Z" id="user-status-ico-Shape"/><path d="M7.98370479,18.2242467 C7.84702722,18.0647057 7.62543374,18.0647057 7.48872883,18.2242467 L3.2955152,23.1184601 L1.68371248,21.2372229 C1.54703491,21.0776819 1.32544143,21.0776979 1.18873652,21.2372229 C1.05204528,21.396748 1.05204528,21.6553838 1.18873652,21.8149248 L3.04802722,23.984989 C3.18466377,24.1445141 3.40642131,24.1444024 3.54300318,23.984989 L7.98370479,18.8019645 C8.12039603,18.6424394 8.12038235,18.3837877 7.98370479,18.2242467 Z" id="user-status-ico-Path" stroke="#007AFF" stroke-width="1.5" transform="translate(4.586218, 21.104591) rotate(11.000000) translate(-4.586218, -21.104591) "/></g></g></g></g></g></svg>