<svg xmlns="http://www.w3.org/2000/svg" xmlns:xlink="http://www.w3.org/1999/xlink" width="21px" height="24px" viewBox="0 0 21 24" version="1.1"><g id="user-role-icoUser-Management" stroke="none" stroke-width="1" fill="none" fill-rule="evenodd"><g id="user-role-icousermanagement_RMI_v1.0.0_2" transform="translate(-737.000000, -289.000000)"><g id="user-role-icoGroup-6" transform="translate(-3.000000, 0.000000)"><g id="user-role-icoGroup-9-Copy-3" transform="translate(724.000000, 277.000000)"><g id="user-role-icoGroup-2" transform="translate(16.683222, 12.000000)"><path d="M20.3145556,23.3297778 L17.8701111,23.3297778 C17.8701111,19.206 14.4112222,15.8522222 10.1566667,15.8522222 C5.90211111,15.8522222 2.44444444,19.2072222 2.44444444,23.3297778 L0,23.3297778 C0,17.8566667 4.55766667,13.4077778 10.1578889,13.4077778 C15.7568889,13.4077778 20.3145556,17.8566667 20.3145556,23.3297778 Z" id="user-role-icoPath" fill="#007AFF" fill-rule="nonzero"/><path d="M11.7875501,14.4685675 L7.7853453,18.4707723 L13.404685,20.0879072 L11.7875501,14.4685675 Z" id="user-role-icoRectangle" stroke="#007AFF" stroke-width="2.5" transform="translate(10.316778, 17.000000) rotate(-315.000000) translate(-10.316778, -17.000000) "/><path d="M10.1578889,13.4077778 C6.46311111,13.4077778 3.45522185,10.3986667 3.45522185,6.70388889 C3.454,3.00788889 6.46188889,-1.70530257e-13 10.1578889,-1.70530257e-13 C13.8551111,-1.70530257e-13 16.863,3.00666667 16.863,6.70388889 C16.863,10.4011111 13.8551111,13.4077778 10.1578889,13.4077778 Z M10.1578889,2.44444444 C7.80877778,2.44444444 5.89844444,4.35477778 5.89844444,6.70388889 C5.89844444,9.053 7.80877778,10.9633333 10.1578889,10.9633333 C12.5082222,10.9633333 14.4185556,9.053 14.4185556,6.70388889 C14.4185556,4.35477778 12.5057778,2.44444444 10.1578889,2.44444444 Z" id="user-role-icoShape" fill="#007AFF" fill-rule="nonzero"/></g></g></g></g></g></svg>