<?xml version="1.0" encoding="UTF-8"?>
<svg width="15px" height="15px" viewBox="0 0 15 15" version="1.1" xmlns="http://www.w3.org/2000/svg" xmlns:xlink="http://www.w3.org/1999/xlink">
    <title>change Password</title>
    <g id="icons" stroke="none" stroke-width="1" fill="none" fill-rule="evenodd">
        <g id="Artboard" transform="translate(-29.000000, -208.000000)" fill="#F7691F" fill-rule="nonzero">
            <g id="Group" transform="translate(29.000000, 208.000000)">
                <path d="M7.5,0 C3.35380835,0 0,3.35380835 0,7.5 C0,11.6461916 3.35380835,15 7.5,15 C11.6461916,15 15,11.6461916 15,7.5 C15,3.35380835 11.6461916,0 7.5,0 Z M7.5,14.2813268 C3.75921376,14.2813268 0.718673219,11.2407862 0.718673219,7.5 C0.718673219,3.75921376 3.75921376,0.718673219 7.5,0.718673219 C11.2407862,0.718673219 14.2813268,3.75921376 14.2813268,7.5 C14.2813268,11.2407862 11.2407862,14.2813268 7.5,14.2813268 Z" id="Shape"></path>
                <path d="M8.10810811,4.42260442 L7.61056511,4.92014742 L9.04791155,6.35749386 L10.485258,4.92014742 L9.98771499,4.42260442 L9.43488943,4.97542998 L9.43488943,4.68058968 C9.43488943,3.57493857 8.53194103,2.69041769 7.44471744,2.69041769 C6.33906634,2.69041769 5.45454545,3.59336609 5.45454545,4.68058968 L5.45454545,6.85503686 L4.62530713,6.85503686 L4.62530713,11.6646192 L10.2641278,11.6646192 L10.2641278,6.85503686 L6.11793612,6.85503686 L6.11793612,4.66216216 C6.11793612,3.96191646 6.68918919,3.37223587 7.40786241,3.37223587 C8.12653563,3.37223587 8.6977887,3.94348894 8.6977887,4.66216216 L8.6977887,4.99385749 L8.10810811,4.42260442 Z M9.50859951,10.9459459 L5.30712531,10.9459459 L5.30712531,7.57371007 L9.50859951,7.57371007 L9.50859951,10.9459459 L9.50859951,10.9459459 Z" id="Shape"></path>
            </g>
        </g>
    </g>
</svg>