<svg xmlns="http://www.w3.org/2000/svg" xmlns:xlink="http://www.w3.org/1999/xlink" width="9px" height="7px" viewBox="0 0 9 7" version="1.1">
    <g id="check-RegEX" stroke="none" stroke-width="1" fill="none" fill-rule="evenodd">
        <g id="check-RegEX-31" transform="translate(-504.000000, -393.000000)" fill="#F7691F" fill-rule="nonzero">
            <g id="check-Group-8" transform="translate(469.000000, 273.000000)">
                <g id="check-Path" transform="translate(32.000000, 116.000000)">
                    <path d="M10.4101667,4.44104167 C10.1553333,4.44104167 9.91583333,4.54033333 9.73558333,4.720625 L6.205625,8.25633333 L5.26479167,7.31558333 C5.08466667,7.13541667 4.84516667,7.03616667 4.59041667,7.03616667 C4.335625,7.03616667 4.096125,7.13541667 3.91595833,7.31554167 C3.73583333,7.49566667 3.63666667,7.73516667 3.63666667,7.98991667 C3.63666667,8.24466667 3.73583333,8.48416667 3.91595833,8.66425 L5.531375,10.2796667 C5.7115,10.4598333 5.951,10.5590833 6.20579167,10.5590833 C6.46045833,10.5590833 6.70004167,10.4597917 6.880375,10.2795 L11.0845833,6.06925 C11.456375,5.69733333 11.4563333,5.09225 11.0845833,4.72033333 C10.9044583,4.54025 10.6649167,4.44104167 10.4101667,4.44104167 Z"/>
                </g>
            </g>
        </g>
    </g>
</svg>
