<?xml version="1.0" encoding="UTF-8"?>
<svg width="10px" height="10px" viewBox="0 0 10 10" version="1.1" xmlns="http://www.w3.org/2000/svg" xmlns:xlink="http://www.w3.org/1999/xlink">
    <title>Cross</title>
    <g id="icons" stroke="none" stroke-width="1" fill="none" fill-rule="evenodd">
        <g id="Artboard" transform="translate(-278.000000, -211.000000)" fill="#333743" fill-rule="nonzero">
            <path d="M283.91615,216.000074 L287.809949,212.106076 C288.06335,211.852787 288.06335,211.443255 287.809949,211.189966 C287.556665,210.936678 287.147142,210.936678 286.893858,211.189966 L282.999941,215.083965 L279.106142,211.189966 C278.85274,210.936678 278.443335,210.936678 278.190051,211.189966 C277.93665,211.443255 277.93665,211.852787 278.190051,212.106076 L282.08385,216.000074 L278.190051,219.894073 C277.93665,220.147361 277.93665,220.556894 278.190051,220.810182 C278.316278,220.93653 278.482246,221 278.648097,221 C278.813947,221 278.979797,220.93653 279.106142,220.810182 L282.999941,216.916183 L286.893858,220.810182 C287.020203,220.93653 287.186053,221 287.351903,221 C287.517754,221 287.683604,220.93653 287.809949,220.810182 C288.06335,220.556894 288.06335,220.147361 287.809949,219.894073 L283.91615,216.000074 Z" id="Cross"></path>
        </g>
    </g>
</svg>