<svg width="6px" height="8px" viewBox="0 0 6 8" version="1.1" xmlns="http://www.w3.org/2000/svg" xmlns:xlink="http://www.w3.org/1999/xlink"><g id="delete-icon-RegEX" stroke="none" stroke-width="1" fill="none" fill-rule="evenodd"> <g id="delete-icon-RegEX-10" transform="translate(-1221.000000, -478.000000)" fill="#333743" fill-rule="nonzero"> <g id="delete-icon-Group-3" transform="translate(1204.000000, 425.000000)"> <g id="delete-icon-Group-2" transform="translate(17.000000, 45.000000)"> <g id="delete-icon-delete-(1)" transform="translate(0.000000, 8.000000)"> <path d="M4.02075166,2.89845013 C3.92519135,2.89845013 3.84774291,2.98231965 3.84774291,3.08580262 L3.84774291,6.62676476 C3.84774291,6.73017455 3.92519135,6.81411726 4.02075166,6.81411726 C4.11631196,6.81411726 4.19376042,6.73017455 4.19376042,6.62676476 L4.19376042,3.08580262 C4.19376042,2.98231965 4.11631196,2.89845013 4.02075166,2.89845013 Z" id="Path"></path> <path d="M1.97924837,2.89845013 C1.88368805,2.89845013 1.80623961,2.98231965 1.80623961,3.08580262 L1.80623961,6.62676476 C1.80623961,6.73017455 1.88368805,6.81411726 1.97924837,6.81411726 C2.07480866,6.81411726 2.15225712,6.73017455 2.15225712,6.62676476 L2.15225712,3.08580262 C2.15225712,2.98231965 2.07480866,2.89845013 1.97924837,2.89845013 Z" id="Path"></path> <path d="M0.491373084,2.3816939 L0.491373084,6.99766416 C0.491373084,7.27049623 0.583757043,7.52671539 0.745141771,7.71055503 C0.905783098,7.89490696 1.12934286,7.99956088 1.36331016,8 L4.63668985,8 C4.87072474,7.99956088 5.09428449,7.89490696 5.25485824,7.71055503 C5.41624297,7.52671539 5.50862695,7.27049623 5.50862695,6.99766416 L5.50862695,2.3816939 C5.82943652,2.28948134 6.03731736,1.9538569 5.99440307,1.59737487 C5.95142123,1.24096603 5.67102538,0.974354644 5.33906484,0.974281464 L4.45327355,0.974281464 L4.45327355,0.740090846 C4.45428726,0.543151168 4.38238049,0.354042244 4.25363766,0.214918385 C4.12489482,0.0758677059 3.94999378,-0.00156156717 3.76813184,2.38767472e-05 L2.23186817,2.38767472e-05 C2.05000623,-0.00156156717 1.87510519,0.0758677059 1.74636236,0.214918385 C1.61761952,0.354042244 1.54571276,0.543151168 1.54672648,0.740090846 L1.54672648,0.974281464 L0.660935175,0.974281464 C0.328974629,0.974354644 0.0485788051,1.24096603 0.00559692548,1.59737487 C-0.0373173423,1.9538569 0.170563489,2.28948134 0.491373084,2.3816939 Z M4.63668985,7.62529501 L1.36331016,7.62529501 C1.06750575,7.62529501 0.837390592,7.35012104 0.837390592,6.99766416 L0.837390592,2.39816042 L5.16260944,2.39816042 L5.16260944,6.99766416 C5.16260944,7.35012104 4.93249427,7.62529501 4.63668985,7.62529501 Z M1.89274399,0.740090846 C1.89159509,0.642535821 1.92700782,0.548640016 1.99093997,0.479773342 C2.05480453,0.410906668 2.14171438,0.373070232 2.23186817,0.374753482 L3.76813184,0.374753482 C3.85828561,0.373070232 3.94519549,0.410906668 4.00906004,0.479773342 C4.07299219,0.548566836 4.10840492,0.642535821 4.10725604,0.740090846 L4.10725604,0.974281464 L1.89274399,0.974281464 L1.89274399,0.740090846 Z M0.660935175,1.34898645 L5.33906484,1.34898645 C5.51105986,1.34898645 5.65048059,1.49996622 5.65048059,1.68622094 C5.65048059,1.87247566 5.51105986,2.02345543 5.33906484,2.02345543 L0.660935175,2.02345543 C0.488940132,2.02345543 0.349519418,1.87247566 0.349519418,1.68622094 C0.349519418,1.49996622 0.488940132,1.34898645 0.660935175,1.34898645 Z" id="Shape"></path> <path d="M3.00000002,2.89845013 C2.9044397,2.89845013 2.82699126,2.98231965 2.82699126,3.08580262 L2.82699126,6.62676476 C2.82699126,6.73017455 2.9044397,6.81411726 3.00000002,6.81411726 C3.09556031,6.81411726 3.17300877,6.73017455 3.17300877,6.62676476 L3.17300877,3.08580262 C3.17300877,2.98231965 3.09556031,2.89845013 3.00000002,2.89845013 Z" id="Path"></path> </g> </g> </g> </g> </g> </svg>