<?xml version="1.0" encoding="UTF-8"?>
<svg width="9px" height="6px" viewBox="0 0 9 6" version="1.1" xmlns="http://www.w3.org/2000/svg" xmlns:xlink="http://www.w3.org/1999/xlink">
    <title>Drop Down Arrow</title>
    <g id="icons" stroke="none" stroke-width="1" fill="none" fill-rule="evenodd">
        <g id="Artboard" transform="translate(-220.000000, -212.000000)" fill="#161A24" fill-rule="nonzero">
            <path d="M226.940247,214.68784 L223.093671,211.127804 C223.004704,211.045398 222.885942,211 222.759308,211 C222.632675,211 222.513912,211.045398 222.424946,211.127804 L222.141672,211.389916 C221.957344,211.560711 221.957344,211.838302 222.141672,212.008837 L225.371736,214.998341 L222.138088,217.991163 C222.049121,218.073569 222,218.183421 222,218.300559 C222,218.417826 222.049121,218.527679 222.138088,218.61015 L222.421362,218.872196 C222.510398,218.954602 222.629091,219 222.755724,219 C222.882358,219 223.00112,218.954602 223.090087,218.872196 L226.940247,215.308908 C227.029424,215.226242 227.078405,215.115869 227.078125,214.998537 C227.078405,214.880749 227.029424,214.770441 226.940247,214.68784 Z" id="Drop-Down-Arrow" transform="translate(224.539062, 215.000000) rotate(-270.000000) translate(-224.539062, -215.000000) "></path>
        </g>
    </g>
</svg>