<svg width="8px" height="8px" viewBox="0 0 8 8" version="1.1" xmlns="http://www.w3.org/2000/svg" xmlns:xlink="http://www.w3.org/1999/xlink"> <g id="edit-icon-RegEX" stroke="none" stroke-width="1" fill="none" fill-rule="evenodd"> <g id="edit-icon-RegEX-10" transform="translate(-1220.000000, -449.000000)" fill="#333743" fill-rule="nonzero"> <g id="edit-icon-Group-3" transform="translate(1204.000000, 425.000000)"> <g id="edit-icon-Group" transform="translate(16.000000, 16.000000)"> <g id="edit-icon-pen-(1)" transform="translate(0.000000, 8.000000)"> <path d="M7.08137494,0.322033083 C6.65128057,-0.107344361 5.95479632,-0.107344361 5.52470197,0.322033083 L5.13503441,0.713872705 L0.987051569,4.86004426 L0.978236184,4.86892937 C0.976101203,4.87106453 0.976101203,4.87333748 0.973828492,4.87333748 C0.969420799,4.87994964 0.962809261,4.88649292 0.958470434,4.89310508 C0.958470434,4.89530913 0.956197722,4.89530913 0.956197722,4.89751319 C0.95179003,4.90412535 0.949655049,4.90853346 0.945178491,4.91514563 C0.943043511,4.91734968 0.943043511,4.91948487 0.940839665,4.92175779 C0.938635819,4.92836996 0.936431972,4.93277807 0.93415926,4.93939023 C0.93415926,4.94152541 0.93202428,4.94152541 0.93202428,4.94379834 L0.011711889,7.71154022 C-0.0152852265,7.79033518 0.00523809974,7.87760198 0.0645353313,7.93607832 C0.106201811,7.97719772 0.162399889,8.00020253 0.220870678,8 C0.244768622,7.99958265 0.268459968,7.99586329 0.29132489,7.98897564 L3.05666974,7.06637205 C3.05880472,7.06637205 3.05880472,7.06637205 3.06107743,7.06423687 C3.06803331,7.06217058 3.07471372,7.05920887 3.08084318,7.05535178 C3.08256493,7.05514514 3.08408007,7.05438749 3.08531974,7.05321659 C3.09186241,7.04880848 3.10067779,7.0443315 3.10728933,7.03992339 C3.11383199,7.03558416 3.12051241,7.02897199 3.12712395,7.02456388 C3.1293278,7.02229095 3.13146276,7.02229095 3.13146276,7.02015577 C3.13373549,7.01795172 3.13814318,7.01581653 3.14034703,7.01133955 L7.67799741,2.47325949 C8.1073342,2.04312441 8.1073342,1.34657421 7.67799741,0.916508007 L7.08137494,0.322033083 Z M2.98621553,6.54890129 L1.45385374,5.01646328 L5.28916591,1.18078795 L6.82152769,2.71322596 L2.98621553,6.54890129 Z M1.23801455,5.42380017 L2.57671337,6.76255686 L0.566530162,7.43190078 L1.23801455,5.42380017 Z M7.36759944,2.16496732 L7.13419836,2.40059457 L5.6017677,0.8680188 L5.83744151,0.632460438 C6.09522264,0.374861527 6.51305809,0.374861527 6.77090809,0.632460438 L7.36973442,1.23134347 C7.62558719,1.49031992 7.62462302,1.90723066 7.36759944,2.16496732 Z" id="Shape"></path> </g> </g> </g> </g> </g> </svg>