<svg xmlns="http://www.w3.org/2000/svg" xmlns:xlink="http://www.w3.org/1999/xlink" width="236px" height="212px" viewBox="0 0 236 212" version="1.1">
    <g id="login-svg-Sigin-Page" stroke="none" stroke-width="1" fill="none" fill-rule="evenodd">
        <g id="login-svg-02" transform="translate(-261.000000, -307.000000)">
            <g id="login-svg-Illustration-" transform="translate(262.000000, 308.000000)">
                <polygon
                    id="login-svg-Fill-1"
                    fill="#FFFFFF"
                    points="135.338241 58.4218698 133.586421 55.4548124 123.989878 61.0558902 125.741698 64.0229475 120.248228 73.6443721 116.787061 73.6698677 116.868001 84.7325938 120.329167 84.7078949 125.962879 94.2488487 124.254334 97.240605 133.931816 102.70305 135.640362 99.7104971 146.768345 99.6300264 148.520165 102.597084 158.116708 96.996006 156.364888 94.0289487 161.858358 84.4075241 165.319524 84.3820285 165.238585 73.3193024 161.777418 73.3440013 156.143706 63.8030475 157.852252 60.8112912 148.174769 55.3488461 146.466224 58.3413991"
                />
                <polygon
                    id="login-svg-Stroke-2"
                    stroke="#F7691F"
                    stroke-width="0.5"
                    stroke-linecap="round"
                    stroke-linejoin="round"
                    points="135.338241 58.4218698 133.586421 55.4548124 123.989878 61.0558902 125.741698 64.0229475 120.248228 73.6443721 116.787061 73.6698677 116.868001 84.7325938 120.329167 84.7078949 125.962879 94.2488487 124.254334 97.240605 133.931816 102.70305 135.640362 99.7104971 146.768345 99.6300264 148.520165 102.597084 158.116708 96.996006 156.364888 94.0289487 161.858358 84.4075241 165.319524 84.3820285 165.238585 73.3193024 161.777418 73.3440013 156.143706 63.8030475 157.852252 60.8112912 148.174769 55.3488461 146.466224 58.3413991"
                />
                <g id="login-svg-Group-118" transform="translate(0.000000, -0.000000)">
                    <path
                        d="M140.988461,70.1747315 C145.905738,70.1388782 149.920659,74.0731772 149.95592,78.9611732 C149.991982,83.8499659 146.03476,87.8416301 141.118285,87.8774834 C136.201008,87.9125399 132.186087,83.9790377 132.150826,79.090245 C132.114764,74.202249 136.071986,70.2105848 140.988461,70.1747315"
                        id="login-svg-Fill-3"
                        fill="#FFFFFF"
                    />
                    <path
                        d="M140.988461,70.1747315 C145.905738,70.1388782 149.920659,74.0731772 149.95592,78.9611732 C149.991982,83.8499659 146.03476,87.8416301 141.118285,87.8774834 C136.201008,87.9125399 132.186087,83.9790377 132.150826,79.090245 C132.114764,74.202249 136.071986,70.2105848 140.988461,70.1747315 Z"
                        id="login-svg-Stroke-5"
                        stroke="#F7691F"
                        stroke-width="0.5"
                        stroke-linecap="round"
                        stroke-linejoin="round"
                    />
                    <path
                        d="M25.8393196,23.7746229 C25.8393196,23.7746229 4.06818916,42.6916056 28.1945797,66.74198"
                        id="login-svg-Stroke-7"
                        stroke="#F7691F"
                        stroke-width="0.5"
                        stroke-linecap="round"
                        stroke-linejoin="round"
                        stroke-dasharray="4.974399948120118,2.487199974060059"
                    />
                    <path
                        d="M6.75129447,128.935694 C3.61308463,134.252335 -3.14817085,139.356248 1.693776,146.750786 C5.03393398,151.851511 11.7463052,153.6625 9.1330002,160.907251 C8.09681396,163.778699 6.11660034,165.947424 6.71202678,169.180592 C7.23052059,171.990692 9.44393621,174.211205 11.3953001,176.147281 C13.0717901,177.812467 15.7588222,179.38284 17.004169,181.418509 C19.0372738,184.743302 16.960093,187.239487 15.9944284,190.543565 C15.0752438,193.687498 14.9301938,197.166062 16.6852192,200.104437 C19.0068213,203.990932 23.5426404,204.386911 26.5341975,207.229677 C26.5341975,207.229677 40.2762869,216.157142 45.9067932,199.673401 C47.2370864,195.778142 49.210889,192.210344 48.2548409,187.79083 C47.5319948,184.450102 45.0461095,181.997738 42.2220412,180.313431 C39.2545256,178.543077 36.0241569,178.117618 35.2412072,174.30522 C34.761981,171.970774 35.6579255,169.002919 35.7484816,166.648555 C35.8550654,163.909365 35.959245,160.784553 34.417387,158.374416 C32.6431284,155.600967 29.7076681,155.349994 26.9837725,153.944545 C20.1127277,150.399055 23.7950756,144.53346 22.7556838,138.535606 C21.2490867,129.84079 12.8009232,130.668602 6.86348787,128.891873 L6.75129447,128.935694 Z"
                        id="login-svg-Fill-9"
                        fill="#E1FFFF"
                    />
                    <path
                        d="M6.75129447,128.935694 C3.61308463,134.252335 -3.14817085,139.356248 1.693776,146.750786 C5.03393398,151.851511 11.7463052,153.6625 9.1330002,160.907251 C8.09681396,163.778699 6.11660034,165.947424 6.71202678,169.180592 C7.23052059,171.990692 9.44393621,174.211205 11.3953001,176.147281 C13.0717901,177.812467 15.7588222,179.38284 17.004169,181.418509 C19.0372738,184.743302 16.960093,187.239487 15.9944284,190.543565 C15.0752438,193.687498 14.9301938,197.166062 16.6852192,200.104437 C19.0068213,203.990932 23.5426404,204.386911 26.5341975,207.229677 C26.5341975,207.229677 40.2762869,216.157142 45.9067932,199.673401 C47.2370864,195.778142 49.210889,192.210344 48.2548409,187.79083 C47.5319948,184.450102 45.0461095,181.997738 42.2220412,180.313431 C39.2545256,178.543077 36.0241569,178.117618 35.2412072,174.30522 C34.761981,171.970774 35.6579255,169.002919 35.7484816,166.648555 C35.8550654,163.909365 35.959245,160.784553 34.417387,158.374416 C32.6431284,155.600967 29.7076681,155.349994 26.9837725,153.944545 C20.1127277,150.399055 23.7950756,144.53346 22.7556838,138.535606 C21.2490867,129.84079 12.8009232,130.668602 6.86348787,128.891873 L6.75129447,128.935694 Z"
                        id="login-svg-Stroke-11"
                        stroke="#D4E6FC"
                        stroke-width="0.5"
                    />
                    <g id="login-svg-Group-16" transform="translate(12.219601, 142.629173)">
                        <line x1="0" y1="0" x2="26.314162" y2="66.6846944" id="login-svg-Fill-13" fill="#D4E6FC" />
                        <line x1="0" y1="0" x2="26.314162" y2="66.6846944" id="login-svg-Stroke-15" stroke="#F7691F" stroke-width="0.5" stroke-linecap="round" stroke-linejoin="round" />
                    </g>
                    <g id="login-svg-Group-20" transform="translate(13.340814, 165.702745)">
                        <line x1="0" y1="0" x2="10.3931163" y2="6.10621047" id="login-svg-Fill-17" fill="#D4E6FC" />
                        <line x1="0" y1="0" x2="10.3931163" y2="6.10621047" id="login-svg-Stroke-19" stroke="#F7691F" stroke-width="0.5" stroke-linecap="round" stroke-linejoin="round" />
                    </g>
                    <g id="login-svg-Group-24" transform="translate(33.631713, 187.664228)">
                        <line x1="0" y1="9.22703855" x2="5.62008826" y2="1.41837208e-14" id="login-svg-Fill-21" fill="#D4E6FC" />
                        <line x1="0" y1="9.22703855" x2="5.62008826" y2="1.41837208e-14" id="login-svg-Stroke-23" stroke="#0C5AE5" stroke-width="0.5" stroke-linecap="round" stroke-linejoin="round" />
                    </g>
                    <g id="login-svg-Group-28" transform="translate(20.259701, 154.624802)">
                        <line x1="0" y1="8.37930787" x2="2.76075917" y2="0" id="login-svg-Fill-25" fill="#D4E6FC" />
                        <line x1="0" y1="8.37930787" x2="2.76075917" y2="0" id="login-svg-Stroke-27" stroke="#F7691F" stroke-width="0.5" stroke-linecap="round" stroke-linejoin="round" />
                    </g>
                    <polygon id="login-svg-Fill-29" fill="#F7691F" points="29.6390698 127.602988 82.668886 127.602988 82.668886 96.3174231 29.6390698 104.195582" />
                    <polygon id="login-svg-Fill-31" fill="#F7691F" points="28.8715868 209.644515 37.1498574 201.177565 44.1427121 201.177565 44.1427121 209.644515" />
                    <polygon id="login-svg-Fill-33" fill="#F7691F" points="74.4076046 209.644515 69.0503695 201.177565 62.0575148 201.177565 62.0575148 209.644515" />
                    <polygon
                        id="login-svg-Fill-35"
                        fill="#FFFFFF"
                        points="78.5019427 127.446588 78.5019427 203.420466 57.0521663 203.420466 57.0521663 142.814893 54.2585504 142.814893 50.3253702 203.420466 28.8715868 203.420466 32.8047671 142.814893 33.8048912 127.446588"
                    />
                    <polygon
                        id="login-svg-Stroke-37"
                        stroke="#F7691F"
                        stroke-width="0.5"
                        stroke-linecap="round"
                        stroke-linejoin="round"
                        points="78.5019427 127.446588 78.5019427 203.420466 57.0521663 203.420466 57.0521663 142.814893 54.2585504 142.814893 50.3253702 203.420466 28.8715868 203.420466 32.8047671 142.814893 33.8048912 127.446588"
                    />
                    <path
                        d="M88.7228421,89.8995282 C88.7228421,72.3346122 75.191516,64.5002741 57.5298698,64.0811892 C57.1684467,64.0732218 56.8030168,64.0684414 56.4343813,64.0684414 C29.8629758,64.0684414 21.4805256,83.2706567 20.2215553,86.5842957 C17.418323,93.9613055 9.53112652,117.097023 34.9437344,127.797233 C42.5905164,131.016856 48.0503283,123.208014 52.1341683,121.118963 C59.2512372,117.478661 61.8156579,116.567988 61.8156579,116.567988 L88.7228421,89.8995282 Z"
                        id="login-svg-Fill-39"
                        fill="#F7691F"
                    />
                    <path
                        d="M76.95151,98.6508337 C76.95151,98.6508337 79.7892018,111.498256 95.6341162,108.724009 C111.479832,105.95056 106.845443,81.7256994 106.845443,81.7256994 L94.5883134,81.7256994 L94.1395398,92.8720831 C94.1395398,92.8720831 87.6371305,76.1150608 79.493492,70.373757 C74.5257283,66.8712908 76.95151,98.6508337 76.95151,98.6508337"
                        id="login-svg-Fill-41"
                        fill="#F7691F"
                    />
                    <line x1="82.4797599" y1="93.6150426" x2="82.4797599" y2="106.949273" id="login-svg-Stroke-43" stroke="#FFFFFF" stroke-width="0.5" stroke-linecap="round" stroke-linejoin="round" />
                    <polygon id="login-svg-Fill-45" fill="#FFFFFF" points="45.7585376 124.931202 50.2190269 129.392146 53.8108186 133.614864 52.3002145 135.118311 53.6273023 136.855203 46.1824684 142.605271 36.5065885 131.046177" />
                    <polygon
                        id="login-svg-Stroke-47"
                        stroke="#F7691F"
                        stroke-width="0.5"
                        stroke-linecap="round"
                        stroke-linejoin="round"
                        points="45.7585376 124.931202 50.2190269 129.392146 53.8108186 133.614864 52.3002145 135.118311 53.6273023 136.855203 46.1824684 142.605271 36.5065885 131.046177"
                    />
                    <line x1="52.0791935" y1="137.9653" x2="48.8784759" y2="134.337746" id="login-svg-Stroke-49" stroke="#F7691F" stroke-width="0.5" stroke-linecap="round" stroke-linejoin="round" />
                    <line x1="49.9808563" y1="139.393854" x2="46.7793373" y2="135.7663" id="login-svg-Stroke-51" stroke="#F7691F" stroke-width="0.5" stroke-linecap="round" stroke-linejoin="round" />
                    <line x1="48.0088168" y1="140.963112" x2="44.8072978" y2="137.335557" id="login-svg-Stroke-53" stroke="#F7691F" stroke-width="0.5" stroke-linecap="round" stroke-linejoin="round" />
                    <line x1="52.3420467" y1="135.193922" x2="49.9811768" y2="132.482618" id="login-svg-Stroke-55" stroke="#F7691F" stroke-width="0.5" stroke-linecap="round" stroke-linejoin="round" />
                    <path
                        d="M33.8225215,94.2838256 C27.0957255,108.551037 47.7104624,124.267518 47.7104624,124.267518 L35.3747975,133.407712 C35.3747975,133.407712 18.8006259,119.464773 17.9495587,110.028989"
                        id="login-svg-Fill-57"
                        fill="#F7691F"
                    />
                    <path
                        d="M54.9461358,56.2533046 C54.9461358,56.2533046 47.0958029,58.2762259 46.6261933,48.7838731 C46.1565838,39.2915203 61.4814017,35.8711183 65.0884197,39.8372868 C68.696239,43.8042521 54.9461358,56.2533046 54.9461358,56.2533046"
                        id="login-svg-Fill-59"
                        fill="#F7691F"
                    />
                    <path
                        d="M55.6814834,69.2230263 L55.6814834,69.2230263 C58.3564947,69.2230263 60.525033,67.0670496 60.525033,64.4075336 L60.525033,48.7579791 L50.8379338,48.7579791 L50.8379338,64.4075336 C50.8379338,67.0670496 53.006472,69.2230263 55.6814834,69.2230263"
                        id="login-svg-Fill-61"
                        fill="#FFFFFF"
                    />
                    <path
                        d="M55.6814834,69.2230263 L55.6814834,69.2230263 C58.3564947,69.2230263 60.525033,67.0670496 60.525033,64.4075336 L60.525033,48.7579791 L50.8379338,48.7579791 L50.8379338,64.4075336 C50.8379338,67.0670496 53.006472,69.2230263 55.6814834,69.2230263 Z"
                        id="login-svg-Stroke-63"
                        stroke="#F7691F"
                        stroke-width="0.5"
                        stroke-linecap="round"
                        stroke-linejoin="round"
                    />
                    <path
                        d="M47.435268,49.5418909 C47.3166636,51.0142653 48.4217686,52.3041863 49.9019202,52.4221037 C50.1311153,52.4404287 50.3587077,52.4300711 50.5742793,52.3902342 C50.6800616,53.3718171 50.9885935,54.2992217 51.4606072,55.1270339 C52.5937606,57.1156953 54.6677358,58.5275175 57.1319839,58.7243121 C61.0835959,59.0398209 64.5407556,56.1126005 64.8581026,52.1838787 C65.1746483,48.2551569 62.2311742,44.8180233 58.2795621,44.5025145 C55.6005439,44.2889883 53.1475152,45.5637713 51.7531114,47.6352936 C51.357229,47.328549 50.8691877,47.1317544 50.3322621,47.0895272 C48.8521105,46.970813 47.5538725,48.0703133 47.435268,49.5418909"
                        id="login-svg-Fill-65"
                        fill="#FFFFFF"
                    />
                    <path
                        d="M47.435268,49.5418909 C47.3166636,51.0142653 48.4217686,52.3041863 49.9019202,52.4221037 C50.1311153,52.4404287 50.3587077,52.4300711 50.5742793,52.3902342 C50.6800616,53.3718171 50.9885935,54.2992217 51.4606072,55.1270339 C52.5937606,57.1156953 54.6677358,58.5275175 57.1319839,58.7243121 C61.0835959,59.0398209 64.5407556,56.1126005 64.8581026,52.1838787 C65.1746483,48.2551569 62.2311742,44.8180233 58.2795621,44.5025145 C55.6005439,44.2889883 53.1475152,45.5637713 51.7531114,47.6352936 C51.357229,47.328549 50.8691877,47.1317544 50.3322621,47.0895272 C48.8521105,46.970813 47.5538725,48.0703133 47.435268,49.5418909 Z"
                        id="login-svg-Stroke-67"
                        stroke="#F7691F"
                        stroke-width="0.5"
                        stroke-linecap="round"
                        stroke-linejoin="round"
                    />
                    <path d="M51.4284718,50.8961088 C51.4284718,50.8961088 51.4517118,49.5424487 50.1045896,49.6181389" id="login-svg-Stroke-69" stroke="#F7691F" stroke-width="0.5" stroke-linecap="round" stroke-linejoin="round" />
                    <polygon id="login-svg-Fill-71" fill="#E1FFFF" points="69.5002651 209.644435 204.157996 209.644435 204.157996 81.129579 69.5002651 81.129579" />
                    <polygon id="login-svg-Fill-73" fill="#FFFFFF" points="96.5173188 76.4696099 96.5982583 83.9541794 106.020902 83.9047816 106.215637 76.5405197" />
                    <polygon id="login-svg-Stroke-74" stroke="#F7691F" stroke-width="0.5" stroke-linecap="round" stroke-linejoin="round" points="96.5173188 76.4696099 96.5982583 83.9541794 106.020902 83.9047816 106.215637 76.5405197" />
                    <line x1="98.5027414" y1="83.8223191" x2="98.6285582" y2="78.9980622" id="login-svg-Stroke-75" stroke="#F7691F" stroke-width="0.5" stroke-linecap="round" stroke-linejoin="round" />
                    <line x1="101.034706" y1="83.5856078" x2="101.160523" y2="78.761351" id="login-svg-Stroke-76" stroke="#F7691F" stroke-width="0.5" stroke-linecap="round" stroke-linejoin="round" />
                    <line x1="103.56018" y1="83.5373254" x2="103.685997" y2="78.7130686" id="login-svg-Stroke-77" stroke="#F7691F" stroke-width="0.5" stroke-linecap="round" stroke-linejoin="round" />
                    <path d="M33.8225215,94.2838256 C27.0957255,108.551037 47.7104624,124.267518 47.7104624,124.267518" id="login-svg-Stroke-78" stroke="#FFFFFF" stroke-width="0.5" stroke-linecap="round" stroke-linejoin="round" />
                    <polygon id="login-svg-Fill-79" fill="#FFFFFF" points="87.7709612 120.570568 186.114091 120.570568 186.114091 105.54008 87.7709612 105.54008" />
                    <polygon id="login-svg-Fill-80" fill="#FFFFFF" points="87.7709612 141.917605 186.114091 141.917605 186.114091 126.887117 87.7709612 126.887117" />
                    <polygon id="login-svg-Fill-81" fill="#FFFFFF" points="87.7709612 163.921953 186.114091 163.921953 186.114091 148.891465 87.7709612 148.891465" />
                    <polygon id="login-svg-Fill-82" fill="#F7691F" points="107.340697 189.63831 166.543554 189.63831 166.543554 174.607821 107.340697 174.607821" />
                    <path
                        d="M202.680409,52.9590264 C202.680409,63.3429305 194.213013,71.7612786 183.768608,71.7612786 C173.323402,71.7612786 164.856807,63.3429305 164.856807,52.9590264 C164.856807,42.5743255 173.323402,34.1567742 183.768608,34.1567742 C194.213013,34.1567742 202.680409,42.5743255 202.680409,52.9590264"
                        id="login-svg-Fill-83"
                        fill="#FFFFFF"
                    />
                    <path
                        d="M202.680409,52.9590264 C202.680409,63.3429305 194.213013,71.7612786 183.768608,71.7612786 C173.323402,71.7612786 164.856807,63.3429305 164.856807,52.9590264 C164.856807,42.5743255 173.323402,34.1567742 183.768608,34.1567742 C194.213013,34.1567742 202.680409,42.5743255 202.680409,52.9590264 Z"
                        id="login-svg-Stroke-84"
                        stroke="#F7691F"
                        stroke-width="0.5"
                        stroke-linecap="round"
                        stroke-linejoin="round"
                        stroke-dasharray="4.974399948120118,2.487199974060059"
                    />
                    <g id="login-svg-Group-87" transform="translate(11.199923, 209.201528)">
                        <line x1="-2.84707892e-15" y1="0.5" x2="222.800077" y2="0.5" id="login-svg-Fill-85" fill="#D4E6FC" />
                        <line x1="-2.84707892e-15" y1="0.5" x2="222.800077" y2="0.5" id="login-svg-Stroke-86" stroke="#F7691F" stroke-width="0.5" stroke-linecap="round" stroke-linejoin="round" />
                    </g>
                    <polygon id="login-svg-Fill-88" fill="#F7691F" points="214.36968 209.599897 181.384819 209.599897 176.900288 173.077365 218.854211 173.077365" />
                    <polygon id="login-svg-Fill-89" fill="#FFFFFF" points="174.109397 181.400025 221.645743 181.400025 221.645743 173.077285 174.109397 173.077285" />
                    <polygon id="login-svg-Stroke-90" stroke="#F7691F" stroke-width="0.5" stroke-linecap="round" stroke-linejoin="round" points="174.109397 181.400025 221.645743 181.400025 221.645743 173.077285 174.109397 173.077285" />
                    <g id="login-svg-Group-93" transform="translate(197.476719, 135.856570)">
                        <line x1="0.5" y1="37.220476" x2="0.5" y2="0" id="login-svg-Fill-91" fill="#D4E6FC" />
                        <line x1="0.5" y1="37.220476" x2="0.5" y2="0" id="login-svg-Stroke-92" stroke="#0C5AE5" stroke-width="0.5" stroke-linecap="round" stroke-linejoin="round" />
                    </g>
                    <path
                        d="M218.757564,132.658697 C218.757564,144.123777 209.409449,153.417741 197.87757,153.417741 C186.345691,153.417741 176.997576,144.123777 176.997576,132.658697 C176.997576,121.193618 186.345691,111.899653 197.87757,111.899653 C209.409449,111.899653 218.757564,121.193618 218.757564,132.658697"
                        id="login-svg-Fill-94"
                        fill="#FFFFFF"
                    />
                    <path
                        d="M218.757564,132.658697 C218.757564,144.123777 209.409449,153.417741 197.87757,153.417741 C186.345691,153.417741 176.997576,144.123777 176.997576,132.658697 C176.997576,121.193618 186.345691,111.899653 197.87757,111.899653 C209.409449,111.899653 218.757564,121.193618 218.757564,132.658697 Z"
                        id="login-svg-Stroke-95"
                        stroke="#F7691F"
                        stroke-width="0.5"
                        stroke-linecap="round"
                        stroke-linejoin="round"
                    />
                    <path
                        d="M214.658738,132.658697 C214.658738,141.872988 207.145787,149.343216 197.87781,149.343216 C188.609032,149.343216 181.096081,141.872988 181.096081,132.658697 C181.096081,123.444407 188.609032,115.974975 197.87781,115.974975 C207.145787,115.974975 214.658738,123.444407 214.658738,132.658697"
                        id="login-svg-Fill-96"
                        fill="#FFFFFF"
                    />
                    <path
                        d="M214.658738,132.658697 C214.658738,141.872988 207.145787,149.343216 197.87781,149.343216 C188.609032,149.343216 181.096081,141.872988 181.096081,132.658697 C181.096081,123.444407 188.609032,115.974975 197.87781,115.974975 C207.145787,115.974975 214.658738,123.444407 214.658738,132.658697 Z"
                        id="login-svg-Stroke-97"
                        stroke="#F7691F"
                        stroke-width="0.5"
                        stroke-linecap="round"
                        stroke-linejoin="round"
                    />
                    <path d="M197.87741,172.984385 C197.87741,172.984385 197.87741,157.156361 181.72797,155.193195 C180.382451,168.395963 197.87741,172.984385 197.87741,172.984385" id="login-svg-Fill-98" fill="#F7691F" />
                    <line x1="185.146664" y1="159.591117" x2="194.06043" y2="168.24291" id="login-svg-Stroke-99" stroke="#FFFFFF" stroke-width="0.5" stroke-linecap="round" stroke-linejoin="round" />
                    <path d="M197.955063,173.164847 C197.955063,173.164847 197.955063,157.336823 214.104503,155.373657 C215.450022,168.576425 197.955063,173.164847 197.955063,173.164847" id="login-svg-Fill-100" fill="#F7691F" />
                    <line x1="210.68581" y1="159.771578" x2="201.772043" y2="168.423371" id="login-svg-Stroke-101" stroke="#FFFFFF" stroke-width="0.5" stroke-linecap="round" stroke-linejoin="round" />
                    <path
                        d="M197.179567,137.339541 L198.831214,137.339541 L198.831214,133.845042 L197.179567,133.845042 L197.179567,137.339541 Z M191.124328,130.287601 L191.124328,134.897535 C191.124328,138.686827 194.194421,141.759851 198.00499,141.759851 C201.81636,141.759851 204.907288,138.686827 204.907288,134.897535 L204.907288,130.287601 L191.124328,130.287601 Z"
                        id="login-svg-Fill-102"
                        fill="#F7691F"
                    />
                    <path
                        d="M202.313938,128.965571 L202.313938,128.073223 C202.313938,125.711688 200.388218,123.797123 198.012923,123.797123 C195.637629,123.797123 193.71271,125.711688 193.71271,128.073223 L193.71271,128.965571"
                        id="login-svg-Stroke-103"
                        stroke="#F7691F"
                        stroke-width="1.6"
                    />
                    <path
                        d="M212.250347,108.427861 C212.250347,108.427861 226.131876,83.536927 201.339538,69.6656947"
                        id="login-svg-Stroke-104"
                        stroke="#F7691F"
                        stroke-width="0.5"
                        stroke-linecap="round"
                        stroke-linejoin="round"
                        stroke-dasharray="4.974399948120118,2.487199974060059"
                    />
                    <path
                        d="M112.412239,60.6675594 C109.770085,61.0101573 107.349913,59.1593318 107.004517,56.5364658 C106.659923,53.9096161 108.521532,51.5034632 111.162886,51.1600686 C113.80504,50.8174707 116.226014,52.6682962 116.570608,55.2951459 C116.915202,57.9211988 115.053593,60.3281484 112.412239,60.6675594 L112.412239,60.6675594 Z M125.192671,57.1953693 L124.412126,51.2532871 L122.554523,51.4962926 L118.887402,46.7365716 L119.607844,45.0156146 L114.039845,42.7146313 L113.322609,44.4363851 L107.3427,45.2116125 L106.204739,43.733661 L101.416484,47.3755566 L102.558453,48.8566951 L100.244865,54.3892532 L98.3864609,54.6322587 L99.1662051,60.5743409 L101.024609,60.3345223 L104.687723,65.0918531 L103.968083,66.8128101 L109.536081,69.1129966 L110.255722,67.3920396 L116.232425,66.6160155 L117.374393,68.0979507 L122.158641,64.4528681 L121.020679,62.9749166 L123.334267,57.4383748 L125.192671,57.1953693 Z"
                        id="login-svg-Fill-105"
                        fill="#F7691F"
                    />
                    <g id="login-svg-Group-2" transform="translate(33.632033, 0.000000)">
                        <polygon id="login-svg-Fill-106" points="0 23.7747026 83.6401842 23.7747026 83.6401842 0 0 0" />
                        <path
                            d="M0,23.7747026 L83.6401842,23.7747026 L83.6401842,0 L0,0 L0,23.7747026 Z"
                            id="login-svg-Stroke-107"
                            stroke="#F7691F"
                            stroke-width="0.5"
                            stroke-linecap="round"
                            stroke-linejoin="round"
                            stroke-dasharray="4.974399948120118,2.487199974060059"
                        />
                        <path
                            d="M16.2255707,11.8872716 C16.2255707,13.9093961 14.5763276,15.5490857 12.5424214,15.5490857 C10.5077139,15.5490857 8.85927217,13.9093961 8.85927217,11.8872716 C8.85927217,9.86514711 10.5077139,8.2254575 12.5424214,8.2254575 C14.5763276,8.2254575 16.2255707,9.86514711 16.2255707,11.8872716"
                            id="login-svg-Fill-108"
                            fill="#F7691F"
                            opacity="0.300000012"
                        />
                        <path
                            d="M27.8797408,11.8872716 C27.8797408,13.9093961 26.2304978,15.5490857 24.1965916,15.5490857 C22.161884,15.5490857 20.5134424,13.9093961 20.5134424,11.8872716 C20.5134424,9.86514711 22.161884,8.2254575 24.1965916,8.2254575 C26.2304978,8.2254575 27.8797408,9.86514711 27.8797408,11.8872716"
                            id="login-svg-Fill-109"
                            fill="#F7691F"
                            opacity="0.300000012"
                        />
                        <path
                            d="M39.533911,11.8872716 C39.533911,13.9093961 37.884668,15.5490857 35.8507618,15.5490857 C33.8160542,15.5490857 32.1676125,13.9093961 32.1676125,11.8872716 C32.1676125,9.86514711 33.8160542,8.2254575 35.8507618,8.2254575 C37.884668,8.2254575 39.533911,9.86514711 39.533911,11.8872716"
                            id="login-svg-Fill-110"
                            fill="#F7691F"
                            opacity="0.300000012"
                        />
                        <path
                            d="M51.1881614,11.8872716 C51.1881614,13.9093961 49.5389183,15.5490857 47.5050121,15.5490857 C45.4703046,15.5490857 43.8218629,13.9093961 43.8218629,11.8872716 C43.8218629,9.86514711 45.4703046,8.2254575 47.5050121,8.2254575 C49.5389183,8.2254575 51.1881614,9.86514711 51.1881614,11.8872716"
                            id="login-svg-Fill-111"
                            fill="#F7691F"
                            opacity="0.300000012"
                        />
                        <path
                            d="M62.8423315,11.8872716 C62.8423315,13.9093961 61.1930885,15.5490857 59.1591823,15.5490857 C57.1244747,15.5490857 55.4760331,13.9093961 55.4760331,11.8872716 C55.4760331,9.86514711 57.1244747,8.2254575 59.1591823,8.2254575 C61.1930885,8.2254575 62.8423315,9.86514711 62.8423315,11.8872716"
                            id="login-svg-Fill-112"
                            fill="#F7691F"
                            opacity="0.300000012"
                        />
                        <path
                            d="M74.4965017,11.8872716 C74.4965017,13.9093961 72.8472587,15.5490857 70.8133525,15.5490857 C68.7786449,15.5490857 67.1302032,13.9093961 67.1302032,11.8872716 C67.1302032,9.86514711 68.7786449,8.2254575 70.8133525,8.2254575 C72.8472587,8.2254575 74.4965017,9.86514711 74.4965017,11.8872716"
                            id="login-svg-Fill-113"
                            fill="#F7691F"
                            opacity="0.300000012"
                        />
                    </g>
                    <path
                        d="M189.609236,53.2652133 C187.783689,55.0801856 184.824188,55.0801856 182.997839,53.2652133 C181.172292,51.4502411 181.172292,48.5078826 182.997839,46.6921136 C184.824188,44.8771413 187.783689,44.8771413 189.609236,46.6921136 C191.434783,48.5078826 191.434783,51.4502411 189.609236,53.2652133"
                        id="login-svg-Fill-114"
                        fill="#F7691F"
                    />
                    <polyline id="login-svg-Stroke-115" stroke="#F7691F" stroke-width="2.4" points="186.303698 49.9788228 178.175286 58.0601502 180.717268 60.5866107" />
                    <line x1="182.328766" y1="57.6437742" x2="180.461547" y2="55.7873715" id="login-svg-Stroke-116" stroke="#0C5AE5" stroke-width="2.4" />
                    <path
                        d="M188.061128,51.7260722 C187.090655,52.6909236 185.516742,52.6909236 184.546269,51.7260722 C183.575796,50.7612209 183.575796,49.1964247 184.546269,48.2315734 C185.516742,47.266722 187.090655,47.266722 188.061128,48.2315734 C189.031601,49.1964247 189.031601,50.7612209 188.061128,51.7260722"
                        id="login-svg-Fill-117"
                        fill="#FFFFFF"
                    />
                </g>
            </g>
        </g>
    </g>
</svg>
