<svg width="328px" height="69px" viewBox="0 0 328 69" version="1.1" xmlns="http://www.w3.org/2000/svg" xmlns:xlink="http://www.w3.org/1999/xlink"><defs><rect id="logo-large-path-1" x="0" y="0" width="54.1011236" height="54.8390762" rx="9"></rect><filter x="-23.1%" y="-15.5%" width="146.2%" height="145.6%" filterUnits="objectBoundingBox" id="logo-large-filter-2"><feOffset dx="0" dy="4" in="SourceAlpha" result="shadowOffsetOuter1"></feOffset><feGaussianBlur stdDeviation="3.5" in="shadowOffsetOuter1" result="shadowBlurOuter1"></feGaussianBlur><feColorMatrix values="0 0 0 0 0   0 0 0 0 0   0 0 0 0 0  0 0 0 0.0983220881 0" type="matrix" in="shadowBlurOuter1"></feColorMatrix></filter></defs><g id="logo-large-Sigin-Page" stroke="none" stroke-width="1" fill="none" fill-rule="evenodd"><g id="logo-large-02" transform="translate(-145.000000, -186.000000)"><g id="logo-large-Logo_321" transform="translate(152.000000, 189.000000)"><g id="logo-large-Group"><g id="logo-large-Rectangle"><use fill="black" fill-opacity="1" filter="url(#logo-large-filter-2)" xlink:href="#logo-large-path-1"></use><use fill="#F7691F" fill-rule="evenodd" xlink:href="#logo-large-path-1"></use></g><g id="logo-large-Group-9" transform="translate(9.016854, 9.139846)" fill="#FFFFFF"><path d="M24.8800978,13.1790505 C24.8800978,14.3332667 23.9223524,15.2776254 22.7517747,15.2776254 C21.5811969,15.2776254 20.6234515,14.3332667 20.6234515,13.1790505 C20.6234515,12.0248343 21.5811969,11.0804756 22.7517747,11.0804756 C23.9436356,11.1014613 24.8800978,12.0248343 24.8800978,13.1790505 M4.25664634,17.3552146 C4.25664634,18.5094308 3.29890091,19.4537895 2.12832317,19.4537895 C0.957745425,19.4537895 0,18.5094308 0,17.3552146 C0,16.2009984 0.957745425,15.2566397 2.12832317,15.2566397 C3.29890091,15.2566397 4.25664634,16.2009984 4.25664634,17.3552146 M10.47135,28.4356902 C10.47135,29.5899064 9.51360456,30.5342651 8.34302682,30.5342651 C7.17244908,30.5342651 6.21470365,29.5899064 6.21470365,28.4356902 C6.21470365,27.281474 7.17244908,26.3371153 8.34302682,26.3371153 C9.51360456,26.3371153 10.47135,27.281474 10.47135,28.4356902" id="logo-large-Fill-1"></path><path d="M17.6650823,32.63284 C17.6650823,33.7870562 16.7073369,34.7314149 15.5367591,34.7314149 C14.3661814,34.7314149 13.408436,33.7870562 13.408436,32.63284 C13.408436,31.4786238 14.3661814,30.5342651 15.5367591,30.5342651 C16.7286201,30.5342651 17.6650823,31.4576381 17.6650823,32.63284 M17.6650823,25.3209632 C17.6650823,26.4751794 16.7073369,27.4195381 15.5367591,27.4195381 C14.3661814,27.4195381 13.408436,26.4751794 13.408436,25.3209632 C13.408436,24.166747 14.3661814,23.2223883 15.5367591,23.2223883 C16.7286201,23.2223883 17.6650823,24.1457612 17.6650823,25.3209632 M4.25664634,24.9940273 C4.25664634,26.1482435 3.29890091,27.0926022 2.12832317,27.0926022 C0.957745425,27.0926022 0,26.1482435 0,24.9940273 C0,23.8398111 0.957745425,22.8954524 2.12832317,22.8954524 C3.29890091,22.8954524 4.25664634,23.8398111 4.25664634,24.9940273 M4.25664634,9.71640188 C4.25664634,10.8706181 3.29890091,11.8149768 2.12832317,11.8149768 C0.957745425,11.8149768 0,10.8706181 0,9.71640188 C0,8.56218568 0.957745425,7.61782696 2.12832317,7.61782696 C3.29890091,7.63881271 4.25664634,8.56218568 4.25664634,9.71640188 M31.0948015,9.71640188 C31.0948015,10.8706181 30.1370561,11.8149768 28.9664783,11.8149768 C27.7959006,11.8149768 26.8381551,10.8706181 26.8381551,9.71640188 C26.8381551,8.56218568 27.7959006,7.61782696 28.9664783,7.61782696 C30.1370561,7.63881271 31.0948015,8.56218568 31.0948015,9.71640188 M24.8800978,6.14882452 C24.8800978,7.30304072 23.9223524,8.24739944 22.7517747,8.24739944 C21.5811969,8.24739944 20.6234515,7.30304072 20.6234515,6.14882452 C20.6234515,4.99460831 21.5811969,4.0502496 22.7517747,4.0502496 C23.9436356,4.0502496 24.8800978,4.99460831 24.8800978,6.14882452 M17.6650823,2.09857492 C17.6650823,3.25279113 16.7073369,4.19714984 15.5367591,4.19714984 C14.3661814,4.19714984 13.408436,3.25279113 13.408436,2.09857492 C13.408436,0.944358714 14.3661814,0 15.5367591,0 C16.7286201,0 17.6650823,0.944358714 17.6650823,2.09857492 M8.89639084,8.16345644 C8.72612499,8.20542794 8.5345759,8.22641369 8.34302682,8.22641369 C7.17244908,8.22641369 6.21470365,7.28205497 6.21470365,6.12783877 C6.21470365,4.97362256 7.17244908,4.02926385 8.34302682,4.02926385 C9.25820578,4.02926385 10.0456854,4.59587908 10.3436506,5.39333755 C10.4075003,5.54023779 11.0672805,7.00924023 12.2378582,7.55486971 C13.2594533,8.0165562 14.4725975,7.8066987 14.9195454,7.70176996 C15.1110945,7.63881271 15.34521,7.59684121 15.5580424,7.59684121 C16.7286201,7.59684121 17.6863655,8.54119993 17.6863655,9.69541613 C17.6863655,10.8496323 16.7286201,11.7939911 15.5580424,11.7939911 C14.7067131,11.7939911 13.9830832,11.3113188 13.6425515,10.5978033 C13.2594533,10.0311881 12.4719738,8.96091491 11.5355116,8.43627118 C10.7693152,8.0585277 9.57745425,8.10049919 8.89639084,8.16345644 M9.93926919,14.5641099 C9.91798596,14.5850957 8.81125791,15.9701551 8.83254115,17.3132431 C8.85382438,18.656331 9.93926919,20.167305 10.0031189,20.2722337 C10.2798009,20.6289915 10.4500668,21.0696922 10.4500668,21.5733502 C10.4500668,22.7275664 9.49232133,23.6719251 8.32174359,23.6719251 C7.15116584,23.6719251 6.19342042,22.7275664 6.19342042,21.5733502 C6.19342042,21.1536352 6.32111981,20.754906 6.53395213,20.419134 C6.61908505,20.251248 7.61939694,18.4884451 7.68324664,17.0823999 C7.7258131,16.2429699 7.12988261,15.1936824 6.74678444,14.6060814 C6.61908505,14.480167 6.53395213,14.3332667 6.4488192,14.1863665 C6.4488192,14.144395 6.42753597,14.144395 6.42753597,14.144395 C6.27855334,13.8505945 6.19342042,13.5358082 6.19342042,13.2000363 C6.19342042,12.04582 7.15116584,11.1014613 8.32174359,11.1014613 C9.49232133,11.1014613 10.4500668,12.04582 10.4500668,13.2000363 C10.47135,13.7036942 10.2585177,14.1863665 9.93926919,14.5641099" id="logo-large-Fill-3"></path><path d="M17.0265853,17.2293001 C17.7076488,17.2293001 18.282296,16.6836706 18.282296,15.9911409 C18.282296,15.3195969 17.728932,14.7529817 17.0265853,14.7529817 C16.3455219,14.7529817 15.7708747,15.2986112 15.7708747,15.9911409 C15.7921579,16.6836706 16.3455219,17.2293001 17.0265853,17.2293001 M15.5580424,21.7622219 C13.046621,21.7622219 11.0034308,19.74759 11.0034308,17.2712716 C11.0034308,14.7949532 13.046621,12.7803213 15.5580424,12.7803213 C18.0694637,12.7803213 20.1126539,14.7949532 20.1126539,17.2712716 C20.1126539,19.74759 18.0694637,21.7622219 15.5580424,21.7622219" id="logo-large-Fill-5"></path><path d="M33.7256643,27.2850471 C33.0437496,27.2850471 32.4980475,26.7471823 32.4980475,26.0745891 C32.4980475,25.4024155 33.0435367,24.8647606 33.7256643,24.8647606 C34.4077919,24.8647606 34.9532811,25.4024155 34.9532811,26.0745891 C34.9532811,26.7201107 34.4077919,27.2850471 33.7256643,27.2850471 M29.471572,27.2850471 C28.7896572,27.2850471 28.244168,26.7471823 28.244168,26.0745891 C28.244168,25.4024155 28.7896572,24.8647606 29.471572,24.8647606 C30.1534867,24.8647606 30.6987631,25.4024155 30.6987631,26.0745891 C30.6987631,26.7471823 30.1534867,27.2850471 29.471572,27.2850471 M25.2445093,27.2850471 C24.5628074,27.2850471 24.0173182,26.7471823 24.0173182,26.0745891 C24.0173182,25.4024155 24.5628074,24.8647606 25.2445093,24.8647606 C25.9264241,24.8647606 26.4714876,25.4024155 26.4714876,26.0745891 C26.4442451,26.7201107 25.8989687,27.2850471 25.2445093,27.2850471 M29.471572,19.1373299 C24.8352328,19.1373299 21.0993871,22.337237 21.0993871,26.2899028 C21.0993871,30.2425687 24.862901,33.442056 29.471572,33.442056 L29.471572,35.8889944 C29.471572,35.8889944 33.97106,32.393608 34.8436725,31.7749481 C36.6985061,30.4572529 37.8707865,28.4948755 37.8707865,26.289693 C37.8707865,22.3370271 34.1072727,19.1373299 29.471572,19.1373299" id="logo-large-Fill-7"></path></g><path d="M9,0 L47.0285186,0 C50.9346105,-5.24183671e-15 54.1011236,3.16651311 54.1011236,7.07260498 L54.1011236,7.07260498 L54.1011236,7.07260498 C44.4093782,9.0333963 35.693086,13.653807 27.9522472,20.9338371 C20.2114083,28.2138672 14.0288026,39.5156136 9.40442997,54.8390762 L9,54.8390762 C4.02943725,54.8390762 6.08718376e-16,50.809639 0,45.8390762 L0,9 C-6.08718376e-16,4.02943725 4.02943725,-8.63279275e-16 9,0 Z" id="logo-large-Rectangle" fill-opacity="0.2" fill="#EFFFFF" opacity="0.67010934"></path></g><g id="logo-large-Group-3" transform="translate(63.117978, 0.093742)"><text id="logo-large-SMISHING-REGEX-PORTA" font-family="Poppins-Regular, Poppins" font-size="21.6" font-weight="normal" fill="#333743"><tspan x="0" y="46.9075789">SMISHING REGEX PORTAL</tspan></text><text id="logo-large-SLASHNEXT" font-family="Poppins-Light, Poppins" font-size="16.2" font-weight="300" letter-spacing="10.0145453" fill="#979797"><tspan x="0" y="16.99902">SLASHNEXT</tspan></text></g></g></g></g></svg>
				