<?xml version="1.0" encoding="UTF-8"?>
<svg width="14px" height="15px" viewBox="0 0 14 15" version="1.1" xmlns="http://www.w3.org/2000/svg" xmlns:xlink="http://www.w3.org/1999/xlink">
    <title>logout</title>
    <g id="icons" stroke="none" stroke-width="1" fill="none" fill-rule="evenodd">
        <g id="Artboard" transform="translate(-167.000000, -208.000000)" fill="#333743" fill-rule="nonzero">
            <g id="logout" transform="translate(167.000000, 208.000000)">
                <path d="M13.9999793,8.18744939 C14.0084797,11.6059834 11.3999861,14.4985159 7.90864922,14.9420413 C4.41731234,15.3855666 1.13009258,13.2420018 0.232390445,9.93642575 C-0.665311688,6.6308497 1.10598604,3.19238971 4.36869429,1.90699342 C4.72079289,1.79223544 5.10407633,1.96329336 5.24361668,2.29746792 C5.38315702,2.63164247 5.23076938,3.01353936 4.89576092,3.1692252 C2.4177214,4.14814361 1.0004843,6.69352437 1.51418585,9.24258869 C2.02788741,11.791653 4.32871086,13.6307605 7.00402743,13.6307605 C9.679344,13.6307605 11.9801674,11.791653 12.493869,9.24258869 C13.0075706,6.69352437 11.5903335,4.14814361 9.11229394,3.1692252 C8.86452736,3.0884717 8.68338547,2.88089682 8.64203933,2.63034905 C8.60069319,2.37980127 8.70597355,2.12767335 8.91535311,1.97581065 C9.12473268,1.82394796 9.40362006,1.79743959 9.63936057,1.90699342 C12.2788324,2.93792832 14.0058171,5.42525944 13.9999793,8.18744939 Z M7.00051365,7.74396255 C7.3886348,7.74396255 7.70326915,7.43849205 7.70326915,7.0616751 L7.70326915,0.682287449 C7.70326915,0.305470496 7.3886348,0 7.00051365,0 C6.6123925,0 6.29775815,0.305470496 6.29775815,0.682287449 L6.29775815,7.0616751 C6.29775815,7.24262898 6.37179825,7.41617146 6.50359047,7.54412518 C6.63538269,7.6720789 6.8141313,7.74396255 7.00051365,7.74396255 Z" id="Shape"></path>
            </g>
        </g>
    </g>
</svg>