<?xml version="1.0" encoding="UTF-8"?>
<svg width="20px" height="20px" viewBox="0 0 20 20" version="1.1" xmlns="http://www.w3.org/2000/svg" xmlns:xlink="http://www.w3.org/1999/xlink">
    <title>Notification_Success</title>
    <g id="icons" stroke="none" stroke-width="1" fill="none" fill-rule="evenodd">
        <g id="Artboard" transform="translate(-29.000000, -162.000000)" fill="#F7691F" fill-rule="nonzero">
            <g id="Notification_Success" transform="translate(29.000000, 162.000000)">
                <path d="M3.09628096,7.43983615 L11.8825206,7.43983615 C12.2061054,7.43983615 12.4684418,7.17749956 12.4684418,6.85391463 C12.4684418,6.53032971 12.2061054,6.26799312 11.8825206,6.26799312 L3.09628096,6.26799312 C2.32239626,6.29553143 2.31778701,7.41038383 3.09628096,7.43983615 Z" id="Path"></path>
                <path d="M6.23420138,16.3093598 L3.09628096,16.3093598 C2.32075568,16.3376794 2.31934947,17.4522974 3.09628096,17.4812029 L6.23420138,17.4812029 C6.55778612,17.4812029 6.82012256,17.2188663 6.82012256,16.8952814 C6.82012256,16.5716964 6.55778612,16.3093598 6.23420138,16.3093598 Z" id="Path"></path>
                <path d="M3.09628096,9.9501583 L11.8825206,9.9501583 C12.2061054,9.9501583 12.4684418,9.68782171 12.4684418,9.36423678 C12.4684418,9.04065186 12.2061054,8.77831527 11.8825206,8.77831527 L3.09628096,8.77831527 C2.32239626,8.80589264 2.31778701,9.92070598 3.09628096,9.9501583 Z" id="Path"></path>
                <path d="M15.3584004,10.7093954 C15.2305915,10.7093954 15.1039934,10.7148249 14.9787625,10.72502 L14.9787625,4.34355342 C14.9787625,3.3032693 14.1314033,2.50247083 13.1376419,2.50247083 L11.1182841,2.50247083 C10.8592288,1.71260956 10.0747975,1.19617834 9.23493812,1.24730976 C8.66932887,-0.416277678 6.30876961,-0.415262081 5.74378535,1.24730976 C4.90388687,1.1962174 4.11949465,1.71264862 3.86047842,2.50247083 L1.8411206,2.50247083 C0.847398275,2.50243177 0,3.30319118 0,4.34355342 L0,18.1504815 C0,19.1885391 0.84560145,19.9915641 1.8411206,19.9915641 L13.1376419,19.9915641 C13.4405632,19.9915641 13.7294223,19.9168396 13.9850011,19.7841088 C16.8924592,20.734122 20.0514338,18.4209038 19.9993649,15.3504407 C19.999443,12.7914089 17.9174698,10.7093954 15.3584004,10.7093954 Z M5.60660167,2.41911373 L6.23420138,2.41911373 C6.55778612,2.41911373 6.82012256,2.15615215 6.82012256,1.83256723 C6.82012256,1.46390541 7.12038764,1.16395265 7.4894008,1.16395265 C7.85841396,1.16395265 8.15867903,1.46417884 8.15867903,1.83319221 C8.15867903,2.15677713 8.42101548,2.41911373 8.74460022,2.41911373 L9.37216086,2.41911373 C9.73676008,2.41911373 10.0414,2.71215261 10.0414,3.08835329 C10.0414,3.45896818 9.74043186,3.75759284 9.37216086,3.75759284 L5.60664073,3.75759284 C5.23762757,3.75759284 4.93740156,3.45736666 4.93740156,3.08835329 C4.93740156,2.71269947 5.24141653,2.41911373 5.60660167,2.41911373 Z M1.8411206,18.819721 C1.47409957,18.819721 1.17184236,18.5223854 1.17184236,18.1504815 L1.17184236,4.34355342 C1.17184236,3.96715744 1.47667762,3.67431387 1.8411206,3.67431387 L3.86168933,3.67431387 C4.10703406,4.40300493 4.79627268,4.92947494 5.60660167,4.92947494 L9.3721218,4.92947494 C10.1699511,4.92947494 10.8709863,4.41343433 11.1181279,3.67431387 L13.1376029,3.67431387 C13.5022021,3.67431387 13.8068811,3.96731369 13.8068811,4.34355342 L13.8068811,10.9764194 C13.3108793,11.1528989 12.8535092,11.4114075 12.4511376,11.7356955 C12.3886784,11.4792572 12.1580989,11.2886765 11.8824816,11.2886765 L3.0962419,11.2886765 C2.32181034,11.3164882 2.31829481,12.4312625 3.0962419,12.4605195 L11.7296733,12.4605195 C11.4119087,12.8587118 11.1582439,13.3101057 10.9843035,13.7990377 L3.09628096,13.7990377 C2.77269622,13.7990377 2.51035977,14.0613743 2.51035977,14.3849592 C2.51035977,14.7085441 2.77269622,14.9708807 3.09628096,14.9708807 L10.7329042,14.9708807 C10.6027516,16.449981 11.2304294,17.9011524 12.2791502,18.819721 L1.8411206,18.819721 Z M15.3584004,18.819721 C13.4454459,18.819721 11.8891611,17.2634354 11.8891611,15.3505188 C12.0635703,10.7543942 18.6538946,10.7556441 18.8276397,15.3505579 C18.8276397,17.2634354 17.2713159,18.819721 15.3584004,18.819721 Z" id="Shape"></path>
                <path d="M16.1606437,14.1250054 L14.9529039,15.3327849 L14.5560399,14.936116 C14.3271791,14.7073332 13.9561738,14.7073723 13.7274302,14.9362723 C13.4986866,15.1651332 13.4987647,15.5360997 13.7275864,15.7648825 C13.7275864,15.7648825 14.5387357,16.5757198 14.5387357,16.5757198 C14.7675575,16.8044635 15.1384846,16.8044245 15.3672673,16.5756416 C15.3672673,16.5756416 16.9892534,14.9536546 16.9892534,14.9536546 C17.2180752,14.7248718 17.2180752,14.3538663 16.9892534,14.1250444 C16.7604317,13.8962225 16.3894264,13.8962225 16.1606437,14.1250054 L16.1606437,14.1250054 Z" id="Path"></path>
            </g>
        </g>
    </g>
</svg>