<?xml version="1.0" encoding="UTF-8"?>
<svg width="15px" height="16px" viewBox="0 0 15 16" version="1.1" xmlns="http://www.w3.org/2000/svg" xmlns:xlink="http://www.w3.org/1999/xlink">
    <title>Process Management</title>
    <g id="icons" stroke="none" stroke-width="1" fill="none" fill-rule="evenodd">
        <g id="Artboard" transform="translate(-81.000000, -208.000000)" fill="#333743" fill-rule="nonzero">
            <g id="Process-Management" transform="translate(81.000000, 208.000000)">
                <path d="M7.49878179,0 C7.12942576,0.00114309704 6.80510047,0.24408022 6.70255086,0.596419908 C3.06998897,0.982699167 0.245997273,3.91140114 0.0151514667,7.53178017 C-0.215694339,11.1521592 2.21375296,14.4111385 5.76824359,15.249259 C5.8648687,15.2718286 5.96628002,15.2414975 6.03427689,15.1696913 C6.10227375,15.097885 6.12652582,14.9955126 6.09789757,14.9011368 C6.06926932,14.806761 5.99211007,14.7347196 5.89548496,14.7121501 C2.61009949,13.9372021 0.362101384,10.9282032 0.56816156,7.58140119 C0.774221737,4.23459914 3.37462213,1.51992685 6.73061063,1.14814967 C6.89241985,1.53058186 7.31435861,1.73498903 7.71750047,1.62624598 C8.12064233,1.51750292 8.38043229,1.12920697 8.32513384,0.718044683 C8.2698354,0.306882392 7.9165336,0 7.49878179,0 Z M7.49878179,1.10345956 C7.34534627,1.10345956 7.2209622,0.979950647 7.2209622,0.827594679 C7.2209622,0.675238712 7.34534627,0.551729797 7.49878179,0.551729797 C7.65221731,0.551729797 7.77660138,0.675238712 7.77660138,0.827594679 C7.77660138,0.979950647 7.65221731,1.10345956 7.49878179,1.10345956 Z" id="Shape"></path>
                <path d="M14.9999555,8.00008163 C15.0119007,4.54392442 12.6186528,1.53745945 9.22932,0.750904242 C9.07995052,0.716014725 8.93037868,0.807967113 8.89524194,0.956285647 C8.86010521,1.10460418 8.95270915,1.25312365 9.10207863,1.28801317 C12.3874641,2.06296117 14.6354622,5.07196003 14.429402,8.41876207 C14.2233418,11.7655641 11.6229415,14.4802364 8.26695295,14.8520136 C8.11229293,14.4762844 7.7073747,14.2659902 7.30835841,14.3541676 C6.90934212,14.442345 6.63245976,14.8033084 6.65287318,15.2087043 C6.67328661,15.6141002 6.98504945,15.9458384 7.39093371,15.9940539 C7.79681798,16.0422695 8.17859104,15.7929174 8.29473491,15.4037433 C12.1048039,14.9960761 14.9946054,11.8052406 14.9999555,8.00008163 Z M7.49878179,15.4484335 C7.34534627,15.4484335 7.2209622,15.3249245 7.2209622,15.1725686 C7.2209622,15.0202126 7.34534627,14.8967037 7.49878179,14.8967037 C7.65221731,14.8967037 7.77660138,15.0202126 7.77660138,15.1725686 C7.77660138,15.3249245 7.65221731,15.4484335 7.49878179,15.4484335 Z" id="Shape"></path>
                <path d="M8.88787973,13.7932442 L6.10968386,13.7932442 L6.10968386,12.4779204 C5.43035993,12.2710933 4.80687569,11.9145347 4.28579827,11.4348753 L3.14062593,12.0911578 L1.751528,9.70216795 L2.89781161,9.0450578 C2.73519192,8.35776406 2.73519192,7.6423992 2.89781161,6.95510545 L1.751528,6.2979953 L3.14062593,3.90900542 L4.28579827,4.56528797 C4.80687569,4.0856286 5.43035993,3.72906995 6.10968386,3.52224285 L6.10968386,2.20691909 L8.88787973,2.20691909 L8.88787973,3.52224285 C9.56720366,3.72906995 10.1906879,4.0856286 10.7117653,4.56528797 L11.8569376,3.90900542 L13.2460356,6.2979953 L12.099752,6.95510545 C12.2623717,7.6423992 12.2623717,8.35776406 12.099752,9.0450578 L13.2460356,9.70216795 L11.8569376,12.0911578 L10.7117653,11.4348753 C10.1906879,11.9145347 9.56720366,12.2710933 8.88787973,12.4779204 L8.88787973,13.7932442 Z M6.66532303,13.2415144 L8.33224055,13.2415144 L8.33224055,12.0552954 L8.54060524,12.0020535 C9.27304159,11.8153831 9.94032751,11.4338711 10.4706179,10.898594 L10.6214739,10.7463165 L11.6532959,11.3380467 L12.4867547,9.90354932 L11.4535436,9.31126742 L11.5107744,9.10547221 C11.7178462,8.38251267 11.7178462,7.61654713 11.5107744,6.89358758 L11.4535436,6.68779238 L12.4867547,6.09661394 L11.6532959,4.66211655 L10.6214739,5.25412259 L10.4706179,5.10184517 C9.94032751,4.56656798 9.27304159,4.18505597 8.54060524,3.99838564 L8.33224055,3.94486785 L8.33224055,2.75864886 L6.66532303,2.75864886 L6.66532303,3.94486785 L6.45695834,3.99810978 C5.72452199,4.18478011 5.05723607,4.56629212 4.52694567,5.10156931 L4.37608964,5.25384672 L3.34426769,4.66211655 L2.51080893,6.09661394 L3.54401997,6.68889584 L3.48678914,6.89469104 C3.27971737,7.61765059 3.27971737,8.38361613 3.48678914,9.10657567 L3.54401997,9.31237088 L2.51080893,9.90354932 L3.34426769,11.3380467 L4.37608964,10.7465924 L4.52694567,10.8988698 C5.05723607,11.434147 5.72452199,11.815659 6.45695834,12.0023293 L6.66532303,12.0552954 L6.66532303,13.2415144 Z" id="Shape"></path>
                <path d="M8.33224055,11.0345953 L6.66532303,11.0345953 L6.66532303,10.3388641 C6.37616576,10.2375487 6.10824262,10.0842846 5.87492631,9.88672156 L5.26900179,10.2345872 L4.43554303,8.80008979 L5.04174537,8.4527759 C4.98396192,8.15352124 4.98396192,7.84609028 5.04174537,7.54683563 L4.43554303,7.20007347 L5.26900179,5.76557608 L5.87492631,6.11316583 C6.10826465,5.91570106 6.37618642,5.76253124 6.66532303,5.66129915 L6.66532303,4.96556792 L8.33224055,4.96556792 L8.33224055,5.66129915 C8.62139782,5.76261459 8.88932097,5.9158787 9.12263728,6.1134417 L9.72856179,5.76585194 L10.5620206,7.20034933 L9.95581822,7.54766322 C10.0136017,7.84691788 10.0136017,8.15434884 9.95581822,8.4536035 L10.5620206,8.80008979 L9.72856179,10.2345872 L9.12263728,9.88699743 C8.88929893,10.0844622 8.62137716,10.237632 8.33224055,10.3388641 L8.33224055,11.0345953 Z M7.2209622,10.4828656 L7.77660138,10.4828656 L7.77660138,9.92120467 L7.98496607,9.86796275 C8.32667809,9.7801531 8.63791672,9.60174202 8.88537935,9.35181955 L9.03623538,9.19954214 L9.52519786,9.47954499 L9.80301744,9.00174702 L9.31322151,8.72091657 L9.37073017,8.51512136 C9.46784821,8.17797002 9.46784821,7.82053805 9.37073017,7.4833867 L9.31322151,7.2775915 L9.80301744,6.99676105 L9.52519786,6.51896307 L9.03623538,6.79896593 L8.88537935,6.64668851 C8.63781699,6.39706786 8.32658759,6.21894813 7.98496607,6.13137291 L7.77660138,6.07895859 L7.77660138,5.51729768 L7.2209622,5.51729768 L7.2209622,6.07895859 L7.01259751,6.13220051 C6.67088549,6.22001016 6.35964686,6.39842123 6.11218423,6.6483437 L5.9613282,6.80062112 L5.47236573,6.52061826 L5.19454614,6.99841624 L5.68434207,7.27924669 L5.62683342,7.48504189 C5.52971537,7.82219324 5.52971537,8.17962521 5.62683342,8.51677655 L5.68434207,8.72257176 L5.19454614,9.00340221 L5.47236573,9.48120018 L5.9613282,9.20119733 L6.11218423,9.35347474 C6.35974659,9.6030954 6.670976,9.78121513 7.01259751,9.86879034 L7.2209622,9.92203227 L7.2209622,10.4828656 Z M7.49878179,9.37940604 C6.73160419,9.37940604 6.10968386,8.76186147 6.10968386,8.00008163 C6.10968386,7.23830179 6.73160419,6.62075722 7.49878179,6.62075722 C8.2659594,6.62075722 8.88787973,7.23830179 8.88787973,8.00008163 C8.88696122,8.76148337 8.26557862,9.378494 7.49878179,9.37940604 Z M7.49878179,7.17248698 C7.03847523,7.17248698 6.66532303,7.54301373 6.66532303,8.00008163 C6.66532303,8.45714953 7.03847523,8.82767628 7.49878179,8.82767628 C7.95908835,8.82767628 8.33224055,8.45714953 8.33224055,8.00008163 C8.33224055,7.54301373 7.95908835,7.17248698 7.49878179,7.17248698 Z" id="Shape"></path>
            </g>
        </g>
    </g>
</svg>