<svg width="26px" height="26px" viewBox="0 0 26 26" version="1.1" xmlns="http://www.w3.org/2000/svg" xmlns:xlink="http://www.w3.org/1999/xlink"> <g id="search-loader-RegEX" stroke="none" stroke-width="1" fill="none" fill-rule="evenodd"> <g id="search-loader-RegEX-34" transform="translate(-671.000000, -477.000000)" fill="#F7691F" fill-rule="nonzero"> <g id="search-loader-Group-7" transform="translate(645.000000, 477.000000)"> <g id="search-loader-loading" transform="translate(26.000000, 0.000000)"> <ellipse id="search-loader-Oval1" cx="13.6387164" cy="3.04106262" rx="3.19047619" ry="3.04106262"></ellipse> <ellipse id="search-loader-Oval2" cx="13.6387164" cy="24.1755598" rx="1.91407867" ry="1.82444023"></ellipse> <ellipse id="search-loader-Oval3" cx="5.79917184" cy="6.13540797" rx="2.87163561" ry="2.7371537"></ellipse> <ellipse id="search-loader-Oval4" cx="21.4782609" cy="21.079241" rx="1.5952381" ry="1.52053131"></ellipse> <ellipse id="search-loader-Oval5" cx="2.55175983" cy="13.6088046" rx="2.55175983" ry="2.43225806"></ellipse> <ellipse id="search-loader-Oval6" cx="24.7246377" cy="13.6078178" rx="1.27536232" ry="1.21563567"></ellipse> <path d="M4.22049689,19.5764706 C3.34782609,20.4082732 3.34782609,21.7541556 4.22049689,22.5859583 C5.09213251,23.4177609 6.50621118,23.4177609 7.37784679,22.5859583 C8.2505176,21.7541556 8.2505176,20.4082732 7.37784679,19.5764706 C6.50621118,18.7436812 5.0931677,18.7357875 4.22049689,19.5764706 Z" id="Path"></path> <ellipse id="search-loader-Oval7" cx="21.4772257" cy="6.13540797" rx="1" ry="1"></ellipse> </g> </g> </g> </g> </svg>