<?xml version="1.0" encoding="UTF-8"?>
<svg width="15px" height="16px" viewBox="0 0 15 16" version="1.1" xmlns="http://www.w3.org/2000/svg" xmlns:xlink="http://www.w3.org/1999/xlink">
    <title>Search RegEX</title>
    <g id="icons" stroke="none" stroke-width="1" fill="none" fill-rule="evenodd">
        <g id="Artboard" transform="translate(-194.000000, -165.000000)" fill="#F7691F" fill-rule="nonzero">
            <path d="M204.017197,166.732836 C201.728814,164.422388 198.004299,164.422388 195.715916,166.732836 C193.428028,169.043785 193.428028,172.80371 195.715916,175.114659 C197.753783,177.171674 200.927656,177.392051 203.214551,175.785806 C203.262671,176.015699 203.372799,176.235074 203.549897,176.413879 L206.882513,179.778629 C207.368169,180.267965 208.152956,180.267965 208.636131,179.778629 C209.12129,179.288792 209.12129,178.496438 208.636131,178.008103 L205.303514,174.642352 C205.127408,174.465049 204.909632,174.353358 204.681935,174.304775 C206.273832,171.995329 206.05556,168.791354 204.017197,166.732836 Z M202.965027,174.052344 C201.256552,175.777291 198.476064,175.777291 196.768086,174.052344 C195.060604,172.327396 195.060604,169.5206 196.768086,167.795652 C198.476064,166.071205 201.256552,166.071205 202.965027,167.795652 C204.673501,169.5206 204.673501,172.327396 202.965027,174.052344 Z" id="Search-RegEX"></path>
        </g>
    </g>
</svg>