<?xml version="1.0" encoding="UTF-8"?>
<svg width="15px" height="15px" viewBox="0 0 15 15" version="1.1" xmlns="http://www.w3.org/2000/svg" xmlns:xlink="http://www.w3.org/1999/xlink">
    <title>User Management</title>
    <g id="icons" stroke="none" stroke-width="1" fill="none" fill-rule="evenodd">
        <g id="Artboard" transform="translate(-124.000000, -208.000000)" fill="#333743" fill-rule="nonzero">
            <g id="Group" transform="translate(124.000000, 208.000000)">
                <path d="M6.47736337,0 C6.33071284,0 6.20053757,0.0939126848 6.1541278,0.233026245 L5.80892116,1.26798126 C5.27630131,1.41197516 4.76596637,1.62268052 4.28695071,1.89647701 L3.31324898,1.40979139 C3.18200464,1.34420139 3.02351566,1.36994097 2.91977359,1.4736942 L1.47370176,2.9197659 C1.36994324,3.02350577 1.34419864,3.18199701 1.40978682,3.31324489 L1.89813563,4.28961158 C1.62407093,4.76777469 1.41259332,5.27709041 1.26797597,5.80892028 L0.23302261,6.15413075 C0.0939123678,6.20054112 0,6.33071371 0,6.47736174 L0,8.52263826 C0,8.66928866 0.09391012,8.79946457 0.23302261,8.84587569 L1.26864173,9.19108616 C1.41267681,9.72356021 1.62336839,10.2335137 1.89713702,10.7123918 L1.40978682,11.6867616 C1.34420178,11.8180078 1.36994621,11.9764953 1.47370176,12.0802341 L2.91977359,13.5263122 C3.02351566,13.6300655 3.18200464,13.655805 3.31324898,13.5902151 L4.29061242,13.1015325 C4.76836704,13.3752517 5.27728105,13.5865046 5.80858812,13.7310267 L6.1541278,14.7669802 C6.2005398,14.9060912 6.33071455,15 6.47736337,15 L8.52263625,15 C8.66928506,15 8.79945982,14.9060912 8.84587182,14.7669802 L9.19141085,13.7306917 C9.7236018,13.5867944 10.2333708,13.3763597 10.7120503,13.1028595 L11.6867507,13.5902151 C11.817995,13.6558049 11.9764838,13.6300653 12.0802258,13.5263122 L13.5262975,12.0802341 C13.6300532,11.9764955 13.6557979,11.8180079 13.5902131,11.6867616 L13.1018644,10.7097314 C13.3757622,10.231871 13.5870707,9.72254885 13.7316912,9.19108616 L14.7669774,8.84587569 C14.9060899,8.79946457 15,8.66928866 15,8.52263826 L15,6.47736174 C15,6.33071371 14.9060876,6.20054112 14.7669774,6.15413075 L13.7316912,5.80892028 C13.5877826,5.27632384 13.3772257,4.76597098 13.1035289,4.28694467 L13.5902131,3.31324489 C13.6558011,3.18199688 13.6300562,3.02350562 13.5262975,2.9197659 L12.0802258,1.4736942 C11.9764838,1.36994112 11.817995,1.34420155 11.6867507,1.40979139 L10.7103857,1.89781047 C10.232228,1.62359525 9.72260783,1.41206535 9.19074541,1.26731775 L8.84587182,0.233026245 C8.79946205,0.0939126848 8.66928677,0 8.52263625,0 L6.47736337,0 Z M6.72303575,0.681763134 L8.27696387,0.681763134 L8.59820183,1.64514313 C8.63544675,1.75684724 8.72769901,1.84142334 8.8422103,1.86884807 C9.43883733,2.01156005 10.0088501,2.24804555 10.5312913,2.56958235 C10.6317345,2.63143153 10.7570132,2.63696234 10.862516,2.58420527 L11.77197,2.12947749 L12.8705057,3.22801967 L12.4174426,4.13447978 C12.3648417,4.2397501 12.3702525,4.36470576 12.4317563,4.46503511 C12.7526587,4.98841332 12.9884835,5.5594352 13.1301587,6.15678478 C13.1573796,6.2715489 13.2419881,6.36408935 13.35386,6.40145783 L14.3182413,6.72303327 L14.3182413,8.27696029 L13.35386,8.59853573 C13.2421588,8.63578057 13.1575845,8.72803032 13.1301587,8.84253883 C12.9875488,9.43880619 12.7513175,10.0084366 12.4300918,10.5306295 C12.3682344,10.6310684 12.3626939,10.7563474 12.4154431,10.8618548 L12.8705031,11.7719739 L11.7719674,12.8705096 L10.8645111,12.4167803 C10.7592419,12.3641737 10.6342844,12.3695797 10.5339518,12.4310812 C10.0109462,12.7517548 9.44010186,12.9874479 8.8432062,13.129155 C8.72856962,13.1564768 8.63617349,13.2410672 8.59886534,13.3528535 L8.27696129,14.3182369 L6.72303317,14.3182369 L6.40112912,13.3531884 C6.36388432,13.2414845 6.27163235,13.1569084 6.1571213,13.1294835 C5.56111287,12.9870099 4.99140588,12.7510268 4.46937146,12.4300827 C4.36901173,12.3683559 4.24389291,12.3628266 4.13847936,12.4154598 L3.22802668,12.8705161 L2.12949136,11.7719803 L2.58321985,10.8648567 C2.63582302,10.7595845 2.63041192,10.6346258 2.56890551,10.5342949 C2.24795485,10.0111358 2.01200689,9.44003013 1.8701706,8.84288025 C1.8428471,8.72824383 1.75825555,8.63584876 1.64646889,8.59854217 L0.681755222,8.27696673 L0.681755222,6.72303971 L1.64580313,6.40146427 C1.75750614,6.36421837 1.84208095,6.27196581 1.8695049,6.15745473 C2.01205172,5.56097479 2.24828499,4.99075814 2.5695714,4.46837197 C2.63130479,4.36801685 2.63684309,4.24289884 2.58421813,4.13748166 L2.1294911,3.22802611 L3.22802642,2.12948393 L4.13448434,2.58254972 C4.23975349,2.63515636 4.36471104,2.62975038 4.4650436,2.56824889 C4.9883984,2.24723388 5.55941952,2.01128306 6.15678826,1.86951157 C6.2715519,1.84229166 6.36409258,1.75768431 6.40146216,1.64581308 L6.72303575,0.681763134 Z" id="Shape"></path>
                <path d="M7.49933397,3.06725114 C5.05596324,3.06725114 3.06824232,5.05664079 3.06824232,7.50001501 C3.06824232,9.94338923 5.05596324,11.9311145 7.49933397,11.9311145 C9.94270453,11.9311145 11.93209,9.94338923 11.93209,7.50001501 C11.93209,5.05664079 9.94270453,3.06725114 7.49933397,3.06725114 Z M7.49933397,3.74934284 C9.57425527,3.74934284 11.2499999,5.42509326 11.2499999,7.50001501 C11.2499999,8.40625998 10.9304215,9.23587066 10.3974696,9.88317493 L10.3974696,9.71506547 C10.3974696,8.96557305 9.78344543,8.35154781 9.03395434,8.35154781 L5.96604506,8.35154781 C5.21655414,8.35154781 4.60252983,8.96557305 4.60252983,9.71506547 L4.60252983,9.8835078 C4.06966995,9.23615103 3.74999993,8.40642837 3.74999993,7.50001501 C3.74999993,5.42509326 5.42441233,3.74934284 7.49933397,3.74934284 Z M5.96604506,9.03330664 L9.03395434,9.03330664 C9.41754322,9.03330664 9.71571196,9.3314812 9.71571196,9.71506547 L9.71571196,10.5263186 C9.45517914,10.7170734 9.16899775,10.87469 8.86318207,10.9936961 L8.86318207,10.0566106 L8.18142445,10.0566106 L8.18142445,11.1864394 C7.96022888,11.2268911 7.7324148,11.2493557 7.49933397,11.2493557 C7.26672611,11.2493557 7.03965412,11.2270636 6.81890782,11.1867725 L6.81890782,10.0566106 L6.13681734,10.0566106 L6.13681734,10.994029 C5.83104666,10.8750936 5.54476129,10.7176769 5.28428744,10.5269843 L5.28428744,9.71506547 C5.28428744,9.3314812 5.58245618,9.03330664 5.96604506,9.03330664 Z" id="Shape"></path>
                <path d="M7.4994967,4.2613449 C6.46809232,4.2613449 5.62483082,5.10460435 5.62483082,6.13600992 C5.62483082,7.16741549 6.46809232,8.01068139 7.4994967,8.01068139 C8.53090108,8.01068139 9.37542034,7.16741549 9.37542034,6.13600992 C9.37542034,5.10460435 8.53090108,4.2613449 7.4994967,4.2613449 Z M7.4994967,4.94326908 C8.16245178,4.94326908 8.6934948,5.47305689 8.6934948,6.13600992 C8.6934948,6.7989694 8.16245178,7.32875721 7.4994967,7.32875721 C6.83654163,7.32875721 6.30675604,6.7989694 6.30675604,6.13600992 C6.30675604,5.47305689 6.83654163,4.94326908 7.4994967,4.94326908 Z" id="Shape"></path>
            </g>
        </g>
    </g>
</svg>